<?xml version="1.0" encoding="utf-8"?>
<!-- Generator: Adobe Illustrator 27.5.0, SVG Export Plug-In . SVG Version: 6.00 Build 0)  -->
<svg version="1.1" xmlns="http://www.w3.org/2000/svg" xmlns:xlink="http://www.w3.org/1999/xlink" x="0px" y="0px"
	 viewBox="0 0 500 500" style="enable-background:new 0 0 500 500;" xml:space="preserve">
<g id="Background_Complete">
	<g>
		<path style="fill:#E0E0E0;" d="M92.615,86.645l49.754,101.249c1.047,2.13,0.169,4.705-1.962,5.752l0,0
			c-2.13,1.047-4.706,0.169-5.752-1.962L84.902,90.435c-1.047-2.13-0.169-4.705,1.962-5.752l0,0
			C88.993,83.636,91.569,84.514,92.615,86.645z"/>
		
			<rect x="123.899" y="166.538" transform="matrix(-0.441 -0.8975 0.8975 -0.441 43.2102 365.7975)" style="fill:#E0E0E0;" width="23.235" height="5.809"/>
		<path style="fill:#E0E0E0;" d="M126.861,148.831L126.861,148.831c0.981,1.997,0.158,4.411-1.839,5.393l-7.709,3.788
			c-1.997,0.981-4.411,0.158-5.393-1.839v0c-0.981-1.997-0.158-4.411,1.839-5.392l7.709-3.788
			C123.465,146.011,125.88,146.835,126.861,148.831z"/>
		<polygon style="fill:#E0E0E0;" points="143.426,182.99 154.189,177.701 151.387,171.998 146.005,174.642 144.246,171.062 
			149.627,168.417 145.016,159.034 141.24,160.89 139.48,157.309 143.257,155.454 140.471,149.783 129.707,155.073 		"/>
		
			<rect x="84.73" y="80.28" transform="matrix(-0.441 -0.8975 0.8975 -0.441 49.4864 208.3971)" style="fill:#E0E0E0;" width="9.818" height="17.016"/>
		<path style="fill:#E0E0E0;" d="M63.539,57.717c0.172,0.35,0.366,0.683,0.576,1c-7.813,4.779-10.841,14.811-6.722,23.194l0,0
			c4.368,8.888,15.114,12.553,24.003,8.185l13.475-6.622c8.888-4.368,12.553-15.114,8.185-24.003l0,0
			c-4.182-8.511-14.212-12.227-22.86-8.693c-0.121-0.349-0.262-0.696-0.43-1.036c-2.202-4.481-7.62-6.329-12.101-4.127
			C63.184,47.818,61.337,53.236,63.539,57.717z M82.776,57.074c5.5-2.703,12.15-0.435,14.852,5.065
			c2.703,5.5,0.435,12.15-5.065,14.852c-2.922,1.436-6.168,1.469-8.974,0.36c-0.837,2.899-2.846,5.449-5.768,6.884
			c-5.5,2.703-12.15,0.435-14.852-5.065c-2.703-5.5-0.435-12.15,5.065-14.852c2.922-1.436,6.168-1.469,8.974-0.36
			C77.845,61.059,79.855,58.51,82.776,57.074z M75.256,51.308c1.048,2.132,0.169,4.711-1.964,5.759
			c-2.132,1.048-4.711,0.169-5.759-1.964s-0.169-4.711,1.964-5.759C71.63,48.297,74.208,49.176,75.256,51.308z"/>
	</g>
	<g>
		<path style="fill:#E0E0E0;" d="M401.991,386.361l25.988-127.465c0.441-2.163,2.552-3.559,4.714-3.118l1.746,0.356
			c2.163,0.441,3.559,2.552,3.118,4.714l-25.988,127.465c-0.441,2.163-2.552,3.559-4.715,3.118l-1.746-0.356
			C402.945,390.634,401.55,388.524,401.991,386.361z"/>
		
			<rect x="407.925" y="277.835" transform="matrix(-0.1998 0.9798 -0.9798 -0.1998 780.7421 -75.3459)" style="fill:#E0E0E0;" width="26.426" height="6.607"/>
		<path style="fill:#E0E0E0;" d="M414.427,306.526l0.334-1.637c0.413-2.027,2.392-3.336,4.42-2.923l11.209,2.285
			c2.028,0.413,3.336,2.392,2.923,4.42l-0.334,1.637c-0.413,2.028-2.392,3.336-4.42,2.923l-11.209-2.285
			C415.323,310.532,414.014,308.553,414.427,306.526z"/>
		<polygon style="fill:#E0E0E0;" points="423.44,263.447 410.076,260.722 408.632,267.803 415.314,269.165 414.408,273.611 
			407.726,272.249 405.35,283.9 410.039,284.856 409.133,289.302 404.444,288.346 403.008,295.386 416.373,298.111 		"/>
		
			<rect x="400.755" y="375.952" transform="matrix(-0.1998 0.9798 -0.9798 -0.1998 865.3682 64.5183)" style="fill:#E0E0E0;" width="11.166" height="19.353"/>
		<path style="fill:#E0E0E0;" d="M408.22,431.742c0.089-0.435,0.145-0.869,0.177-1.3c10.355,1.133,20.056-5.791,22.178-16.199l0,0
			c2.25-11.037-4.873-21.808-15.909-24.058l-16.732-3.411c-11.037-2.25-21.808,4.873-24.058,15.909v0
			c-2.155,10.568,4.288,20.887,14.528,23.72c-0.134,0.399-0.248,0.809-0.334,1.231c-1.134,5.564,2.457,10.995,8.021,12.129
			C401.655,440.897,407.086,437.306,408.22,431.742z M390.46,418.942c-6.829-1.392-11.237-8.057-9.844-14.887
			c1.392-6.829,8.057-11.237,14.887-9.844c3.628,0.74,6.572,2.967,8.327,5.917c2.769-2.027,6.351-2.924,9.978-2.185
			c6.829,1.392,11.237,8.057,9.844,14.887c-1.392,6.829-8.057,11.237-14.887,9.844c-3.628-0.74-6.572-2.967-8.327-5.917
			C397.669,418.785,394.087,419.682,390.46,418.942z M393.218,429.361c0.54-2.648,3.124-4.357,5.772-3.817
			c2.648,0.54,4.357,3.124,3.817,5.772c-0.54,2.648-3.124,4.357-5.772,3.817C394.387,434.593,392.678,432.009,393.218,429.361z"/>
	</g>
	<g>
		<g>
			<g>
				<g>
					<g>
						<g>
							
								<rect x="392.404" y="53.784" transform="matrix(1 -0.0054 0.0054 1 -0.4039 2.1301)" style="fill:#E0E0E0;" width="9.08" height="45.18"/>
						</g>
					</g>
				</g>
			</g>
		</g>
		<g>
			<g>
				<g>
					<g>
						<g>
							<g>
								
									<rect x="313.691" y="53.94" transform="matrix(1 -0.0053 0.0053 1 -0.3504 1.7408)" style="fill:#EBEBEB;" width="23.513" height="24.942"/>
							</g>
						</g>
					</g>
				</g>
			</g>
			<g>
				<g>
					<g>
						<g>
							<g>
								
									<rect x="337.092" y="53.815" transform="matrix(1 -0.0054 0.0054 1 -0.3497 1.8674)" style="fill:#F5F5F5;" width="23.513" height="24.942"/>
							</g>
						</g>
					</g>
				</g>
			</g>
			<g>
				<g>
					<g>
						<g>
							<g>
								<g>
									<path style="fill:#E0E0E0;" d="M313.661,60.892c15.626,0.129,31.29,0.038,46.914-0.216
										c0.321-0.005,0.319-0.498-0.003-0.499c-15.626-0.086-31.29-0.01-46.913,0.287
										C313.383,60.469,313.385,60.889,313.661,60.892L313.661,60.892z"/>
								</g>
							</g>
						</g>
					</g>
				</g>
			</g>
		</g>
		<g>
			<g>
				<g>
					<g>
						<g>
							<g>
								
									<rect x="299.019" y="78.518" transform="matrix(1 -0.0054 0.0054 1 -0.4704 1.7172)" style="fill:#EBEBEB;" width="42.719" height="20.326"/>
							</g>
						</g>
					</g>
				</g>
			</g>
			<g>
				<g>
					<g>
						<g>
							<g>
								
									<rect x="341.535" y="78.29" transform="matrix(1 -0.0054 0.0054 1 -0.4687 1.9458)" style="fill:#F5F5F5;" width="42.719" height="20.326"/>
							</g>
						</g>
					</g>
				</g>
			</g>
			<g>
				<g>
					<g>
						<g>
							<g>
								<g>
									<path style="fill:#E0E0E0;" d="M298.995,84.285c28.379,0.321,56.858,0.033,85.235-0.421c0.322-0.006,0.319-0.498-0.003-0.5
										c-28.381-0.15-56.861-0.133-85.235,0.492C298.717,83.863,298.719,84.282,298.995,84.285L298.995,84.285z"/>
								</g>
							</g>
						</g>
					</g>
				</g>
			</g>
		</g>
		<g>
			<g>
				<g>
					<g>
						<g>
							<rect x="283.019" y="98.958" style="fill:#E0E0E0;" width="165.506" height="7.282"/>
						</g>
					</g>
				</g>
			</g>
			<g>
				<g>
					<g>
						<g>
							<rect x="310.116" y="102.459" style="fill:#E0E0E0;" width="6.719" height="24.847"/>
						</g>
					</g>
				</g>
			</g>
			<g>
				<g>
					<g>
						<g>
							<rect x="410.412" y="102.459" style="fill:#E0E0E0;" width="6.719" height="24.847"/>
						</g>
					</g>
				</g>
			</g>
		</g>
		<g>
			<g>
				<g>
					<g>
						<g>
							
								<rect x="401.31" y="36.936" transform="matrix(1 -0.0054 0.0054 1 -0.3589 2.1778)" style="fill:#EBEBEB;" width="9.08" height="62.138"/>
						</g>
					</g>
				</g>
			</g>
		</g>
		<g>
			<g>
				<g>
					<g>
						<g>
							<g>
								
									<rect x="410.437" y="48.517" transform="matrix(1 -0.0054 0.0054 1 -0.3894 2.2411)" style="fill:#F5F5F5;" width="14.108" height="50.356"/>
							</g>
						</g>
					</g>
				</g>
			</g>
			<g>
				<g>
					<g>
						<g>
							<g>
								<path style="fill:#E0E0E0;" d="M424.315,58.18c0,0.135-3.159,0.244-7.054,0.244c-3.897,0-7.055-0.11-7.055-0.244
									c0-0.135,3.158-0.244,7.055-0.244C421.157,57.936,424.315,58.046,424.315,58.18z"/>
							</g>
						</g>
					</g>
				</g>
			</g>
			<g>
				<g>
					<g>
						<g>
							<g>
								<path style="fill:#E0E0E0;" d="M424.315,56.065c0,0.135-3.159,0.244-7.054,0.244c-3.897,0-7.055-0.109-7.055-0.244
									c0-0.135,3.158-0.244,7.055-0.244C421.157,55.821,424.315,55.93,424.315,56.065z"/>
							</g>
						</g>
					</g>
				</g>
			</g>
			<g>
				<g>
					<g>
						<g>
							<g>
								<path style="fill:#E0E0E0;" d="M424.315,91.258c0,0.135-3.159,0.244-7.054,0.244c-3.897,0-7.055-0.109-7.055-0.244
									s3.158-0.244,7.055-0.244C421.157,91.014,424.315,91.123,424.315,91.258z"/>
							</g>
						</g>
					</g>
				</g>
			</g>
			<g>
				<g>
					<g>
						<g>
							<g>
								<path style="fill:#E0E0E0;" d="M424.315,89.143c0,0.135-3.159,0.244-7.054,0.244c-3.897,0-7.055-0.109-7.055-0.244
									s3.158-0.244,7.055-0.244C421.157,88.898,424.315,89.008,424.315,89.143z"/>
							</g>
						</g>
					</g>
				</g>
			</g>
			<g>
				<g>
					<g>
						<g>
							<g>
								<path style="fill:#E0E0E0;" d="M417.488,84.527c-0.135,0-0.244-5.08-0.244-11.346c0-6.268,0.109-11.347,0.244-11.347
									c0.135,0,0.245,5.079,0.245,11.347C417.733,79.447,417.623,84.527,417.488,84.527z"/>
							</g>
						</g>
					</g>
				</g>
			</g>
		</g>
		<g>
			<g>
				<g>
					<g>
						<g>
							<rect x="424.468" y="60.845" style="fill:#EBEBEB;" width="15.357" height="38.008"/>
						</g>
					</g>
				</g>
			</g>
		</g>
		<g>
			<g>
				<g>
					<g>
						<path style="fill:#E0E0E0;" d="M408.159,47.521c0,1.441-1.168,2.61-2.61,2.61c-1.441,0-2.61-1.168-2.61-2.61
							c0-1.441,1.168-2.61,2.61-2.61C406.991,44.911,408.159,46.08,408.159,47.521z"/>
					</g>
				</g>
			</g>
		</g>
		<g>
			<g>
				<g>
					<g>
						<rect x="404.743" y="54.699" style="fill:#E0E0E0;" width="1.613" height="36.965"/>
					</g>
				</g>
			</g>
		</g>
	</g>
	<g>
		<g>
			<g>
				<g>
					<polygon style="fill:#EBEBEB;" points="111.548,278.352 100.046,324.687 104.705,324.687 116.644,278.352 					"/>
				</g>
			</g>
			<g>
				<g>
					<polygon style="fill:#EBEBEB;" points="144.887,278.352 156.389,324.687 151.73,324.687 139.791,278.352 					"/>
				</g>
			</g>
			<g>
				<g>
					<rect x="124.948" y="265.753" style="fill:#EBEBEB;" width="5.423" height="58.934"/>
				</g>
			</g>
		</g>
		<g>
			<g>
				<rect x="89.265" y="218.488" style="fill:#E0E0E0;" width="76.53" height="49.031"/>
			</g>
		</g>
		<g>
			<g>
				<rect x="108.345" y="277.6" style="fill:#EBEBEB;" width="38.412" height="4.735"/>
			</g>
		</g>
		<g>
			<g>
				<g>
					<path style="fill:#F5F5F5;" d="M94.35,261.122c0.018,0,0.036,0.282,0.052,0.897h-0.105c-0.079-2.398-0.136-10.342-0.136-19.757
						c0.021-5.682,0.041-10.822,0.055-14.606c0.025-1.83,0.045-3.33,0.06-4.426c0.014-0.489,0.026-0.887,0.035-1.204
						c0.012-0.275,0.025-0.419,0.038-0.419s0.026,0.144,0.038,0.419c0.009,0.317,0.021,0.715,0.035,1.204
						c0.015,1.097,0.035,2.596,0.06,4.426c0.014,3.784,0.034,8.925,0.055,14.606c0,9.414-0.057,17.359-0.136,19.757h-0.105
						C94.315,261.404,94.332,261.122,94.35,261.122z"/>
				</g>
			</g>
		</g>
		<g>
			<g>
				<g>
					<path style="fill:#F5F5F5;" d="M100.046,261.122c0.018,0,0.036,0.282,0.052,0.897h-0.105
						c-0.079-2.398-0.136-10.342-0.136-19.757c0.021-5.682,0.041-10.822,0.055-14.606c0.025-1.83,0.045-3.33,0.06-4.426
						c0.014-0.489,0.026-0.887,0.035-1.204c0.012-0.275,0.025-0.419,0.038-0.419c0.013,0,0.026,0.144,0.038,0.419
						c0.009,0.317,0.021,0.715,0.035,1.204c0.015,1.097,0.035,2.596,0.06,4.426c0.014,3.784,0.034,8.925,0.055,14.606
						c0,9.414-0.057,17.359-0.136,19.757h-0.105C100.011,261.404,100.028,261.122,100.046,261.122z"/>
				</g>
			</g>
		</g>
		<g>
			<g>
				<g>
					<path style="fill:#F5F5F5;" d="M105.742,261.122c0.018,0,0.036,0.282,0.052,0.897h-0.105
						c-0.079-2.398-0.136-10.342-0.136-19.757c0.021-5.682,0.041-10.822,0.055-14.606c0.025-1.83,0.045-3.33,0.06-4.426
						c0.014-0.489,0.026-0.887,0.035-1.204c0.012-0.275,0.025-0.419,0.038-0.419s0.026,0.144,0.038,0.419
						c0.009,0.317,0.021,0.715,0.035,1.204c0.015,1.097,0.035,2.596,0.06,4.426c0.014,3.784,0.034,8.925,0.055,14.606
						c0,9.414-0.058,17.359-0.136,19.757h-0.105C105.706,261.404,105.724,261.122,105.742,261.122z"/>
				</g>
			</g>
		</g>
		<g>
			<g>
				<g>
					<path style="fill:#F5F5F5;" d="M111.438,261.122c0.018,0,0.036,0.282,0.052,0.897h-0.105
						c-0.079-2.398-0.136-10.342-0.136-19.757c0.022-5.682,0.041-10.822,0.055-14.606c0.025-1.83,0.045-3.33,0.06-4.426
						c0.014-0.489,0.026-0.887,0.035-1.204c0.012-0.275,0.025-0.419,0.038-0.419s0.026,0.144,0.038,0.419
						c0.009,0.317,0.021,0.715,0.035,1.204c0.015,1.097,0.035,2.596,0.06,4.426c0.014,3.784,0.034,8.925,0.055,14.606
						c0,9.414-0.058,17.359-0.136,19.757h-0.105C111.402,261.404,111.42,261.122,111.438,261.122z"/>
				</g>
			</g>
		</g>
		<g>
			<g>
				<g>
					<path style="fill:#F5F5F5;" d="M117.134,261.122c0.018,0,0.036,0.282,0.052,0.897h-0.105
						c-0.079-2.398-0.136-10.342-0.136-19.757c0.021-5.682,0.041-10.822,0.055-14.606c0.025-1.83,0.045-3.33,0.06-4.426
						c0.014-0.489,0.026-0.887,0.035-1.204c0.012-0.275,0.025-0.419,0.038-0.419c0.013,0,0.026,0.144,0.038,0.419
						c0.009,0.317,0.021,0.715,0.035,1.204c0.015,1.097,0.035,2.596,0.06,4.426c0.014,3.784,0.034,8.925,0.055,14.606
						c0,9.414-0.058,17.359-0.136,19.757h-0.105C117.098,261.404,117.116,261.122,117.134,261.122z"/>
				</g>
			</g>
		</g>
		<g>
			<g>
				<g>
					<path style="fill:#F5F5F5;" d="M122.83,261.122c0.018,0,0.036,0.282,0.052,0.897h-0.105
						c-0.079-2.398-0.136-10.342-0.136-19.757c0.021-5.682,0.041-10.822,0.055-14.606c0.025-1.83,0.045-3.33,0.06-4.426
						c0.014-0.489,0.026-0.887,0.035-1.204c0.012-0.275,0.025-0.419,0.038-0.419c0.013,0,0.026,0.144,0.038,0.419
						c0.009,0.317,0.021,0.715,0.035,1.204c0.015,1.097,0.035,2.596,0.06,4.426c0.014,3.784,0.034,8.925,0.055,14.606
						c0,9.414-0.057,17.359-0.136,19.757h-0.105C122.794,261.404,122.812,261.122,122.83,261.122z"/>
				</g>
			</g>
		</g>
		<g>
			<g>
				<g>
					<path style="fill:#F5F5F5;" d="M128.526,261.122c0.018,0,0.036,0.282,0.052,0.897h-0.105
						c-0.079-2.398-0.136-10.342-0.136-19.757c0.021-5.682,0.041-10.822,0.055-14.606c0.025-1.83,0.045-3.33,0.06-4.426
						c0.014-0.489,0.026-0.887,0.035-1.204c0.012-0.275,0.025-0.419,0.038-0.419c0.013,0,0.026,0.144,0.038,0.419
						c0.009,0.317,0.021,0.715,0.035,1.204c0.015,1.097,0.035,2.596,0.06,4.426c0.014,3.784,0.034,8.925,0.055,14.606
						c0,9.414-0.057,17.359-0.136,19.757h-0.105C128.49,261.404,128.507,261.122,128.526,261.122z"/>
				</g>
			</g>
		</g>
		<g>
			<g>
				<g>
					<path style="fill:#F5F5F5;" d="M134.222,261.122c0.018,0,0.036,0.282,0.052,0.897h-0.105
						c-0.079-2.398-0.136-10.342-0.136-19.757c0.021-5.682,0.041-10.822,0.055-14.606c0.025-1.83,0.045-3.33,0.06-4.426
						c0.014-0.489,0.026-0.887,0.035-1.204c0.012-0.275,0.025-0.419,0.038-0.419c0.013,0,0.026,0.144,0.038,0.419
						c0.009,0.317,0.021,0.715,0.035,1.204c0.015,1.097,0.035,2.596,0.06,4.426c0.014,3.784,0.034,8.925,0.055,14.606
						c0,9.414-0.058,17.359-0.136,19.757h-0.105C134.186,261.404,134.203,261.122,134.222,261.122z"/>
				</g>
			</g>
		</g>
		<g>
			<g>
				<g>
					<path style="fill:#F5F5F5;" d="M139.917,261.122c0.018,0,0.036,0.282,0.052,0.897h-0.105
						c-0.079-2.398-0.136-10.342-0.136-19.757c0.021-5.682,0.041-10.822,0.055-14.606c0.025-1.83,0.045-3.33,0.06-4.426
						c0.014-0.489,0.026-0.887,0.035-1.204c0.012-0.275,0.025-0.419,0.038-0.419c0.013,0,0.026,0.144,0.038,0.419
						c0.009,0.317,0.021,0.715,0.035,1.204c0.015,1.097,0.035,2.596,0.06,4.426c0.014,3.784,0.034,8.925,0.055,14.606
						c0,9.414-0.058,17.359-0.136,19.757h-0.105C139.882,261.404,139.899,261.122,139.917,261.122z"/>
				</g>
			</g>
		</g>
		<g>
			<g>
				<g>
					<path style="fill:#F5F5F5;" d="M145.613,261.122c0.018,0,0.036,0.282,0.052,0.897h-0.105
						c-0.079-2.398-0.136-10.342-0.136-19.757c0.022-5.682,0.041-10.822,0.055-14.606c0.025-1.83,0.045-3.33,0.06-4.426
						c0.014-0.489,0.026-0.887,0.035-1.204c0.012-0.275,0.025-0.419,0.038-0.419c0.013,0,0.026,0.144,0.038,0.419
						c0.009,0.317,0.021,0.715,0.035,1.204c0.015,1.097,0.035,2.596,0.06,4.426c0.014,3.784,0.034,8.925,0.055,14.606
						c0,9.414-0.058,17.359-0.136,19.757h-0.105C145.578,261.404,145.595,261.122,145.613,261.122z"/>
				</g>
			</g>
		</g>
		<g>
			<g>
				<g>
					<path style="fill:#F5F5F5;" d="M151.309,261.122c0.018,0,0.036,0.282,0.052,0.897h-0.105
						c-0.079-2.398-0.136-10.342-0.136-19.757c0.021-5.682,0.041-10.822,0.055-14.606c0.025-1.83,0.045-3.33,0.06-4.426
						c0.014-0.489,0.026-0.887,0.035-1.204c0.012-0.275,0.025-0.419,0.038-0.419c0.013,0,0.026,0.144,0.038,0.419
						c0.009,0.317,0.021,0.715,0.035,1.204c0.015,1.097,0.035,2.596,0.06,4.426c0.014,3.784,0.034,8.925,0.055,14.606
						c0,9.414-0.058,17.359-0.136,19.757h-0.105C151.273,261.404,151.291,261.122,151.309,261.122z"/>
				</g>
			</g>
		</g>
		<g>
			<g>
				<g>
					<path style="fill:#F5F5F5;" d="M157.005,261.122c0.018,0,0.036,0.282,0.052,0.897h-0.105
						c-0.079-2.398-0.136-10.342-0.136-19.757c0.021-5.682,0.041-10.822,0.055-14.606c0.025-1.83,0.045-3.33,0.06-4.426
						c0.014-0.489,0.026-0.887,0.035-1.204c0.012-0.275,0.025-0.419,0.038-0.419c0.013,0,0.026,0.144,0.038,0.419
						c0.009,0.317,0.021,0.715,0.035,1.204c0.015,1.097,0.035,2.596,0.06,4.426c0.014,3.784,0.034,8.925,0.055,14.606
						c0,9.414-0.057,17.359-0.136,19.757h-0.105C156.969,261.404,156.987,261.122,157.005,261.122z"/>
				</g>
			</g>
		</g>
		<g>
			<g>
				<g>
					<path style="fill:#F5F5F5;" d="M162.701,261.122c0.018,0,0.036,0.282,0.052,0.897h-0.105
						c-0.079-2.398-0.136-10.342-0.136-19.757c0.021-5.682,0.041-10.822,0.055-14.606c0.025-1.83,0.045-3.33,0.06-4.426
						c0.014-0.489,0.026-0.887,0.035-1.204c0.012-0.275,0.025-0.419,0.038-0.419s0.026,0.144,0.038,0.419
						c0.009,0.317,0.021,0.715,0.035,1.204c0.015,1.097,0.035,2.596,0.06,4.426c0.014,3.784,0.034,8.925,0.055,14.606
						c0,9.414-0.057,17.359-0.136,19.757h-0.105C162.665,261.404,162.683,261.122,162.701,261.122z"/>
				</g>
			</g>
		</g>
	</g>
	<g>
		<g>
			<g>
				<g>
					<g>
						<g>
							<g>
								<g>
									<rect x="58.044" y="318.964" style="fill:#F5F5F5;" width="199.496" height="92.005"/>
								</g>
							</g>
						</g>
					</g>
				</g>
				<g>
					<g>
						<g>
							<g>
								<g>
									<path style="fill:#E0E0E0;" d="M252.792,406.633H62.61v-82.828h190.181V406.633z M63.851,405.392h187.7v-80.346h-187.7
										V405.392z"/>
								</g>
							</g>
						</g>
					</g>
				</g>
				<g>
					<g>
						<g>
							<g>
								<g>
									<rect x="257.54" y="318.964" style="fill:#E0E0E0;" width="48.736" height="92.005"/>
								</g>
							</g>
						</g>
					</g>
				</g>
				<g>
					<g>
						<g>
							<g>
								<g>
									<g>
										<path style="fill:#E0E0E0;" d="M63.231,349.438c21.372,0,42.744,0,64.116,0c33.767,0,67.533,0,101.3,0
											c7.841,0,15.683,0,23.525,0c0.322,0,0.323-0.501,0-0.501c-21.372,0-42.743,0-64.115,0c-33.767,0-67.533,0-101.3,0
											c-7.842,0-15.683,0-23.525,0C62.909,348.938,62.908,349.438,63.231,349.438L63.231,349.438z"/>
									</g>
								</g>
							</g>
						</g>
					</g>
				</g>
				<g>
					<g>
						<g>
							<g>
								<g>
									<g>
										<path style="fill:#E0E0E0;" d="M158.318,349.188c0.566-8.167,0.505-16.817,0.064-24.992c-0.018-0.327-0.491-0.328-0.509,0
											c-0.441,8.175-0.502,16.824,0.065,24.992C157.956,349.432,158.301,349.432,158.318,349.188L158.318,349.188z"/>
									</g>
								</g>
							</g>
						</g>
					</g>
				</g>
				<g>
					<g>
						<g>
							<g>
								<g>
									<path style="fill:#E0E0E0;" d="M209.175,336.692c0,1.422-1.152,2.574-2.574,2.574c-1.422,0-2.574-1.153-2.574-2.574
										c0-1.421,1.152-2.574,2.574-2.574C208.022,334.118,209.175,335.271,209.175,336.692z"/>
								</g>
							</g>
						</g>
					</g>
				</g>
				<g>
					<g>
						<g>
							<g>
								<g>
									<path style="fill:#E0E0E0;" d="M110.018,336.692c0,1.422-1.152,2.574-2.574,2.574c-1.422,0-2.574-1.153-2.574-2.574
										c0-1.421,1.152-2.574,2.574-2.574C108.866,334.118,110.018,335.271,110.018,336.692z"/>
								</g>
							</g>
						</g>
					</g>
				</g>
				<g>
					<g>
						<g>
							<g>
								<g>
									<path style="fill:#E0E0E0;" d="M160.275,365.219c0,1.422-1.152,2.574-2.574,2.574c-1.422,0-2.574-1.152-2.574-2.574
										s1.152-2.574,2.574-2.574C159.123,362.645,160.275,363.797,160.275,365.219z"/>
								</g>
							</g>
						</g>
					</g>
				</g>
				<g>
					<g>
						<g>
							<g>
								<g>
									<polygon style="fill:#E0E0E0;" points="81.896,410.969 72.273,466.533 78.051,466.533 96.339,410.969 									"/>
								</g>
							</g>
						</g>
					</g>
				</g>
				<g>
					<g>
						<g>
							<g>
								<g>
									<polygon style="fill:#E0E0E0;" points="243.426,410.969 252.015,466.533 246.238,466.533 228.982,410.969 									"/>
								</g>
							</g>
						</g>
					</g>
				</g>
				<g>
					<g>
						<g>
							<g>
								<g>
									<polygon style="fill:#E0E0E0;" points="281.992,410.969 292.206,466.533 286.428,466.533 267.548,410.969 									"/>
								</g>
							</g>
						</g>
					</g>
				</g>
				<g>
					<g>
						<g>
							<g>
								<g>
									<path style="fill:#E0E0E0;" d="M160.102,391.258c0,1.421-1.152,2.574-2.574,2.574c-1.422,0-2.574-1.152-2.574-2.574
										c0-1.422,1.152-2.574,2.574-2.574C158.95,388.684,160.102,389.836,160.102,391.258z"/>
								</g>
							</g>
						</g>
					</g>
				</g>
				<g>
					<g>
						<g>
							<g>
								<g>
									<g>
										<path style="fill:#E0E0E0;" d="M63.231,377.929c21.372,0,42.744,0,64.116,0c33.767,0,67.533,0,101.3,0
											c7.841,0,15.683,0,23.525,0c0.322,0,0.323-0.501,0-0.501c-21.372,0-42.743,0-64.115,0c-33.767,0-67.533,0-101.3,0
											c-7.842,0-15.683,0-23.525,0C62.909,377.428,62.908,377.929,63.231,377.929L63.231,377.929z"/>
									</g>
								</g>
							</g>
						</g>
					</g>
				</g>
			</g>
		</g>
	</g>
	<g>
		<g>
			<rect x="418.231" y="175.663" style="fill:#F5F5F5;" width="48.653" height="12.871"/>
		</g>
		<g>
			<g>
				<path style="fill:#E0E0E0;" d="M446.311,202.091c-0.005-0.005-0.01-0.084-0.015-0.234c-0.004-0.172-0.009-0.389-0.016-0.66
					c-0.009-0.606-0.021-1.45-0.036-2.533c-0.02-2.222-0.048-5.416-0.083-9.444l0.151,0.151c-11.109,0.022-28.776,0.057-48.65,0.097
					c0.11-0.11-0.25,0.247,0.245-0.248v0.003v0.007v0.013v0.026v0.052v0.104v0.207l0,0.414v0.825c0,0.549,0,1.096,0,1.642
					c0,1.091-0.001,2.174-0.001,3.248c-0.001,2.148-0.003,4.261-0.004,6.331l-0.242-0.242c13.854,0.044,25.977,0.083,34.671,0.11
					c4.331,0.029,7.806,0.053,10.234,0.069c1.181,0.014,2.105,0.024,2.767,0.032c0.298,0.007,0.536,0.012,0.724,0.016
					C446.219,202.08,446.305,202.085,446.311,202.091c0.005,0.005-0.071,0.01-0.225,0.016c-0.18,0.004-0.408,0.009-0.694,0.015
					c-0.649,0.008-1.556,0.018-2.715,0.032c-2.414,0.016-5.871,0.04-10.178,0.069c-8.737,0.028-20.919,0.066-34.84,0.11
					l-0.242,0.001l0-0.243c-0.001-2.07-0.003-4.183-0.004-6.331c0-1.074-0.001-2.157-0.001-3.248c0-0.545,0-1.093,0-1.642l0-0.825
					v-0.414v-0.207v-0.104v-0.052v-0.026v-0.013v-0.007v-0.003c0.496-0.496,0.139-0.137,0.251-0.248
					c19.874,0.04,37.541,0.075,48.65,0.097l0.152,0l-0.001,0.151c-0.036,4.066-0.064,7.29-0.083,9.534
					c-0.016,1.068-0.028,1.902-0.037,2.499c-0.006,0.26-0.012,0.468-0.016,0.634C446.321,202.027,446.316,202.096,446.311,202.091z"
					/>
			</g>
		</g>
		<g>
			<g>
				<path style="fill:#E0E0E0;" d="M370.205,314.932c-0.005-0.005-0.01-0.084-0.015-0.234c-0.004-0.172-0.009-0.389-0.016-0.66
					c-0.009-0.606-0.021-1.45-0.036-2.533c-0.02-2.222-0.048-5.416-0.083-9.444l0.151,0.151c-11.109,0.022-28.776,0.057-48.65,0.097
					c0.11-0.11-0.25,0.247,0.245-0.247v0.003v0.007v0.013v0.026v0.052v0.104v0.207l0,0.414v0.825c0,0.549,0,1.096,0,1.642
					c0,1.091-0.001,2.174-0.001,3.248c-0.001,2.148-0.003,4.261-0.004,6.331l-0.242-0.242c13.854,0.044,25.977,0.083,34.671,0.11
					c4.331,0.029,7.806,0.053,10.234,0.069c1.181,0.014,2.105,0.024,2.767,0.032c0.298,0.007,0.536,0.012,0.724,0.016
					C370.113,314.921,370.2,314.926,370.205,314.932c0.005,0.005-0.071,0.01-0.225,0.016c-0.18,0.004-0.408,0.009-0.694,0.016
					c-0.649,0.008-1.557,0.018-2.715,0.032c-2.414,0.016-5.871,0.04-10.178,0.069c-8.737,0.028-20.919,0.066-34.84,0.11
					l-0.242,0.001l0-0.243c-0.001-2.07-0.003-4.183-0.004-6.331c0-1.074-0.001-2.157-0.001-3.248c0-0.545,0-1.093,0-1.642l0-0.825
					v-0.414v-0.207v-0.104v-0.052v-0.026v-0.013v-0.007v-0.003c0.496-0.496,0.139-0.138,0.251-0.248
					c19.874,0.04,37.541,0.075,48.65,0.097l0.152,0l-0.001,0.151c-0.036,4.066-0.064,7.29-0.083,9.534
					c-0.016,1.068-0.028,1.902-0.037,2.499c-0.006,0.26-0.012,0.468-0.016,0.634C370.215,314.868,370.21,314.937,370.205,314.932z"
					/>
			</g>
		</g>
	</g>
	<g>
		<g>
			<rect x="53.719" y="180.807" style="fill:#F5F5F5;" width="48.653" height="12.871"/>
		</g>
		<g>
			<g>
				<path style="fill:#E0E0E0;" d="M81.799,207.235c-0.005-0.005-0.01-0.084-0.015-0.234c-0.004-0.172-0.009-0.389-0.016-0.66
					c-0.009-0.606-0.021-1.45-0.037-2.533c-0.02-2.222-0.048-5.416-0.083-9.444l0.151,0.151c-11.109,0.022-28.776,0.058-48.65,0.097
					c0.11-0.11-0.25,0.247,0.245-0.247v0.003v0.007v0.013v0.026v0.052v0.104v0.207v0.414v0.825c0,0.549,0,1.096,0,1.642
					c0,1.091-0.001,2.174-0.001,3.248c-0.001,2.148-0.003,4.261-0.004,6.331l-0.242-0.242c13.854,0.044,25.977,0.082,34.671,0.11
					c4.331,0.029,7.806,0.053,10.234,0.069c1.181,0.014,2.105,0.024,2.767,0.032c0.298,0.007,0.536,0.012,0.724,0.016
					C81.707,207.225,81.794,207.23,81.799,207.235c0.005,0.005-0.071,0.01-0.225,0.016c-0.18,0.004-0.408,0.009-0.694,0.016
					c-0.649,0.008-1.556,0.018-2.715,0.032c-2.414,0.016-5.871,0.04-10.178,0.069c-8.737,0.028-20.919,0.066-34.84,0.11
					l-0.242,0.001l0-0.243c-0.001-2.07-0.003-4.183-0.004-6.331c0-1.074-0.001-2.157-0.001-3.248c0-0.545,0-1.093,0-1.642l0-0.825
					v-0.414v-0.207v-0.104v-0.052v-0.026v-0.013v-0.007v-0.003c0.496-0.496,0.139-0.137,0.251-0.248
					c19.874,0.04,37.541,0.075,48.65,0.097l0.152,0l-0.001,0.151c-0.036,4.066-0.064,7.29-0.083,9.533
					c-0.016,1.068-0.028,1.902-0.037,2.499c-0.006,0.26-0.012,0.468-0.016,0.634C81.809,207.171,81.804,207.24,81.799,207.235z"/>
			</g>
		</g>
	</g>
	<g>
		<g>
			<g>
				<path style="fill:#E0E0E0;" d="M265.399,50.453c-0.005-0.005-0.01-0.084-0.015-0.234c-0.004-0.172-0.009-0.389-0.016-0.66
					c-0.009-0.606-0.021-1.45-0.037-2.533c-0.02-2.222-0.048-5.416-0.083-9.444l0.151,0.151c-11.109,0.022-28.776,0.057-48.65,0.097
					c0.11-0.11-0.25,0.247,0.245-0.248v0.003v0.007v0.013v0.026v0.052v0.104l0,0.207v0.414v0.825c0,0.549,0,1.097,0,1.642
					c0,1.091-0.001,2.174-0.001,3.248c-0.001,2.148-0.003,4.261-0.004,6.331l-0.242-0.242c13.854,0.044,25.977,0.083,34.671,0.11
					c4.331,0.029,7.806,0.053,10.234,0.069c1.181,0.014,2.105,0.024,2.767,0.032c0.298,0.006,0.536,0.012,0.724,0.016
					C265.307,50.442,265.394,50.447,265.399,50.453c0.005,0.005-0.071,0.011-0.225,0.016c-0.18,0.004-0.408,0.009-0.694,0.016
					c-0.649,0.008-1.556,0.018-2.715,0.032c-2.414,0.016-5.871,0.04-10.178,0.069c-8.737,0.028-20.919,0.066-34.84,0.11
					l-0.242,0.001l0-0.243c-0.001-2.07-0.003-4.183-0.004-6.331c0-1.074-0.001-2.157-0.001-3.248c0-0.545,0-1.093,0-1.642l0-0.825
					v-0.414v-0.207v-0.104v-0.052v-0.026v-0.013v-0.007v-0.003c0.496-0.496,0.139-0.138,0.251-0.248
					c19.874,0.04,37.541,0.075,48.65,0.097l0.152,0l-0.001,0.151c-0.036,4.066-0.064,7.291-0.083,9.534
					c-0.016,1.068-0.028,1.902-0.037,2.499c-0.007,0.26-0.012,0.468-0.016,0.634C265.409,50.389,265.404,50.458,265.399,50.453z"/>
			</g>
		</g>
		<g>
			<g>
				<path style="fill:#E0E0E0;" d="M271.996,37.582c-0.006-0.006-0.012-0.089-0.019-0.245c-0.005-0.185-0.012-0.409-0.019-0.682
					c-0.011-0.633-0.026-1.494-0.044-2.581c-0.023-2.257-0.056-5.444-0.096-9.363l0.178,0.178c-7.573,0.018-17.875,0.043-29.23,0.07
					c-0.223,0.221,0.299-0.302,0.246-0.247v0.003v0.007v0.013v0.027v0.053v0.106l0,0.212v0.422l0,0.841c0,0.559,0,1.116-0.001,1.669
					c-0.001,1.106-0.001,2.199-0.002,3.276c-0.003,2.153-0.006,4.241-0.009,6.241l-0.236-0.236
					c8.439,0.045,15.704,0.084,20.911,0.112c2.568,0.028,4.626,0.049,6.091,0.065c0.684,0.012,1.229,0.022,1.643,0.03
					C271.785,37.562,271.986,37.572,271.996,37.582c0.01,0.01-0.172,0.019-0.531,0.029c-0.401,0.007-0.93,0.017-1.594,0.03
					c-1.452,0.016-3.492,0.038-6.037,0.065c-5.247,0.028-12.567,0.067-21.07,0.112l-0.236,0.001l0-0.237
					c-0.003-2-0.006-4.088-0.009-6.241c-0.001-1.077-0.001-2.17-0.002-3.276c0-0.553,0-1.11-0.001-1.669l0-0.841v-0.422V24.92
					v-0.106v-0.053v-0.027v-0.013v-0.007v-0.003c-0.054,0.052,0.47-0.471,0.25-0.249c11.355,0.027,21.657,0.052,29.23,0.07l0.18,0
					l-0.002,0.178c-0.04,3.965-0.073,7.189-0.096,9.472c-0.019,1.07-0.034,1.917-0.044,2.541
					C272.02,37.299,272.008,37.594,271.996,37.582z"/>
			</g>
		</g>
	</g>
</g>
<g id="Background_Simple" style="display:none;">
	<path style="display:inline;fill:#F5F5F5;" d="M434.114,111.643l-2.434-4.01c-20.516-33.808-57.609-54.188-96.717-51.715
		c-5.027,0.318-10.033,0.998-14.971,2.056c-35.557,7.611-66.496,34.5-79.321,68.937c-7.542,20.253-9.649,43.571-23.962,59.647
		c-18.627,20.922-50.251,21.579-78.055,20.712c-27.804-0.867-59.449-0.128-77.985,20.877C49.06,241.3,45.37,260.007,46.306,277.624
		c2.478,46.641,34.979,88.345,76.311,109.074c41.332,20.729,89.996,22.586,135.232,13.467
		c63.37-12.774,123.634-47.855,159.857-102.038C453.929,243.943,463.096,170.124,434.114,111.643z"/>
</g>
<g id="Floor">
	<g>
		<path style="fill:#263238;" d="M450.923,466.533c0,0.144-89.963,0.26-200.913,0.26c-110.988,0-200.932-0.116-200.932-0.26
			c0-0.144,89.944-0.26,200.932-0.26C360.959,466.272,450.923,466.389,450.923,466.533z"/>
	</g>
</g>
<g id="Speech_Bubble">
	<g>
		<g>
			<g>
				<g>
					<g>
						<g>
							<path style="fill:#FFFFFF;" d="M201.036,111.699l-3.956-8.059c1.778-4.845,2.282-10.225,1.179-15.654
								c-3.171-15.611-18.396-25.696-34.007-22.525c-15.611,3.171-25.696,18.396-22.526,34.007
								c3.171,15.611,18.396,25.696,34.008,22.525c6.518-1.324,12.068-4.754,16.096-9.433l-0.007,0.015L201.036,111.699z"/>
						</g>
						<g>
							<g>
								<path style="fill:#263238;" d="M201.036,111.699c0,0-0.185,0.028-0.573,0.071c-0.41,0.044-0.99,0.107-1.745,0.189
									c-1.58,0.165-3.888,0.405-6.885,0.717c-0.055,0.006-0.104-0.034-0.11-0.089c-0.002-0.019,0.002-0.039,0.01-0.055
									l0.007-0.015l0.167,0.11c-2.409,2.817-6.181,6.123-11.595,8.202c-1.345,0.521-2.787,0.952-4.307,1.276
									c-1.532,0.249-3.117,0.567-4.781,0.587c-3.311,0.154-6.871-0.257-10.391-1.427c-3.517-1.163-6.986-3.082-10.023-5.754
									c-3.038-2.663-5.636-6.084-7.399-10.045c-1.788-3.95-2.628-8.459-2.437-13.02c0.199-4.559,1.457-9.209,3.899-13.302
									l0.923-1.535l1.055-1.438l0.526-0.716l0.587-0.664l1.176-1.318c0.406-0.423,0.854-0.804,1.278-1.206
									c0.437-0.388,0.837-0.817,1.316-1.148c0.932-0.694,1.82-1.441,2.828-2.002c3.898-2.44,8.269-3.881,12.602-4.32
									c4.342-0.41,8.62,0.184,12.446,1.543c3.832,1.354,7.212,3.459,9.952,5.971c2.748,2.512,4.854,5.425,6.34,8.399
									c0.782,1.474,1.297,3.007,1.812,4.476c0.374,1.511,0.801,2.956,0.976,4.392c0.818,5.746-0.224,10.647-1.515,14.099
									l-0.004-0.078c1.263,2.633,2.237,4.663,2.904,6.054c0.316,0.665,0.559,1.176,0.731,1.538
									C200.965,111.531,201.036,111.699,201.036,111.699s-0.102-0.185-0.28-0.533c-0.184-0.363-0.444-0.876-0.783-1.544
									c-0.685-1.364-1.686-3.355-2.983-5.938c-0.012-0.025-0.013-0.054-0.004-0.078c1.246-3.442,2.238-8.306,1.396-13.986
									c-0.181-1.42-0.612-2.847-0.988-4.339c-0.517-1.449-1.032-2.962-1.811-4.414c-1.481-2.931-3.57-5.798-6.289-8.267
									c-2.711-2.469-6.048-4.534-9.828-5.86c-3.772-1.33-7.986-1.906-12.259-1.497c-4.266,0.439-8.567,1.862-12.399,4.266
									c-0.991,0.552-1.863,1.289-2.781,1.971c-0.472,0.326-0.865,0.749-1.295,1.131c-0.416,0.396-0.858,0.77-1.257,1.187
									l-1.157,1.297l-0.578,0.653l-0.517,0.705l-1.038,1.415l-0.908,1.511c-2.403,4.027-3.642,8.601-3.841,13.086
									c-0.191,4.487,0.629,8.928,2.384,12.818c1.73,3.902,4.282,7.275,7.269,9.906c2.987,2.639,6.401,4.541,9.866,5.699
									c3.468,1.165,6.98,1.584,10.25,1.446c1.644-0.012,3.211-0.32,4.727-0.558c1.504-0.313,2.932-0.731,4.266-1.239
									c5.367-2.025,9.13-5.271,11.553-8.043c0.036-0.042,0.099-0.047,0.142-0.011c0.035,0.03,0.044,0.081,0.025,0.121
									l-0.007,0.014l-0.1-0.144c2.972-0.256,5.261-0.453,6.828-0.588c0.769-0.063,1.359-0.112,1.777-0.147
									C200.82,111.709,201.036,111.699,201.036,111.699z"/>
							</g>
						</g>
					</g>
				</g>
			</g>
		</g>
		<g>
			<g>
				<g>
					<g>
						<g>
							<g>
								<polygon style="fill:#FF725E;" points="156.651,95.616 160.384,91.883 167.583,98.282 181.716,84.683 185.182,88.416 
									167.05,105.482 								"/>
							</g>
						</g>
					</g>
				</g>
			</g>
		</g>
	</g>
</g>
<g id="Character">
	<g>
		<g>
			<g>
				<g>
					<g>
						<g>
							<g>
								<g>
									<g>
										<g>
											<path style="fill:#455A64;" d="M183.357,429.333l-17.382,16.476c0,0,17.167,19.586,14.953,23.643l-41.831-24.143
												l25.896-29.102L183.357,429.333z"/>
										</g>
									</g>
								</g>
							</g>
						</g>
					</g>
				</g>
				<g style="opacity:0.6;">
					<g>
						<g>
							<g>
								<g>
									<g>
										<g>
											<g>
												<path style="fill:#FFFFFF;" d="M154.444,436.093c-0.927-0.281-2.033,0.265-2.352,1.18
													c-0.318,0.915,0.227,2.045,1.15,2.342c0.922,0.297,2.27-0.318,2.484-1.263c0.214-0.945-0.499-2.236-1.465-2.303"/>
											</g>
										</g>
									</g>
								</g>
							</g>
						</g>
					</g>
				</g>
				<g style="opacity:0.6;">
					<g>
						<g>
							<g>
								<g>
									<g>
										<g>
											<path style="fill:#FFFFFF;" d="M139.096,445.309l2.639-2.965l39.005,24.362c0,0,0.999,1.363,0.223,3.173L139.096,445.309
												z"/>
										</g>
									</g>
								</g>
							</g>
						</g>
					</g>
				</g>
				<g>
					<g>
						<g>
							<g>
								<g>
									<g>
										<g>
											<g>
												<path style="fill:#263238;" d="M166.769,446.018c-0.132,0.195-1.188-0.341-2.573-0.316
													c-1.387-0.012-2.436,0.535-2.57,0.341c-0.16-0.155,0.888-1.161,2.566-1.162
													C165.87,444.865,166.927,445.862,166.769,446.018z"/>
											</g>
										</g>
									</g>
								</g>
							</g>
						</g>
					</g>
				</g>
				<g>
					<g>
						<g>
							<g>
								<g>
									<g>
										<g>
											<g>
												<path style="fill:#263238;" d="M169.943,450.486c-0.076,0.222-1.154,0.018-2.363,0.437
													c-1.221,0.383-1.966,1.189-2.159,1.055c-0.207-0.087,0.389-1.343,1.902-1.835
													C168.831,449.639,170.058,450.293,169.943,450.486z"/>
											</g>
										</g>
									</g>
								</g>
							</g>
						</g>
					</g>
				</g>
				<g>
					<g>
						<g>
							<g>
								<g>
									<g>
										<g>
											<g>
												<path style="fill:#263238;" d="M169.154,457.15c-0.208-0.071,0.141-1.244,1.341-2.015
													c1.194-0.78,2.407-0.62,2.387-0.401c0.01,0.235-0.965,0.441-1.94,1.089C169.951,456.449,169.365,457.254,169.154,457.15
													z"/>
											</g>
										</g>
									</g>
								</g>
							</g>
						</g>
					</g>
				</g>
				<g>
					<g>
						<g>
							<g>
								<g>
									<g>
										<g>
											<g>
												<path style="fill:#263238;" d="M169.436,440.972c-0.198,0.13-0.941-0.721-2.118-1.354
													c-1.164-0.656-2.28-0.829-2.276-1.066c-0.025-0.217,1.297-0.417,2.672,0.347
													C169.095,439.652,169.633,440.877,169.436,440.972z"/>
											</g>
										</g>
									</g>
								</g>
							</g>
						</g>
					</g>
				</g>
			</g>
			<g>
				<g>
					<g>
						<g>
							<g>
								<g>
									<g>
										<g>
											<path style="fill:#263238;" d="M172.182,436.767c-0.049,0.084-0.916-0.289-2.041-1.297
												c-0.559-0.503-1.17-1.173-1.729-2.005c-0.279-0.416-0.545-0.871-0.784-1.363c-0.113-0.24-0.259-0.502-0.316-0.87
												c-0.09-0.347,0.117-0.956,0.576-1.12c0.407-0.182,0.863-0.085,1.162,0.093c0.308,0.179,0.514,0.394,0.702,0.589
												c0.386,0.396,0.718,0.816,0.999,1.237c0.558,0.846,0.91,1.695,1.11,2.426c0.397,1.475,0.252,2.424,0.16,2.42
												c-0.132,0.009-0.201-0.906-0.711-2.238c-0.255-0.663-0.635-1.423-1.18-2.177c-0.274-0.375-0.589-0.748-0.948-1.101
												c-0.362-0.386-0.728-0.621-0.96-0.498c-0.086,0.048-0.11,0.074-0.099,0.258c0.02,0.176,0.124,0.4,0.234,0.637
												c0.213,0.463,0.449,0.897,0.693,1.298c0.491,0.802,1.021,1.472,1.503,2.003
												C171.517,436.121,172.253,436.661,172.182,436.767z"/>
										</g>
									</g>
								</g>
							</g>
						</g>
					</g>
				</g>
			</g>
			<g>
				<g>
					<g>
						<g>
							<g>
								<g>
									<g>
										<g>
											<path style="fill:#263238;" d="M171.742,436.889c-0.09-0.014-0.037-0.978,0.702-2.317
												c0.369-0.663,0.924-1.398,1.688-2.067c0.384-0.332,0.819-0.645,1.303-0.916c0.493-0.253,1.125-0.611,1.956-0.213
												c0.414,0.239,0.552,0.766,0.497,1.108c-0.039,0.362-0.161,0.616-0.262,0.883c-0.225,0.525-0.528,0.988-0.865,1.38
												c-0.675,0.789-1.487,1.29-2.204,1.566c-1.465,0.558-2.448,0.273-2.423,0.195c-0.004-0.142,0.935-0.09,2.186-0.725
												c0.617-0.313,1.301-0.806,1.857-1.517c0.278-0.353,0.525-0.759,0.706-1.207c0.209-0.475,0.266-0.928,0.076-0.985
												c-0.201-0.131-0.753-0.021-1.138,0.221c-0.44,0.235-0.843,0.505-1.205,0.791c-0.72,0.578-1.277,1.215-1.681,1.794
												C172.126,436.046,171.87,436.927,171.742,436.889z"/>
										</g>
									</g>
								</g>
							</g>
						</g>
					</g>
				</g>
			</g>
		</g>
		<g>
			<g>
				<g>
					<g>
						<g>
							<g>
								<g>
									<g>
										<g>
											<path style="fill:#455A64;" d="M314.179,430.749l4.145,22.359c0,0,24.755,8.095,24.918,12.714l-47.11,0.56l-3.478-35.633
												H314.179z"/>
										</g>
									</g>
								</g>
							</g>
						</g>
					</g>
				</g>
				<g style="opacity:0.6;">
					<g>
						<g>
							<g>
								<g>
									<g>
										<g>
											<g>
												<path style="fill:#FFFFFF;" d="M300.027,452.418c-0.941,0.231-1.614,1.265-1.422,2.215
													c0.193,0.95,1.238,1.643,2.183,1.428c0.944-0.215,1.791-1.431,1.493-2.353c-0.297-0.922-1.569-1.669-2.435-1.234"/>
											</g>
										</g>
									</g>
								</g>
							</g>
						</g>
					</g>
				</g>
				<g style="opacity:0.6;">
					<g>
						<g>
							<g>
								<g>
									<g>
										<g>
											<path style="fill:#FFFFFF;" d="M296.132,466.382l-0.742-3.424l46.291,0.597c0,0,1.555,0.663,1.809,2.616L296.132,466.382
												z"/>
										</g>
									</g>
								</g>
							</g>
						</g>
					</g>
				</g>
				<g>
					<g>
						<g>
							<g>
								<g>
									<g>
										<g>
											<g>
												<path style="fill:#263238;" d="M319.113,452.882c-0.014,0.236-1.196,0.312-2.375,1.04
													c-1.199,0.697-1.823,1.703-2.037,1.604c-0.216-0.052,0.172-1.452,1.615-2.308
													C317.752,452.349,319.17,452.667,319.113,452.882z"/>
											</g>
										</g>
									</g>
								</g>
							</g>
						</g>
					</g>
				</g>
				<g>
					<g>
						<g>
							<g>
								<g>
									<g>
										<g>
											<g>
												<path style="fill:#263238;" d="M324.122,455.107c0.048,0.23-0.983,0.604-1.81,1.581
													c-0.855,0.952-1.085,2.025-1.319,2.008c-0.222,0.031-0.35-1.354,0.701-2.548
													C322.734,454.945,324.123,454.883,324.122,455.107z"/>
											</g>
										</g>
									</g>
								</g>
							</g>
						</g>
					</g>
				</g>
				<g>
					<g>
						<g>
							<g>
								<g>
									<g>
										<g>
											<g>
												<path style="fill:#263238;" d="M326.841,461.242c-0.215,0.045-0.513-1.142,0.126-2.417
													c0.63-1.28,1.755-1.76,1.849-1.561c0.128,0.197-0.605,0.871-1.114,1.927
													C327.169,460.233,327.076,461.225,326.841,461.242z"/>
											</g>
										</g>
									</g>
								</g>
							</g>
						</g>
					</g>
				</g>
				<g>
					<g>
						<g>
							<g>
								<g>
									<g>
										<g>
											<g>
												<path style="fill:#263238;" d="M317.153,447.672c-0.104,0.212-1.177-0.141-2.512-0.085
													c-1.335,0.029-2.384,0.449-2.501,0.244c-0.132-0.174,0.903-1.02,2.476-1.064
													C316.187,446.711,317.274,447.49,317.153,447.672z"/>
											</g>
										</g>
									</g>
								</g>
							</g>
						</g>
					</g>
				</g>
			</g>
		</g>
		<path style="fill:#263238;" d="M205.444,268.22c-0.782,0.528-2.561,27.36,0,33.244l-6.516,48.345c0,0-17.477,27.755-20.996,31.794
			c-3.518,4.039-26.339,43.437-26.339,43.437l25.764,22.224c0,0,44.781-58.507,51.979-68.891
			c11.294-16.292,24.625-77.366,24.625-77.366l1.736-30.315L205.444,268.22z"/>
		<g>
			<path style="fill:#263238;" d="M240.63,306.897c0.782,1.433,35.648,55.027,35.648,55.027s5.29,28.389,6.463,40.91
				c1.173,12.521,9.745,44.718,9.745,44.718l28.059-2.203c0,0-7.589-82.896-12.28-99.052s-17.742-47.374-17.742-47.374
				l-11.013-29.212l-31.708,0.594L240.63,306.897z"/>
			<g>
				<path style="fill:#455A64;" d="M260.478,278.484c0.017,0.005-0.043,0.303-0.175,0.866c-0.148,0.606-0.349,1.426-0.601,2.458
					c-0.555,2.177-1.337,5.246-2.298,9.018c-1.962,7.609-4.68,18.12-7.844,29.687c-3.168,11.57-6.249,21.985-8.599,29.486
					c-1.176,3.75-2.149,6.778-2.849,8.861c-0.341,1.007-0.613,1.806-0.813,2.397c-0.191,0.546-0.3,0.83-0.317,0.825
					c-0.017-0.005,0.058-0.3,0.217-0.857c0.177-0.598,0.417-1.407,0.72-2.426c0.649-2.15,1.565-5.181,2.69-8.907
					c2.259-7.525,5.282-17.95,8.449-29.516c3.115-11.555,5.934-22.015,7.991-29.643c1.028-3.755,1.864-6.809,2.458-8.977
					c0.292-1.022,0.524-1.833,0.696-2.433C260.366,278.769,260.46,278.48,260.478,278.484z"/>
			</g>
		</g>
		<g>
			<path style="fill:#FFCAAE;" d="M346.642,152.007c0,0,2.946-2.326,3.901-2.253c0.954,0.074,6.883,0.929,6.883,0.929
				s0.379,2.494-1.326,3.316c-1.704,0.822-4.226,0.888-4.226,0.888l-1.413,0.994L346.642,152.007z"/>
			<path style="fill:#FFCAAE;" d="M269.244,160.206l46.451,36.475l22.96-21.64l0.633-4.208c0.18-1.197,0.508-2.366,0.977-3.481
				l5.939-14.114l13.89,22.525c0,0-34.146,44.589-40.129,46.149c-7.883,2.056-47.154-24.529-47.154-24.529L269.244,160.206z"/>
			<g>
				<path style="fill:#FF9A6C;" d="M345.977,165.673c0.068-0.106,2.112,1.977,3.001,5.354c0.926,3.369,0.202,6.195,0.09,6.138
					c-0.168-0.011,0.301-2.769-0.593-6.003C347.626,167.917,345.837,165.766,345.977,165.673z"/>
			</g>
		</g>
		<g>
			<g>
				<g>
					<g>
						<g>
							<g>
								<g>
									<g>
										<g>
											<g>
												<g>
													<g>
														<g>
															<g>
																<g>
																	<g>
																		<g>
																			<g>
																				<g>
																					<g>
																						<path style="fill:#FFCAAE;" d="M239.177,94.67l-0.906,47.602c-0.319,8.126-0.749,20.157,12.122,20.075l0,0
																							c11.162-0.913,14.396-11.37,14.686-18.953c0.137-3.597,0.259-6.597,0.298-6.965
																							c0,0,12.209-0.667,13.56-12.673c0.653-5.801,1.024-17.861,1.233-28.774
																							c0.225-11.721-8.603-21.644-20.267-22.81l-1.16-0.116C246.163,71.535,239.349,82.081,239.177,94.67z"/>
																					</g>
																				</g>
																			</g>
																		</g>
																	</g>
																</g>
															</g>
														</g>
													</g>
												</g>
											</g>
										</g>
									</g>
								</g>
							</g>
						</g>
						<g>
							<g>
								<g>
									<g>
										<g>
											<g>
												<g>
													<g>
														<g>
															<g>
																<g>
																	<g>
																		<g>
																			<g>
																				<g>
																					<g>
																						<path style="fill:#FF935C;" d="M265.408,136.429c0,0-7.621-0.313-15.188-6.192c0,0,2.94,9.162,15.042,9.278
																							L265.408,136.429z"/>
																					</g>
																				</g>
																			</g>
																		</g>
																	</g>
																</g>
															</g>
														</g>
													</g>
												</g>
											</g>
										</g>
									</g>
								</g>
							</g>
						</g>
					</g>
				</g>
			</g>
			<g>
				<g>
					<g>
						<g>
							<g>
								<g>
									<g>
										<g>
											<g>
												<g>
													<g>
														<g>
															<g>
																<g>
																	<g>
																		<g>
																			<g>
																				<g>
																					<g>
																						<g>
																							<g>
																								<g>
																									<g>
																										<path style="fill:#263238;" d="M259.993,101.087c-0.268,0.063-1.438-0.882-3.375-1.441
																											c-1.93-0.573-3.542-0.441-3.706-0.631c-0.083-0.087,0.225-0.253,0.93-0.319
																											c0.695-0.068,1.818-0.005,3.023,0.347c1.205,0.353,2.134,0.889,2.63,1.306
																											C260.003,100.771,260.123,101.061,259.993,101.087z"/>
																									</g>
																								</g>
																							</g>
																						</g>
																					</g>
																				</g>
																			</g>
																		</g>
																	</g>
																</g>
															</g>
														</g>
													</g>
												</g>
											</g>
										</g>
									</g>
								</g>
								<g>
									<g>
										<g>
											<g>
												<g>
													<g>
														<g>
															<g>
																<g>
																	<g>
																		<g>
																			<g>
																				<g>
																					<g>
																						<g>
																							<g>
																								<g>
																									<path style="fill:#263238;" d="M257.618,103.46c-0.056,0.86-0.83,1.523-1.73,1.482
																										c-0.898-0.041-1.582-0.771-1.527-1.632c0.055-0.86,0.83-1.524,1.728-1.483
																										C256.989,101.868,257.673,102.599,257.618,103.46z"/>
																								</g>
																							</g>
																						</g>
																					</g>
																				</g>
																			</g>
																		</g>
																	</g>
																</g>
															</g>
														</g>
													</g>
												</g>
											</g>
										</g>
									</g>
								</g>
								<g>
									<g>
										<g>
											<g>
												<g>
													<g>
														<g>
															<g>
																<g>
																	<g>
																		<g>
																			<g>
																				<g>
																					<g>
																						<g>
																							<g>
																								<g>
																									<path style="fill:#263238;" d="M264.459,113.529c0.002-0.106,1.17-0.189,3.054-0.241
																										c0.477-0.002,0.932-0.051,1.044-0.364c0.145-0.33-0.001-0.858-0.175-1.43
																										c-0.329-1.186-0.674-2.429-1.036-3.731c-1.426-5.307-2.408-9.652-2.193-9.708
																										c0.214-0.055,1.544,4.201,2.97,9.509c0.34,1.308,0.666,2.554,0.975,3.747
																										c0.125,0.554,0.371,1.193,0.059,1.876c-0.162,0.34-0.534,0.561-0.844,0.612
																										c-0.312,0.062-0.578,0.041-0.812,0.031C265.617,113.742,264.455,113.635,264.459,113.529z"/>
																								</g>
																							</g>
																						</g>
																					</g>
																				</g>
																			</g>
																		</g>
																	</g>
																</g>
															</g>
														</g>
													</g>
												</g>
											</g>
										</g>
									</g>
								</g>
							</g>
						</g>
					</g>
					<g>
						<g>
							<g>
								<g>
									<g>
										<g>
											<g>
												<g>
													<g>
														<g>
															<g>
																<g>
																	<g>
																		<g>
																			<g>
																				<g>
																					<path style="fill:#263238;" d="M259.129,91.768c-0.207,0.442-1.812,0.062-3.747,0.11
																						c-1.936,0.007-3.535,0.431-3.748-0.005c-0.093-0.208,0.218-0.612,0.886-0.993
																						c0.662-0.381,1.69-0.703,2.851-0.72c1.16-0.015,2.192,0.279,2.859,0.641
																						C258.903,91.162,259.22,91.557,259.129,91.768z"/>
																				</g>
																			</g>
																		</g>
																	</g>
																</g>
															</g>
														</g>
													</g>
												</g>
											</g>
										</g>
									</g>
								</g>
							</g>
						</g>
					</g>
					<g>
						<g>
							<g>
								<g>
									<g>
										<g>
											<g>
												<g>
													<g>
														<g>
															<g>
																<g>
																	<g>
																		<g>
																			<g>
																				<g>
																					<path style="fill:#263238;" d="M278.176,96.016c-0.221,0.359-1.783-0.088-3.688-0.198
																						c-1.904-0.144-3.494,0.092-3.685-0.295c-0.083-0.184,0.24-0.502,0.912-0.774
																						c0.667-0.272,1.69-0.466,2.832-0.39c1.142,0.078,2.144,0.407,2.785,0.766
																						C277.978,95.484,278.274,95.844,278.176,96.016z"/>
																				</g>
																			</g>
																		</g>
																	</g>
																</g>
															</g>
														</g>
													</g>
												</g>
											</g>
										</g>
									</g>
								</g>
							</g>
						</g>
					</g>
				</g>
			</g>
			<g>
				<g>
					<g>
						<g>
							<g>
								<g>
									<g>
										<g>
											<g>
												<g>
													<g>
														<g>
															<g>
																<g>
																	<g>
																		<path style="fill:#FFCAAE;" d="M239.268,103.837c-0.209-0.109-8.5-3.21-8.861,5.456
																			c-0.361,8.666,8.414,7.241,8.439,6.993C238.872,116.037,239.268,103.837,239.268,103.837z"/>
																	</g>
																</g>
															</g>
														</g>
													</g>
												</g>
											</g>
										</g>
									</g>
								</g>
							</g>
						</g>
					</g>
				</g>
				<g>
					<g>
						<g>
							<g>
								<g>
									<g>
										<g>
											<g>
												<g>
													<g>
														<g>
															<g>
																<g>
																	<g>
																		<g>
																			<path style="fill:#FF935C;" d="M236.336,112.892c-0.037-0.029-0.156,0.099-0.415,0.206
																				c-0.254,0.103-0.685,0.164-1.13-0.024c-0.901-0.374-1.612-1.86-1.589-3.423c0.011-0.789,0.208-1.534,0.513-2.144
																				c0.291-0.623,0.719-1.049,1.184-1.111c0.463-0.087,0.778,0.202,0.874,0.451c0.106,0.247,0.044,0.418,0.089,0.435
																				c0.023,0.023,0.192-0.137,0.137-0.498c-0.028-0.174-0.122-0.382-0.318-0.557
																				c-0.201-0.178-0.503-0.277-0.826-0.255c-0.67,0.018-1.298,0.608-1.633,1.278
																				c-0.372,0.671-0.612,1.507-0.624,2.394c-0.017,1.749,0.809,3.42,2.046,3.834c0.603,0.185,1.119,0.022,1.39-0.172
																				C236.312,113.101,236.365,112.909,236.336,112.892z"/>
																		</g>
																	</g>
																</g>
															</g>
														</g>
													</g>
												</g>
											</g>
										</g>
									</g>
								</g>
							</g>
						</g>
					</g>
				</g>
			</g>
			<g>
				<g>
					<path style="fill:#263238;" d="M264.615,119.276c0.036-0.224-1.652-0.293-3.129-1.482c-0.736-0.583-1.255-1.291-1.641-1.806
						c-0.382-0.521-0.652-0.84-0.731-0.791c-0.075,0.046,0.046,0.434,0.336,1.033c0.293,0.59,0.794,1.414,1.628,2.077
						c0.826,0.673,1.777,0.959,2.443,1.042C264.195,119.44,264.612,119.35,264.615,119.276z"/>
				</g>
			</g>
			<g>
				<g>
					<g>
						<g>
							<g>
								<g>
									<g>
										<g>
											<g>
												<g>
													<path style="fill:#263238;" d="M277.797,100.13c-0.198,0.187-1.68,0.013-3.626,0.542
														c-1.947,0.513-3.264,1.435-3.502,1.364c-0.115-0.029,0.066-0.318,0.638-0.729c0.563-0.407,1.559-0.924,2.772-1.248
														c1.213-0.324,2.281-0.36,2.918-0.273C277.646,99.87,277.896,100.044,277.797,100.13z"/>
												</g>
											</g>
										</g>
									</g>
								</g>
							</g>
						</g>
					</g>
				</g>
			</g>
			<g>
				<g>
					<g>
						<g>
							<g>
								<g>
									<g>
										<g>
											<g>
												<path style="fill:#263238;" d="M275.199,104.37c-0.055,0.86-0.83,1.523-1.729,1.482
													c-0.898-0.041-1.582-0.771-1.527-1.631c0.055-0.86,0.83-1.524,1.728-1.483
													C274.57,102.779,275.255,103.51,275.199,104.37z"/>
											</g>
										</g>
									</g>
								</g>
							</g>
						</g>
					</g>
				</g>
			</g>
			<g>
				<path style="fill:#263238;" d="M296.757,84.616c-0.118-0.488-0.46-0.896-0.885-1.163c-0.927-0.581-2.015-0.537-3.063-0.581
					c-2.609-0.112-5.18-0.849-7.475-2.092c0.822-0.389,1.594-0.869,2.254-1.494c1.365-1.291,2.183-3.301,1.622-5.093
					c-0.105-0.336-0.29-0.691-0.624-0.804c-0.53-0.178-1.011,0.334-1.395,0.74c-1.261,1.336-2.409,1.893-4.231,1.66
					c-1.132-0.145-2.224-0.429-3.102-1.008c-0.035-0.038-0.065-0.08-0.1-0.118c-0.416-0.453-0.822-0.885-1.223-1.304
					c-0.001-0.002-0.002-0.003-0.003-0.004l0.001,0.003c-3.012-3.152-5.616-5.349-8.326-6.525
					c-3.972-1.724-10.67-2.559-14.886-1.573c-4.216,0.986-8.067,4.283-8.764,8.556c-2.295-2.048-5.82-2.126-8.711-1.052
					l-0.071-0.033c-3.215,1.05-5.115,4.366-6.141,7.589c-0.056,0.176-0.106,0.355-0.159,0.532c-1.122,1.678-2.625,3.101-4.398,4.071
					c-0.313,0.171-0.671,0.381-0.718,0.734c-0.047,0.35,0.242,0.649,0.524,0.862c0.749,0.567,1.629,0.95,2.549,1.14
					c-0.312,0.764-0.674,1.505-1.116,2.21c-0.376,0.599-0.823,1.317-0.526,1.959c0.23,0.496,0.847,0.715,1.39,0.65
					c0.543-0.065,1.031-0.351,1.5-0.631c-0.378,0.841-0.756,1.682-1.134,2.523c1.147,0.232,2.342,0.171,3.471-0.138
					c0.595,3.055,1.256,6.951,1.984,9.031c1.331,0.032,2.6-0.246,3.401,0.514c1.089,1.033,1.537,2.933,3.41,2.266
					c0.953-0.339,1.867-2.296,2.208-3.248c2.266-6.322,3.144-13.134,2.566-19.825c1.357-1.371,2.979-2.477,4.751-3.239l-0.146,0.124
					c3.394-1.078,7.229-2.125,10.377-0.461c2.442,1.291,3.828,3.898,5.624,5.997c3.403,3.978,7.607,6.179,12.829,6.544
					c0.374,3.644-0.138,8.239-0.051,11.632l3.278-5.38l0.002,0.027c0.244-0.391,0.448-0.786,0.645-1.183l0.067-0.12l0-0.015
					c0.314-0.637,0.613-1.275,1.005-1.902c0.011,0.01,0.021,0.02,0.032,0.03c1.792,1.669,4.564-0.735,3.169-2.748
					c-0.277-0.399-0.611-0.758-0.996-1.056c0.818,0.81,2.059,1.221,3.168,0.913c1.109-0.309,1.993-1.399,1.928-2.549
					c-0.045-0.785-0.585-1.5-1.284-1.828c1.48,0.154,3.005-0.129,4.317-0.831C296.163,86.463,297.016,85.69,296.757,84.616z"/>
			</g>
			<g>
				<g>
					<path style="fill:#455A64;" d="M250.309,75.299c0.023,0.032-0.513,0.305-1.237,1.072c-0.717,0.764-1.535,2.104-1.955,3.947
						c-0.214,0.916-0.36,1.943-0.389,3.051c-0.035,1.108,0.023,2.298,0.074,3.551c0.048,1.253,0.102,2.577-0.015,3.95
						c-0.059,0.685-0.16,1.381-0.327,2.075c-0.17,0.682-0.37,1.421-0.903,1.997c-0.425,0.469-1.12,0.664-1.714,0.526
						c-0.599-0.123-1.125-0.457-1.505-0.904c-0.751-0.924-0.913-2.076-1.078-3.092l0.252,0.037
						c-0.437,0.897-0.885,1.783-1.532,2.482c-0.637,0.704-1.505,1.158-2.376,1.213c-0.434,0.027-0.868-0.054-1.235-0.251
						c-0.374-0.195-0.641-0.516-0.821-0.853c-0.171-0.343-0.255-0.716-0.227-1.074c0.03-0.357,0.178-0.692,0.411-0.926l0.125,0.117
						c-0.956,1.032-1.952,1.574-2.638,1.871c-0.346,0.148-0.623,0.235-0.81,0.29c-0.188,0.05-0.287,0.071-0.289,0.063
						c-0.002-0.008,0.092-0.044,0.275-0.108c0.181-0.069,0.45-0.169,0.786-0.329c0.667-0.319,1.631-0.876,2.548-1.902l0.125,0.117
						c-0.416,0.418-0.46,1.171-0.128,1.786c0.168,0.303,0.413,0.59,0.742,0.755c0.327,0.172,0.724,0.243,1.12,0.214
						c0.8-0.058,1.609-0.484,2.206-1.154c0.611-0.669,1.044-1.531,1.476-2.43l0.183-0.381l0.068,0.419
						c0.166,1.014,0.342,2.12,1.026,2.954c0.34,0.401,0.823,0.703,1.347,0.809c0.525,0.116,1.086-0.043,1.457-0.445
						c0.466-0.498,0.67-1.198,0.835-1.869c0.164-0.677,0.265-1.358,0.324-2.032c0.119-1.349,0.071-2.665,0.031-3.916
						c-0.044-1.252-0.093-2.447-0.048-3.569c0.04-1.122,0.2-2.162,0.43-3.09c0.45-1.866,1.314-3.222,2.068-3.975
						C249.755,75.538,250.309,75.299,250.309,75.299z"/>
				</g>
			</g>
			<g>
				<g>
					<path style="fill:#455A64;" d="M287.233,88.008c0.003,0.004-0.031,0.031-0.099,0.08c-0.083,0.057-0.184,0.126-0.307,0.211
						c-0.134,0.095-0.304,0.205-0.519,0.313c-0.211,0.114-0.452,0.252-0.742,0.366c-1.132,0.501-2.939,0.981-5.177,0.789
						c-2.217-0.185-4.861-1.042-7.193-2.877c-2.358-1.794-4.401-4.397-6.048-7.361c-0.837-1.481-1.51-2.994-2.26-4.395
						c-0.744-1.402-1.573-2.701-2.592-3.737c-1.006-1.041-2.185-1.821-3.412-2.198c-0.611-0.2-1.231-0.258-1.824-0.26
						c-0.594,0.016-1.16,0.121-1.683,0.277c-1.047,0.32-1.899,0.871-2.55,1.444c-0.653,0.578-1.098,1.195-1.406,1.726
						c-0.577,1.092-0.626,1.801-0.67,1.788c-0.005-0.001,0-0.043,0.013-0.126c0.018-0.099,0.04-0.22,0.067-0.367
						c0.067-0.321,0.219-0.784,0.493-1.347c0.298-0.549,0.738-1.188,1.396-1.791c0.656-0.597,1.521-1.174,2.596-1.517
						c0.537-0.167,1.12-0.282,1.737-0.304c0.614-0.005,1.264,0.052,1.897,0.253c1.275,0.381,2.495,1.18,3.529,2.24
						c1.048,1.055,1.896,2.378,2.649,3.788c0.759,1.411,1.433,2.921,2.262,4.388c1.635,2.941,3.647,5.515,5.961,7.292
						c2.289,1.818,4.87,2.676,7.053,2.885c2.2,0.214,3.984-0.227,5.117-0.692C286.665,88.405,287.212,87.973,287.233,88.008z"/>
				</g>
			</g>
			<g>
				<g>
					<path style="fill:#455A64;" d="M288.47,82.748c0.009,0.017-0.147,0.119-0.44,0.289c-0.29,0.176-0.733,0.39-1.296,0.615
						c-0.562,0.23-1.256,0.44-2.042,0.61c-0.788,0.156-1.668,0.264-2.597,0.274c-0.929,0-1.811-0.099-2.6-0.247
						c-0.787-0.162-1.484-0.365-2.048-0.589c-0.565-0.219-1.01-0.429-1.302-0.601c-0.294-0.167-0.452-0.267-0.443-0.284
						c0.025-0.047,0.68,0.313,1.812,0.698c0.564,0.197,1.254,0.376,2.028,0.521c0.777,0.131,1.641,0.22,2.551,0.22
						c0.91-0.01,1.773-0.108,2.548-0.247c0.773-0.153,1.461-0.34,2.023-0.543C287.793,83.068,288.445,82.701,288.47,82.748z"/>
				</g>
			</g>
		</g>
		<path style="fill:#455A64;" d="M255.399,143.61l12.372,5.037c3.031,0.876,8.816,5.8,12.293,9.129l14.391,19.202l-22.002,26.813
			L255.399,143.61z"/>
		<path style="fill:#455A64;" d="M238.138,134.546l-2.008,3.144c0,0-29.084,7.585-31.495,13.411
			c-3.386,8.18,1.052,33.589,1.052,33.589l6.141,54.74l-8.396,30.29l77.042,1.317c0,0-4.675-79.412-5.759-87.818
			s-8.428-36.907-8.428-36.907L238.138,134.546z"/>
		<g>
			<path style="fill:#263238;" d="M273.405,167.725c0.009-0.001,0.025,0.085,0.049,0.253c0.024,0.199,0.055,0.445,0.092,0.748
				c0.074,0.7,0.175,1.662,0.304,2.881c0.258,2.503,0.587,6.128,0.967,10.611c0.762,8.965,1.63,21.364,2.488,35.062
				c0.857,13.703,1.667,26.102,2.335,35.072c0.336,4.452,0.609,8.07,0.802,10.621c0.087,1.222,0.156,2.187,0.206,2.889
				c0.017,0.305,0.03,0.553,0.041,0.753c0.006,0.17,0.005,0.257-0.004,0.258c-0.009,0.001-0.025-0.085-0.049-0.253
				c-0.025-0.199-0.055-0.445-0.092-0.748c-0.074-0.7-0.175-1.662-0.304-2.881c-0.258-2.503-0.587-6.128-0.967-10.61
				c-0.762-8.965-1.63-21.365-2.488-35.068c-0.857-13.698-1.667-26.096-2.335-35.066c-0.336-4.453-0.61-8.07-0.802-10.622
				c-0.087-1.222-0.156-2.188-0.206-2.89c-0.016-0.305-0.03-0.553-0.041-0.753C273.395,167.813,273.396,167.726,273.405,167.725z"/>
		</g>
		<path style="opacity:0.3;" d="M207.156,256.281l7.762,2.937l4.315-13.56c0,0,7.397,5.671,12.574,4.931
			c5.178-0.74,12.574-4.931,12.574-4.931l16.765,3.123l18.368,6.245l-1.356-22.683l-48.571-2.465l-14.67,1.726L207.156,256.281z"/>
		<g>
			<g>
				<path style="fill:#FF725E;" d="M160.456,275.533l12.528-5.969c1.158-3.878,2.33-7.751,3.608-12
					c5.318,2.36,10.063,4.466,15.012,6.662c1.793-5.574,3.387-10.528,5.042-15.672c5.243,2.265,10.007,4.323,15.055,6.504
					c1.706-5.514,3.241-10.475,4.879-15.768c4.332,1.957,7.972,3.915,11.834,5.215c1.967,0.662,4.594,0.787,6.467,0.029
					c5.41-2.189,10.589-4.95,16.037-7.572c0.781,1.491,1.27,2.359,1.699,3.255c2.576,5.39,2.753,5.474,8.254,2.944
					c5.856-2.693,11.724-5.363,17.523-8.176c2.456-1.191,4.332-0.989,6.838,0.42c19.095,10.738,38.304,11.329,56.769-1.18
					c17.479-11.842,25.125-28.93,22.552-49.741c-2.561-20.712-14.379-35.148-33.894-42.424
					c-30.757-11.468-64.163,8.427-69.284,40.898c-0.422,2.679-1.405,4.113-3.853,5.132c-5.013,2.087-9.909,4.453-14.846,6.72
					c-8.272,3.797-8.269,3.802-5.641,12.586c-1.651,0.889-3.022,1.732-4.476,2.396c-19.168,8.764-70.241,31.558-86.981,39.023
					l-5.827,19.872L160.456,275.533z M351.671,186.558c-4.213,11.087-16.731,16.615-27.823,12.286
					c-10.945-4.271-16.533-16.523-12.517-27.442c4.162-11.314,16.754-17.001,28.056-12.672
					C350.5,162.988,355.942,175.317,351.671,186.558z"/>
				<path style="opacity:0.3;" d="M239.167,221.704l-86.465,37.483c-1.449,0.628-3.134-0.037-3.762-1.487l0,0
					c-0.628-1.449,0.037-3.134,1.487-3.762l86.465-37.484c1.449-0.628,3.134,0.037,3.762,1.487v0
					C241.281,219.391,240.616,221.076,239.167,221.704z"/>
				<g>
					<path style="fill:#263238;" d="M243.913,221.995c0.004,0.008-0.082,0.057-0.254,0.143c-0.199,0.097-0.452,0.22-0.767,0.373
						c-0.713,0.333-1.708,0.798-2.971,1.388c-2.624,1.203-6.36,2.917-10.962,5.028c-9.264,4.229-22.069,10.055-36.255,16.395
						c-14.192,6.339-27.093,11.959-36.483,15.904c-4.691,1.981-8.505,3.543-11.148,4.603c-1.297,0.513-2.317,0.917-3.049,1.206
						c-0.328,0.124-0.591,0.223-0.798,0.302c-0.181,0.065-0.275,0.094-0.278,0.086c-0.003-0.008,0.084-0.054,0.258-0.135
						c0.202-0.091,0.458-0.206,0.778-0.349c0.723-0.311,1.731-0.745,3.012-1.296c2.652-1.138,6.429-2.758,11.081-4.754
						c9.351-4.03,22.224-9.702,36.415-16.04c14.166-6.341,26.991-12.081,36.316-16.255c4.631-2.048,8.391-3.71,11.031-4.877
						c1.281-0.552,2.288-0.987,3.011-1.299c0.324-0.134,0.584-0.241,0.789-0.326C243.816,222.019,243.909,221.986,243.913,221.995z"
						/>
				</g>
				<g>
					<path style="fill:#263238;" d="M253.419,241.031c-0.13,0.062-4.073-7.881-8.807-17.739c-4.735-9.862-8.467-17.904-8.338-17.967
						c0.13-0.062,4.072,7.879,8.807,17.741C249.816,232.924,253.549,240.969,253.419,241.031z"/>
				</g>
				<g>
					<path style="fill:#263238;" d="M361.953,191.177c0,0-0.031-0.267-0.066-0.788c-0.033-0.536-0.081-1.307-0.143-2.312
						c-0.029-0.509-0.062-1.077-0.099-1.703c-0.065-0.624-0.197-1.3-0.306-2.035c-0.116-0.735-0.241-1.526-0.374-2.372
						c-0.1-0.852-0.416-1.717-0.634-2.657c-0.854-3.764-2.612-8.213-5.388-12.93c-2.798-4.697-6.836-9.604-12.339-13.771
						c-0.691-0.515-1.39-1.036-2.097-1.563c-0.737-0.483-1.513-0.926-2.281-1.399c-0.783-0.446-1.525-0.988-2.366-1.368
						c-0.831-0.399-1.67-0.801-2.518-1.208c-0.425-0.201-0.852-0.404-1.281-0.607c-0.446-0.163-0.895-0.326-1.345-0.49
						c-0.901-0.329-1.811-0.66-2.729-0.995c-0.927-0.306-1.897-0.504-2.857-0.765c-0.97-0.22-1.923-0.561-2.935-0.665
						c-2.005-0.285-4.031-0.698-6.13-0.71c-1.045-0.036-2.099-0.139-3.16-0.122c-1.061,0.055-2.131,0.11-3.208,0.165
						c-0.538,0.037-1.081,0.034-1.619,0.105c-0.537,0.083-1.076,0.165-1.616,0.249c-1.079,0.179-2.176,0.305-3.261,0.529
						c-2.139,0.582-4.356,1.016-6.463,1.896l-1.608,0.59c-0.268,0.101-0.54,0.191-0.805,0.302l-0.777,0.375
						c-1.038,0.501-2.081,1.004-3.131,1.511c-1.023,0.555-2.005,1.201-3.018,1.802c-0.496,0.317-1.025,0.588-1.498,0.946
						l-1.427,1.068c-1.97,1.352-3.693,3.043-5.497,4.671c-0.817,0.9-1.638,1.804-2.463,2.713l-0.62,0.682l-0.557,0.737l-1.109,1.485
						l-1.114,1.491l-0.976,1.594l-0.974,1.604l-0.489,0.805c-0.146,0.277-0.275,0.565-0.414,0.847
						c-0.546,1.134-1.095,2.273-1.645,3.417c-0.437,1.191-0.875,2.388-1.315,3.588c-1.58,4.863-2.431,10.029-2.501,15.285
						c0.069,5.258,0.918,10.425,2.497,15.29c0.44,1.201,0.878,2.398,1.314,3.589c0.551,1.144,1.099,2.283,1.646,3.418l0.414,0.848
						l0.489,0.805l0.975,1.605l0.975,1.595l1.115,1.491l1.109,1.485l0.556,0.737l0.62,0.682c0.825,0.909,1.646,1.813,2.464,2.713
						c1.804,1.629,3.527,3.32,5.498,4.673l1.427,1.068c0.472,0.359,1.002,0.629,1.498,0.947c1.013,0.601,1.995,1.247,3.018,1.803
						c1.05,0.507,2.094,1.01,3.131,1.511l0.777,0.375c0.265,0.11,0.538,0.201,0.805,0.302l1.608,0.59
						c2.107,0.88,4.324,1.314,6.464,1.896c1.085,0.224,2.182,0.351,3.261,0.529c0.541,0.083,1.08,0.166,1.617,0.248
						c0.538,0.071,1.082,0.067,1.62,0.105c1.077,0.055,2.147,0.11,3.208,0.165c1.061,0.016,2.115-0.086,3.16-0.122
						c2.1-0.012,4.126-0.426,6.131-0.711c1.011-0.104,1.965-0.445,2.935-0.665c0.96-0.261,1.93-0.458,2.857-0.766
						c0.918-0.335,1.828-0.667,2.729-0.995c0.451-0.164,0.899-0.327,1.345-0.49c0.429-0.204,0.856-0.406,1.28-0.608
						c0.848-0.407,1.687-0.81,2.518-1.208c0.84-0.381,1.582-0.923,2.366-1.369c0.767-0.473,1.544-0.915,2.28-1.399
						c0.707-0.527,1.406-1.048,2.097-1.563c5.502-4.167,9.54-9.075,12.338-13.771c2.775-4.717,4.533-9.165,5.387-12.929
						c0.218-0.939,0.534-1.804,0.634-2.657c0.133-0.845,0.258-1.636,0.374-2.371c0.109-0.735,0.241-1.411,0.306-2.035
						c0.036-0.625,0.069-1.193,0.098-1.703c0.062-1.005,0.11-1.776,0.143-2.312C361.922,191.444,361.953,191.177,361.953,191.177
						s0.004,0.267-0.013,0.789c-0.021,0.537-0.051,1.31-0.091,2.318c-0.022,0.511-0.047,1.081-0.074,1.709
						c-0.056,0.626-0.181,1.305-0.282,2.044c-0.109,0.739-0.226,1.534-0.352,2.383c-0.093,0.857-0.401,1.727-0.613,2.672
						c-0.828,3.787-2.566,8.27-5.333,13.029c-2.79,4.739-6.835,9.698-12.365,13.915c-0.695,0.521-1.397,1.049-2.109,1.582
						c-0.74,0.49-1.521,0.939-2.294,1.418c-0.788,0.452-1.535,0.999-2.38,1.387c-0.836,0.404-1.681,0.813-2.535,1.226
						c-0.428,0.204-0.858,0.41-1.29,0.616c-0.45,0.165-0.901,0.331-1.355,0.498c-0.908,0.334-1.825,0.67-2.75,1.01
						c-0.934,0.312-1.912,0.514-2.88,0.78c-0.978,0.224-1.94,0.57-2.959,0.678c-2.022,0.292-4.066,0.713-6.185,0.731
						c-1.055,0.039-2.118,0.143-3.189,0.129c-1.071-0.053-2.151-0.106-3.238-0.16c-0.543-0.037-1.092-0.033-1.635-0.103
						c-0.542-0.082-1.086-0.165-1.632-0.247c-1.09-0.178-2.198-0.305-3.294-0.529c-2.162-0.583-4.401-1.019-6.531-1.904
						c-0.54-0.197-1.081-0.395-1.625-0.594c-0.271-0.102-0.546-0.193-0.814-0.304l-0.785-0.378
						c-1.049-0.504-2.104-1.012-3.165-1.522c-1.034-0.559-2.027-1.21-3.051-1.817c-0.501-0.32-1.036-0.593-1.514-0.955l-1.443-1.077
						c-1.991-1.365-3.735-3.07-5.558-4.716c-0.827-0.909-1.657-1.822-2.492-2.739l-0.626-0.689l-0.563-0.744l-1.122-1.499
						l-1.127-1.507l-0.987-1.611l-0.986-1.621l-0.494-0.813l-0.419-0.857c-0.553-1.147-1.108-2.298-1.665-3.454
						c-0.442-1.205-0.885-2.414-1.33-3.627c-1.599-4.917-2.457-10.14-2.526-15.454c0.07-5.312,0.931-10.533,2.53-15.448
						c0.445-1.213,0.889-2.422,1.331-3.626c0.557-1.155,1.112-2.307,1.664-3.453c0.141-0.285,0.271-0.576,0.419-0.856l0.494-0.813
						l0.985-1.621l0.987-1.61l1.127-1.506l1.122-1.499l0.563-0.744l0.626-0.689c0.834-0.917,1.665-1.83,2.491-2.738
						c1.823-1.645,3.567-3.35,5.558-4.714l1.443-1.077c0.478-0.361,1.013-0.634,1.514-0.954c1.024-0.606,2.016-1.257,3.051-1.816
						c1.061-0.51,2.116-1.018,3.164-1.522l0.785-0.378c0.267-0.111,0.543-0.202,0.814-0.304c0.543-0.199,1.085-0.396,1.624-0.594
						c2.13-0.885,4.368-1.321,6.53-1.904c1.096-0.225,2.204-0.351,3.293-0.529c0.546-0.083,1.09-0.165,1.632-0.247
						c0.543-0.071,1.092-0.066,1.635-0.103c1.087-0.054,2.167-0.107,3.238-0.16c1.071-0.014,2.134,0.09,3.189,0.129
						c2.118,0.017,4.163,0.438,6.184,0.73c1.02,0.108,1.982,0.453,2.959,0.678c0.968,0.266,1.945,0.468,2.88,0.779
						c0.925,0.34,1.842,0.677,2.75,1.01c0.454,0.167,0.906,0.333,1.355,0.498c0.432,0.206,0.862,0.412,1.29,0.616
						c0.854,0.413,1.699,0.821,2.535,1.226c0.846,0.387,1.593,0.935,2.381,1.387c0.772,0.479,1.553,0.928,2.294,1.417
						c0.711,0.534,1.414,1.061,2.109,1.582c5.53,4.217,9.575,9.176,12.366,13.915c2.768,4.759,4.506,9.242,5.334,13.03
						c0.212,0.945,0.52,1.816,0.613,2.673c0.125,0.85,0.243,1.645,0.352,2.384c0.101,0.739,0.225,1.418,0.282,2.044
						c0.027,0.628,0.052,1.198,0.074,1.709c0.04,1.008,0.07,1.781,0.091,2.318C361.958,190.91,361.953,191.177,361.953,191.177z"/>
				</g>
				<g>
					<path style="fill:#263238;" d="M355.288,178.799c-0.009,0-0.025-0.133-0.046-0.391c-0.021-0.283-0.048-0.662-0.084-1.145
						c-0.017-0.254-0.035-0.535-0.055-0.843c-0.034-0.309-0.102-0.643-0.158-1.007c-0.118-0.727-0.23-1.57-0.511-2.487
						c-0.43-1.861-1.307-4.059-2.686-6.387c-1.389-2.319-3.391-4.74-6.113-6.793c-2.713-2.034-6.136-3.764-10.085-4.461
						c-3.922-0.672-8.349-0.549-12.565,1.054c-1.073,0.344-2.081,0.875-3.118,1.372c-0.982,0.594-2.017,1.141-2.931,1.885
						c-0.972,0.667-1.821,1.502-2.711,2.306c-0.804,0.89-1.648,1.761-2.341,2.771c-1.422,1.976-2.664,4.171-3.415,6.584
						c-0.779,2.399-1.198,4.946-1.233,7.539c0.034,2.594,0.453,5.142,1.231,7.542c0.751,2.415,1.993,4.61,3.415,6.586
						c0.693,1.01,1.538,1.882,2.342,2.772c0.89,0.804,1.739,1.639,2.711,2.306c0.914,0.744,1.949,1.291,2.931,1.885
						c1.037,0.498,2.045,1.029,3.118,1.373c4.216,1.603,8.644,1.726,12.566,1.053c3.949-0.697,7.372-2.427,10.085-4.462
						c2.722-2.054,4.723-4.475,6.112-6.794c1.378-2.328,2.255-4.526,2.685-6.387c0.281-0.916,0.393-1.759,0.511-2.486
						c0.056-0.364,0.124-0.698,0.158-1.007c0.02-0.308,0.039-0.589,0.055-0.843c0.035-0.483,0.063-0.862,0.084-1.145
						C355.263,178.932,355.279,178.799,355.288,178.799s0.011,0.132,0.007,0.392c-0.008,0.285-0.019,0.666-0.032,1.151
						c-0.009,0.256-0.019,0.539-0.03,0.849c-0.026,0.311-0.086,0.648-0.134,1.016c-0.103,0.734-0.2,1.586-0.467,2.514
						c-0.404,1.884-1.261,4.116-2.632,6.487c-1.382,2.361-3.39,4.833-6.139,6.937c-2.74,2.085-6.211,3.864-10.229,4.593
						c-3.99,0.704-8.502,0.595-12.809-1.027c-1.095-0.348-2.126-0.886-3.186-1.392c-1.004-0.603-2.061-1.161-2.996-1.917
						c-0.993-0.68-1.863-1.529-2.772-2.35c-0.823-0.907-1.686-1.796-2.396-2.826c-1.456-2.016-2.726-4.259-3.496-6.725
						c-0.798-2.451-1.226-5.056-1.26-7.705c0.035-2.648,0.464-5.252,1.262-7.703c0.77-2.465,2.04-4.708,3.496-6.723
						c0.71-1.03,1.573-1.919,2.396-2.826c0.909-0.82,1.779-1.669,2.772-2.349c0.935-0.756,1.992-1.314,2.996-1.916
						c1.059-0.506,2.09-1.044,3.185-1.392c4.306-1.621,8.818-1.731,12.807-1.027c4.017,0.729,7.489,2.508,10.229,4.592
						c2.749,2.104,4.757,4.576,6.139,6.937c1.371,2.371,2.228,4.603,2.632,6.487c0.268,0.928,0.365,1.78,0.468,2.515
						c0.048,0.367,0.108,0.705,0.134,1.016c0.011,0.31,0.021,0.593,0.03,0.849c0.014,0.485,0.024,0.867,0.032,1.151
						C355.299,178.667,355.297,178.799,355.288,178.799z"/>
				</g>
				<path style="opacity:0.3;fill:#FFFFFF;" d="M290.523,143.84v94.277c0,0,5.613,2.891,13.513,4.477l-0.962-102.886
					C298.648,140.572,294.433,141.882,290.523,143.84z"/>
			</g>
			<g>
				<path style="fill:#FFFFFF;" d="M283.677,234.663c-0.144,0-0.26-19.362-0.26-43.24c0-23.887,0.117-43.244,0.26-43.244
					s0.26,19.358,0.26,43.244C283.938,215.301,283.821,234.663,283.677,234.663z"/>
			</g>
			<g>
				<path style="fill:#FFFFFF;" d="M273.369,158.327c0.029,0.022-0.242,0.447-0.753,1.194c-0.52,0.741-1.233,1.841-2.068,3.224
					c-0.842,1.38-1.756,3.075-2.68,4.999c-0.9,1.936-1.796,4.107-2.573,6.445c-0.76,2.344-1.326,4.625-1.749,6.718
					c-0.397,2.098-0.666,4.005-0.806,5.615c-0.148,1.609-0.225,2.918-0.246,3.823c-0.031,0.905-0.065,1.407-0.101,1.408
					c-0.036,0.001-0.07-0.5-0.101-1.409c-0.042-0.909-0.02-2.227,0.082-3.851c0.093-1.626,0.326-3.554,0.701-5.675
					c0.401-2.116,0.958-4.423,1.726-6.791c0.785-2.361,1.703-4.548,2.635-6.49c0.956-1.931,1.911-3.621,2.8-4.986
					c0.881-1.368,1.645-2.443,2.217-3.15C273.016,158.689,273.34,158.305,273.369,158.327z"/>
			</g>
			<g>
				<path style="fill:#FFFFFF;" d="M258.68,191.15c0.062,0.13-3.916,2.16-8.885,4.533c-4.97,2.374-9.048,4.193-9.11,4.064
					c-0.062-0.13,3.916-2.159,8.886-4.533C254.539,192.84,258.618,191.021,258.68,191.15z"/>
			</g>
			<g>
				<path style="fill:#FFFFFF;" d="M232.813,212.314c0.004,0.008-0.064,0.05-0.199,0.124c-0.165,0.086-0.364,0.189-0.607,0.316
					c-0.579,0.287-1.365,0.677-2.357,1.168c-2.051,1.006-5.032,2.436-8.726,4.18c-7.387,3.49-17.639,8.212-29.042,13.249
					c-11.408,5.036-21.805,9.433-29.36,12.541c-3.777,1.555-6.842,2.795-8.967,3.633c-1.032,0.402-1.85,0.721-2.451,0.955
					c-0.258,0.095-0.468,0.172-0.642,0.236c-0.146,0.051-0.222,0.072-0.226,0.064s0.066-0.047,0.205-0.113
					c0.169-0.077,0.373-0.17,0.623-0.284c0.592-0.257,1.398-0.605,2.414-1.045c2.146-0.912,5.176-2.201,8.902-3.785
					c7.518-3.195,17.888-7.643,29.292-12.678c11.399-5.035,21.672-9.703,29.097-13.107c3.681-1.687,6.675-3.058,8.795-4.03
					c1.01-0.455,1.81-0.815,2.399-1.08c0.252-0.108,0.459-0.196,0.63-0.269C232.734,212.332,232.809,212.306,232.813,212.314z"/>
			</g>
			<g>
				<path style="fill:#FFFFFF;" d="M331.889,152.469c-0.013,0.101-1.726-0.253-4.507-0.151c-2.763,0.088-6.631,0.781-10.366,2.79
					c-3.736,2.008-6.449,4.853-8.046,7.11c-1.618,2.264-2.268,3.888-2.36,3.843c-0.029-0.012,0.107-0.426,0.427-1.145
					c0.318-0.719,0.848-1.733,1.63-2.908c1.543-2.345,4.275-5.302,8.101-7.358c3.824-2.057,7.797-2.705,10.604-2.699
					c1.411-0.005,2.549,0.112,3.325,0.244C331.474,152.324,331.895,152.439,331.889,152.469z"/>
			</g>
			<g>
				<path style="fill:#FFFFFF;" d="M339.559,147.29c-0.018,0.031-0.458-0.171-1.235-0.561c-0.772-0.4-1.913-0.935-3.339-1.545
					c-1.424-0.619-3.159-1.259-5.116-1.872c-1.964-0.588-4.153-1.134-6.485-1.536c-2.336-0.383-4.583-0.584-6.632-0.672
					c-2.049-0.061-3.899-0.025-5.447,0.093c-1.548,0.11-2.801,0.242-3.661,0.367c-0.862,0.114-1.344,0.161-1.351,0.125
					c-0.007-0.035,0.462-0.149,1.318-0.325c0.854-0.187,2.107-0.376,3.663-0.534c1.556-0.167,3.422-0.242,5.492-0.206
					c2.069,0.062,4.344,0.25,6.704,0.638c2.356,0.406,4.566,0.973,6.542,1.592c1.968,0.644,3.706,1.326,5.121,1.993
					c1.418,0.659,2.541,1.248,3.286,1.704C339.171,146.998,339.577,147.259,339.559,147.29z"/>
			</g>
		</g>
		<g>
			<polygon style="opacity:0.3;" points="219.019,220.205 222.432,202.954 226.451,202.791 228.46,180.328 224.138,198.211 
				219.752,197.23 215.601,219.512 			"/>
			<path style="fill:#FFCAAE;" d="M254.227,227.107c0,0,5.986-4.356,8.046-5.083c2.061-0.727,9.004-1.962,11.451-3.716
				c0,0,2.2,1.185,0.34,3.088c-1.86,1.903-5.235,3.864-6.993,4.384c-1.758,0.52-1.205,1.786,0.058,2.232
				c1.262,0.446,10.252,1.982,10.252,1.982s10.449,0.224,11.305,1.283c0.856,1.059,0.146,2.489-0.709,2.788
				c-0.616,0.215-9.587,0.814-9.587,0.814l-4.613-0.548c0,0,14.336,2.645,15.154,3.854c0.818,1.209,0.109,2.029-0.627,2.467
				c-0.737,0.438-7.052-0.793-7.052-0.793l-8.609-1.064l15.663,4.484c0,0,1.426,0.613,1.127,1.788
				c-0.299,1.175-2.24,1.431-2.24,1.431l-16.568-3.213c0,0,8.072,5.68,8.356,6.421c0.38,0.992-1.29,1.898-1.935,1.484
				c-0.645-0.414-11.038-4.867-11.038-4.867l-11.886-5.413l-7.871,0.095l3.417-14.587L254.227,227.107z"/>
			<path style="fill:#FFCAAE;" d="M218.611,241.414l33.785-0.502l-0.65-14.074l-36.144-7.325l5.208-26.568l-24.646-5.693
				c-3.623,15.188-4.819,27.95-5.717,38.244c0,0-1.69,10.649,10.372,13.603C208.495,240.978,218.611,241.414,218.611,241.414z"/>
			<path style="fill:#455A64;" d="M190.143,190.611l33.995,7.6c0,0,5.939-22.14,6.144-28.284
				c0.205-6.144-8.214-25.566-20.067-21.635c0,0-3.589-0.726-6.854,4.072C202.047,154.293,190.143,190.611,190.143,190.611z"/>
			<g>
				<path style="fill:#263238;" d="M228.802,166.737c-0.103-0.002,0.303-1.93-0.372-4.934c-0.335-1.491-0.922-3.229-1.835-5.037
					c-0.884-1.818-2.057-3.756-3.962-5.086c-1.902-1.309-4.028-2.098-6.018-2.37c-1.999-0.3-3.838-0.324-5.368-0.256
					c-1.534,0.065-2.764,0.26-3.599,0.451c-0.834,0.196-1.276,0.379-1.295,0.334c-0.007-0.016,0.097-0.076,0.305-0.174
					c0.205-0.108,0.524-0.219,0.938-0.357c0.834-0.254,2.076-0.509,3.629-0.622c1.551-0.116,3.412-0.131,5.461,0.149
					c2.056,0.257,4.269,1.053,6.251,2.421c2.005,1.397,3.227,3.459,4.09,5.298c0.905,1.853,1.469,3.642,1.764,5.173
					c0.297,1.535,0.31,2.811,0.243,3.678c-0.04,0.434-0.083,0.769-0.135,0.993C228.852,166.624,228.819,166.74,228.802,166.737z"/>
			</g>
			<g>
				<path style="fill:#263238;" d="M228.802,177.752c0.015,0.003-0.002,0.142-0.047,0.406c-0.06,0.313-0.132,0.693-0.22,1.154
					c-0.225,1.071-0.528,2.513-0.901,4.288c-0.823,3.716-1.952,8.813-3.249,14.667l-0.054,0.245l-0.247-0.055
					c-2.136-0.475-4.412-0.981-6.759-1.503c-7.484-1.704-14.256-3.245-19.244-4.38c-2.404-0.572-4.374-1.042-5.819-1.386
					c-0.639-0.163-1.16-0.296-1.576-0.402c-0.359-0.098-0.546-0.157-0.542-0.175c0.004-0.018,0.198,0.008,0.565,0.073
					c0.422,0.081,0.95,0.183,1.598,0.307c1.453,0.304,3.436,0.718,5.855,1.224c4.997,1.097,11.78,2.586,19.277,4.232
					c2.345,0.527,4.621,1.039,6.755,1.519l-0.301,0.19c1.368-5.838,2.559-10.921,3.428-14.627c0.433-1.761,0.785-3.193,1.046-4.255
					c0.12-0.453,0.22-0.827,0.302-1.135C228.741,177.881,228.787,177.748,228.802,177.752z"/>
			</g>
		</g>
		<g>
			<g>
				<g>
					<path style="fill:#FFCAAE;" d="M362.403,175.039c0,0,0.982,0.387,2.082-0.579c1.099-0.966,2.929-3.498,2.133-4.454
						c-0.796-0.956-2.804-1.332-2.804-1.332s1.458-1.847,0.822-3.19c-0.907-1.914-2.706-1.146-2.706-1.146s0.84-1.4,0.051-3.561
						c-0.219-0.599-0.679-1.084-1.263-1.34l-1.737-0.762c0,0,1.555-2.315-0.218-4.246c-0.367-0.4-0.839-0.713-1.358-0.958
						c-2.294-1.084-5.075-0.87-6.773,1.016l0,0c1.404,1.392,2.971,2.947,2.624,4.092c0,0-7.346,4.869-5.448,7.45
						c1.228,1.67,2.505,0.917,2.505,0.917s-1.827,1.661-0.861,2.761c0.302,0.344,0.72,0.531,1.153,0.626
						c1.022,0.225,1.704,0.21,2.756-0.406l1.206-0.682c0,0-0.517,1.556,0.507,2.413c0.085,0.071,0.173,0.135,0.261,0.193
						c0.888,0.577,2.056,0.489,2.939-0.096l2.729-1.808l0.237,1.338C361.24,171.286,359.63,173.152,362.403,175.039z"/>
					<g>
						<path style="fill:#FF9A6C;" d="M362.403,175.039c0,0-0.377-0.166-0.929-0.704c-0.263-0.277-0.575-0.665-0.729-1.227
							c-0.151-0.558-0.064-1.283,0.404-1.9l-0.027,0.098c-0.079-0.418-0.163-0.864-0.252-1.335l0.207,0.089
							c-0.506,0.342-1.047,0.709-1.623,1.098c-0.289,0.195-0.587,0.396-0.893,0.603c-0.296,0.21-0.663,0.428-1.058,0.535
							c-0.781,0.238-1.764,0.146-2.488-0.448c-0.379-0.278-0.648-0.74-0.728-1.216c-0.088-0.482-0.051-0.963,0.088-1.452
							l0.293,0.241c-0.584,0.319-1.131,0.681-1.804,0.996c-0.675,0.321-1.513,0.321-2.235,0.147
							c-0.376-0.074-0.775-0.214-1.107-0.48c-0.332-0.24-0.607-0.7-0.577-1.159c0.012-0.455,0.197-0.852,0.417-1.2
							c0.224-0.352,0.482-0.662,0.791-0.958l0.281,0.381c-0.537,0.279-1.146,0.255-1.667,0.018
							c-0.523-0.242-0.911-0.641-1.226-1.106c-0.342-0.503-0.349-1.168-0.185-1.708c0.161-0.551,0.452-1.033,0.77-1.485
							c1.327-1.779,3.099-3.186,4.986-4.507l-0.105,0.141c0.112-0.392-0.067-0.889-0.35-1.33c-0.278-0.449-0.641-0.875-1.021-1.288
							c-0.383-0.415-0.786-0.815-1.187-1.214l-0.175-0.174l0.165-0.185c0.846-0.948,2.04-1.531,3.251-1.692
							c1.215-0.169,2.439,0.037,3.522,0.49c1.085,0.419,2.107,1.248,2.479,2.399c0.369,1.156,0.069,2.349-0.51,3.299l-0.103-0.355
							c0.607,0.269,1.205,0.534,1.794,0.795c0.64,0.299,1.136,0.868,1.345,1.512c0.42,1.215,0.477,2.55-0.102,3.687l-0.268-0.307
							c0.645-0.24,1.35-0.224,1.936,0.092c0.591,0.323,0.928,0.869,1.136,1.447c0.159,0.615,0.021,1.21-0.176,1.719
							c-0.209,0.513-0.472,0.967-0.789,1.383l-0.106-0.282c0.834,0.185,1.597,0.451,2.257,0.866c0.317,0.221,0.644,0.44,0.792,0.854
							c0.118,0.395,0.03,0.765-0.066,1.088c-0.478,1.274-1.236,2.146-1.865,2.818c-0.629,0.684-1.343,1.012-1.836,1.025
							c-0.245,0.018-0.431-0.011-0.552-0.041C362.457,175.079,362.4,175.047,362.403,175.039c0.003-0.021,0.248,0.076,0.715,0.014
							c0.469-0.048,1.111-0.372,1.707-1.059c0.592-0.67,1.32-1.57,1.74-2.769c0.085-0.297,0.142-0.629,0.049-0.909
							c-0.083-0.261-0.389-0.498-0.68-0.682c-0.609-0.372-1.364-0.624-2.152-0.786l-0.266-0.055l0.16-0.227
							c0.532-0.756,1.105-1.788,0.864-2.777c-0.17-0.456-0.488-0.96-0.954-1.192c-0.454-0.249-1.066-0.253-1.572-0.06l-0.52,0.199
							l0.253-0.506c0.471-0.944,0.444-2.204,0.038-3.314c-0.179-0.539-0.587-0.994-1.113-1.238c-0.587-0.256-1.183-0.516-1.788-0.78
							l-0.251-0.109l0.148-0.245c0.499-0.826,0.761-1.919,0.439-2.874c-0.319-0.969-1.184-1.695-2.203-2.087
							c-1.009-0.419-2.144-0.604-3.254-0.448c-1.108,0.15-2.175,0.676-2.936,1.529l-0.01-0.359c0.402,0.398,0.809,0.803,1.204,1.23
							c0.391,0.426,0.771,0.868,1.081,1.368c0.3,0.484,0.581,1.097,0.404,1.754l-0.022,0.084l-0.083,0.057
							c-1.841,1.282-3.609,2.693-4.862,4.368c-0.592,0.812-1.087,1.872-0.58,2.637c0.256,0.387,0.611,0.748,1.011,0.929
							c0.39,0.191,0.88,0.187,1.224,0.012l1.398-0.71l-1.117,1.092c-0.521,0.509-1.037,1.171-1.066,1.815
							c-0.043,0.642,0.662,1.077,1.315,1.194c0.7,0.165,1.369,0.169,1.977-0.105c0.595-0.27,1.194-0.649,1.77-0.957l0.437-0.234
							l-0.144,0.475c-0.247,0.813-0.147,1.777,0.488,2.244c0.615,0.518,1.458,0.612,2.16,0.412c0.701-0.193,1.276-0.715,1.876-1.065
							c0.583-0.378,1.132-0.734,1.644-1.066l0.174-0.113l0.033,0.202c0.078,0.473,0.152,0.921,0.221,1.34l0.009,0.053l-0.036,0.045
							c-0.419,0.527-0.53,1.193-0.406,1.702c0.123,0.519,0.401,0.903,0.642,1.184C362.074,174.801,362.425,175.005,362.403,175.039z
							"/>
					</g>
				</g>
			</g>
			<g>
				<path style="fill:#FF9A6C;" d="M359.353,157.935c0.058,0.011-0.017,0.746-0.508,1.819c-0.479,1.073-1.436,2.427-2.775,3.614
					c-1.339,1.187-2.722,2.021-3.727,2.588c-1.01,0.563-1.659,0.862-1.695,0.802c-0.038-0.063,0.547-0.477,1.502-1.116
					c0.951-0.644,2.277-1.513,3.573-2.663c1.295-1.148,2.25-2.403,2.794-3.393C359.072,158.6,359.272,157.913,359.353,157.935z"/>
			</g>
			<g>
				<path style="fill:#FF9A6C;" d="M361.988,163.849c0.076,0.008-0.069,0.63-0.79,1.209c-0.701,0.559-1.684,1.226-2.79,1.972
					c-2.212,1.477-4.069,2.577-4.149,2.457c-0.08-0.119,1.648-1.413,3.86-2.89c1.098-0.74,2.14-1.377,2.856-1.832
					C361.692,164.307,361.92,163.823,361.988,163.849z"/>
			</g>
			<g>
				<path style="fill:#FF9A6C;" d="M364.028,168.552c0.082,0.113-0.534,0.689-1.473,1.098c-0.938,0.413-1.778,0.476-1.806,0.339
					c-0.032-0.144,0.713-0.425,1.597-0.816C363.232,168.788,363.944,168.43,364.028,168.552z"/>
			</g>
			<g>
				<path style="fill:#FF9A6C;" d="M363.572,170.034c0.008,0.15-0.689,0.286-1.368,0.774c-0.69,0.471-1.057,1.08-1.195,1.021
					c-0.136-0.033,0.069-0.874,0.896-1.448C362.727,169.801,363.586,169.895,363.572,170.034z"/>
			</g>
		</g>
	</g>
</g>
</svg>
