<?xml version="1.0" encoding="utf-8"?>
<!-- Generator: Adobe Illustrator 27.5.0, SVG Export Plug-In . SVG Version: 6.00 Build 0)  -->
<svg version="1.1" xmlns="http://www.w3.org/2000/svg" xmlns:xlink="http://www.w3.org/1999/xlink" x="0px" y="0px"
	 viewBox="0 0 750 500" style="enable-background:new 0 0 750 500;" xml:space="preserve">
<g id="BACKGROUND">
	<g>
		<g>
			<rect style="fill:#FFFFFF;" width="750" height="500"/>
		</g>
	</g>
</g>
<g id="OBJECTS">
	<g>
		<g>
			<linearGradient id="SVGID_1_" gradientUnits="userSpaceOnUse" x1="199.9915" y1="410.0099" x2="199.9915" y2="498.5095">
				<stop  offset="0" style="stop-color:#0E090F"/>
				<stop  offset="0.1506" style="stop-color:#160E18;stop-opacity:0.8795"/>
				<stop  offset="0.6857" style="stop-color:#2F1E33;stop-opacity:0.4515"/>
				<stop  offset="1" style="stop-color:#38243D;stop-opacity:0.2"/>
			</linearGradient>
			<path style="opacity:0.14;fill:url(#SVGID_1_);" d="M338.768,398.428c0-2.428-62.132-4.396-138.777-4.396
				c-76.644,0-138.776,1.968-138.776,4.396c0,2.428,62.132,4.396,138.776,4.396C276.636,402.825,338.768,400.856,338.768,398.428z"
				/>
			
				<linearGradient id="SVGID_00000129196146903871421010000003960613527495099523_" gradientUnits="userSpaceOnUse" x1="550.0085" y1="410.0099" x2="550.0085" y2="498.5094">
				<stop  offset="0" style="stop-color:#0E090F"/>
				<stop  offset="0.1506" style="stop-color:#160E18;stop-opacity:0.8795"/>
				<stop  offset="0.6857" style="stop-color:#2F1E33;stop-opacity:0.4515"/>
				<stop  offset="1" style="stop-color:#38243D;stop-opacity:0.2"/>
			</linearGradient>
			<path style="opacity:0.14;fill:url(#SVGID_00000129196146903871421010000003960613527495099523_);" d="M688.785,400.693
				c0-2.428-62.132-4.396-138.776-4.396c-76.644,0-138.777,1.968-138.777,4.396c0,2.428,62.132,4.396,138.777,4.396
				C626.653,405.089,688.785,403.121,688.785,400.693z"/>
			
				<linearGradient id="SVGID_00000007427540739147111360000005215088283305351080_" gradientUnits="userSpaceOnUse" x1="386.5515" y1="410.0099" x2="386.5515" y2="498.5093">
				<stop  offset="0" style="stop-color:#0E090F"/>
				<stop  offset="0.1506" style="stop-color:#160E18;stop-opacity:0.8795"/>
				<stop  offset="0.6857" style="stop-color:#2F1E33;stop-opacity:0.4515"/>
				<stop  offset="1" style="stop-color:#38243D;stop-opacity:0.2"/>
			</linearGradient>
			<path style="opacity:0.14;fill:url(#SVGID_00000007427540739147111360000005215088283305351080_);" d="M649.138,380.493
				c0-3.097-117.564-5.607-262.586-5.607c-145.023,0-262.587,2.51-262.587,5.607c0,3.097,117.564,5.607,262.587,5.607
				C531.574,386.1,649.138,383.59,649.138,380.493z"/>
			<g>
				<path style="fill:#FFFFFF;" d="M234.697,368.479l-117.668,25.389c-1.885,0.407-3.743-0.792-4.15-2.677l-14.878-68.952
					c-0.407-1.885,0.792-3.743,2.677-4.15l117.668-25.389c1.885-0.407,3.743,0.792,4.15,2.677l14.878,68.952
					C237.781,366.214,236.582,368.072,234.697,368.479z"/>
				
					<linearGradient id="SVGID_00000171678692434498335470000008154505975431564990_" gradientUnits="userSpaceOnUse" x1="103.7584" y1="343.1975" x2="232.4209" y2="343.1975">
					<stop  offset="0" style="stop-color:#39C4E2;stop-opacity:0.97"/>
					<stop  offset="1" style="stop-color:#007A68"/>
				</linearGradient>
				<path style="fill:url(#SVGID_00000171678692434498335470000008154505975431564990_);" d="M229.665,363.842l-109.159,23.553
					c-1.885,0.407-3.743-0.792-4.15-2.677l-12.518-58.016c-0.407-1.885,0.792-3.743,2.677-4.15L215.674,299
					c1.885-0.407,3.743,0.792,4.15,2.677l12.518,58.016C232.748,361.577,231.55,363.435,229.665,363.842z"/>
				<g>
					<polygon style="fill:#FFFFFF;" points="187.315,347.153 172.492,330.438 165.428,351.633 162.92,359.156 162.92,359.156 
						153.359,348.375 148.803,362.046 144.246,375.717 158.364,372.828 172.481,369.938 180.251,368.348 202.138,363.868 					"/>
					<path style="fill:#FFFFFF;" d="M164.055,327.033c0.925,4.521-1.989,8.935-6.51,9.861c-4.521,0.925-8.935-1.989-9.861-6.51
						c-0.925-4.521,1.989-8.935,6.51-9.861C158.714,319.598,163.129,322.513,164.055,327.033z"/>
				</g>
			</g>
			<g>
				<path style="fill:#FFFFFF;" d="M208.82,389.218l-120.239,5.738c-1.926,0.092-3.562-1.395-3.654-3.321l-3.362-70.458
					c-0.092-1.926,1.395-3.562,3.321-3.654l120.239-5.738c1.926-0.092,3.562,1.395,3.654,3.321l3.362,70.458
					C212.233,387.49,210.746,389.126,208.82,389.218z"/>
				
					<linearGradient id="SVGID_00000036947332799880987760000011756453562859921300_" gradientUnits="userSpaceOnUse" x1="86.5846" y1="353.3502" x2="207.9419" y2="353.3502">
					<stop  offset="0" style="stop-color:#39C4E2;stop-opacity:0.97"/>
					<stop  offset="1" style="stop-color:#007A68"/>
				</linearGradient>
				<path style="fill:url(#SVGID_00000036947332799880987760000011756453562859921300_);" d="M204.616,383.818l-111.544,5.323
					c-1.926,0.092-3.562-1.395-3.654-3.321l-2.829-59.284c-0.092-1.926,1.395-3.562,3.321-3.654l111.545-5.323
					c1.926-0.092,3.562,1.395,3.654,3.321l2.829,59.284C208.03,382.09,206.543,383.727,204.616,383.818z"/>
				<g>
					<polygon style="fill:#FFFFFF;" points="165.579,360.406 153.699,341.486 143.253,361.234 139.545,368.245 139.545,368.245 
						131.883,356.04 125.145,368.779 118.407,381.517 132.807,380.983 147.208,380.449 155.133,380.155 177.459,379.327 					"/>
					<path style="fill:#FFFFFF;" d="M145.935,336.743c0.171,4.611-3.428,8.488-8.04,8.659c-4.611,0.171-8.488-3.428-8.659-8.04
						c-0.171-4.611,3.428-8.488,8.04-8.659C141.887,328.532,145.764,332.132,145.935,336.743z"/>
				</g>
			</g>
			
				<linearGradient id="SVGID_00000116217318464262377940000012578924286766347407_" gradientUnits="userSpaceOnUse" x1="355.0637" y1="108.4654" x2="355.0637" y2="313.8192">
				<stop  offset="0" style="stop-color:#E97FB3"/>
				<stop  offset="0.212" style="stop-color:#AD97C6"/>
				<stop  offset="0.4946" style="stop-color:#64B4DE"/>
				<stop  offset="0.7295" style="stop-color:#2ECAEF"/>
				<stop  offset="0.9045" style="stop-color:#0DD7FA"/>
				<stop  offset="1" style="stop-color:#00DCFE"/>
			</linearGradient>
			<path style="fill:url(#SVGID_00000116217318464262377940000012578924286766347407_);" d="M564.951,298.207
				c18.918,0,34.554-15.155,34.688-34.073c0.001-0.131,0.001-0.262,0.001-0.392c0-20.145-11.003-37.71-27.319-47.047
				c-0.964-38.062-32.099-68.627-70.394-68.627c-17.841,0-34.12,6.646-46.531,17.579c-12.563-36.505-47.203-62.736-87.973-62.736
				c-40.103,0-74.277,25.379-87.342,60.951c-12.122-9.87-27.585-15.794-44.436-15.794c-35.878,0-65.47,26.831-69.857,61.519
				c-0.373-0.008-0.743-0.028-1.119-0.028c-29.924,0-54.183,24.259-54.183,54.183c0,0.131,0.001,0.262,0.001,0.392
				c0.134,18.918,15.77,34.073,34.688,34.073H564.951z"/>
			
				<linearGradient id="SVGID_00000055687386040576419050000016529260796484784008_" gradientUnits="userSpaceOnUse" x1="465.3442" y1="277.4159" x2="465.3442" y2="155.507">
				<stop  offset="0" style="stop-color:#E97FB3"/>
				<stop  offset="0.212" style="stop-color:#AD97C6"/>
				<stop  offset="0.4946" style="stop-color:#64B4DE"/>
				<stop  offset="0.7295" style="stop-color:#2ECAEF"/>
				<stop  offset="0.9045" style="stop-color:#0DD7FA"/>
				<stop  offset="1" style="stop-color:#00DCFE"/>
			</linearGradient>
			<path style="fill:url(#SVGID_00000055687386040576419050000016529260796484784008_);" d="M386.741,179.159v107.235
				c0,2.194,1.778,3.972,3.972,3.972h149.263c2.194,0,3.972-1.778,3.972-3.972V179.159c0-2.194-1.778-3.972-3.972-3.972H390.713
				C388.519,175.188,386.741,176.966,386.741,179.159z"/>
			
				<linearGradient id="SVGID_00000139275557975139372830000015932914333050214020_" gradientUnits="userSpaceOnUse" x1="282.4229" y1="277.4159" x2="282.4229" y2="155.507">
				<stop  offset="0" style="stop-color:#E97FB3"/>
				<stop  offset="0.212" style="stop-color:#AD97C6"/>
				<stop  offset="0.4946" style="stop-color:#64B4DE"/>
				<stop  offset="0.7295" style="stop-color:#2ECAEF"/>
				<stop  offset="0.9045" style="stop-color:#0DD7FA"/>
				<stop  offset="1" style="stop-color:#00DCFE"/>
			</linearGradient>
			<path style="fill:url(#SVGID_00000139275557975139372830000015932914333050214020_);" d="M203.82,179.159v107.235
				c0,2.194,1.778,3.972,3.972,3.972h149.263c2.194,0,3.972-1.778,3.972-3.972V179.159c0-2.194-1.778-3.972-3.972-3.972H207.792
				C205.598,175.188,203.82,176.966,203.82,179.159z"/>
			<g>
				<path style="fill:#FFFFFF;" d="M660.652,396.031l-120.342,2.855c-1.928,0.046-3.528-1.48-3.574-3.408l-1.673-70.519
					c-0.046-1.928,1.48-3.528,3.408-3.574l120.342-2.855c1.928-0.046,3.528,1.48,3.574,3.408l1.673,70.519
					C664.106,394.385,662.58,395.986,660.652,396.031z"/>
				
					<linearGradient id="SVGID_00000144315208320833371530000008637968058520624563_" gradientUnits="userSpaceOnUse" x1="539.9573" y1="358.6985" x2="659.9884" y2="358.6985">
					<stop  offset="0" style="stop-color:#39C4E2;stop-opacity:0.97"/>
					<stop  offset="1" style="stop-color:#007A68"/>
				</linearGradient>
				<path style="fill:url(#SVGID_00000144315208320833371530000008637968058520624563_);" d="M656.579,390.533l-111.64,2.648
					c-1.928,0.046-3.528-1.48-3.574-3.408l-1.407-59.334c-0.046-1.928,1.48-3.528,3.408-3.574l111.64-2.648
					c1.928-0.046,3.528,1.48,3.574,3.408l1.407,59.334C660.033,388.887,658.507,390.487,656.579,390.533z"/>
				<g>
					<polygon style="fill:#FFFFFF;" points="618.114,366.191 606.691,346.991 595.775,366.484 591.9,373.404 591.9,373.404 
						584.532,361.019 577.491,373.592 570.45,386.165 584.859,385.977 599.268,385.788 607.198,385.684 629.537,385.392 					"/>
					<path style="fill:#FFFFFF;" d="M599.043,342.064c0.06,4.614-3.631,8.403-8.245,8.464c-4.614,0.06-8.403-3.631-8.464-8.245
						c-0.06-4.614,3.631-8.403,8.245-8.464C595.193,333.759,598.983,337.45,599.043,342.064z"/>
				</g>
			</g>
			<g>
				<path style="fill:#FFFFFF;" d="M638.775,395.918l-120.295,4.421c-1.927,0.071-3.547-1.434-3.618-3.361l-2.59-70.491
					c-0.071-1.927,1.434-3.547,3.361-3.618l120.295-4.421c1.927-0.071,3.547,1.434,3.618,3.361l2.59,70.491
					C642.207,394.227,640.702,395.847,638.775,395.918z"/>
				
					<linearGradient id="SVGID_00000108276968063307670350000006397910241591493292_" gradientUnits="userSpaceOnUse" x1="517.2352" y1="359.3781" x2="637.9946" y2="359.3781">
					<stop  offset="0" style="stop-color:#39C4E2;stop-opacity:0.97"/>
					<stop  offset="1" style="stop-color:#007A68"/>
				</linearGradient>
				<path style="fill:url(#SVGID_00000108276968063307670350000006397910241591493292_);" d="M634.631,390.473l-111.596,4.101
					c-1.927,0.071-3.547-1.434-3.618-3.361l-2.18-59.311c-0.071-1.927,1.434-3.547,3.361-3.618l111.596-4.101
					c1.927-0.071,3.547,1.434,3.618,3.361l2.18,59.311C638.063,388.782,636.558,390.402,634.631,390.473z"/>
				<g>
					<polygon style="fill:#FFFFFF;" points="595.852,366.634 584.18,347.585 573.519,367.218 569.734,374.187 569.734,374.187 
						562.206,361.9 555.329,374.563 548.452,387.227 562.857,386.851 577.263,386.474 585.191,386.267 607.524,385.684 					"/>
					<path style="fill:#FFFFFF;" d="M576.469,342.757c0.12,4.613-3.521,8.45-8.134,8.57c-4.613,0.121-8.45-3.521-8.57-8.134
						c-0.12-4.613,3.521-8.45,8.134-8.57C572.511,334.503,576.348,338.144,576.469,342.757z"/>
				</g>
			</g>
			<g>
				<path style="fill:none;stroke:#FFFFFF;stroke-miterlimit:10;stroke-dasharray:7.0778,7.0778;" d="M386.741,179.159v107.235
					c0,2.194,1.778,3.972,3.972,3.972h149.263c2.194,0,3.972-1.778,3.972-3.972V179.159c0-2.194-1.778-3.972-3.972-3.972H390.713
					C388.519,175.188,386.741,176.966,386.741,179.159z"/>
			</g>
			<g>
				<path style="fill:none;stroke:#FFFFFF;stroke-miterlimit:10;stroke-dasharray:7.0778,7.0778;" d="M203.82,179.159v107.235
					c0,2.194,1.778,3.972,3.972,3.972h149.263c2.194,0,3.972-1.778,3.972-3.972V179.159c0-2.194-1.778-3.972-3.972-3.972H207.792
					C205.598,175.188,203.82,176.966,203.82,179.159z"/>
			</g>
			
				<linearGradient id="SVGID_00000055682105940372978060000014764121539598959549_" gradientUnits="userSpaceOnUse" x1="464.2175" y1="282.6234" x2="483.1085" y2="161.7922">
				<stop  offset="0" style="stop-color:#E97FB3"/>
				<stop  offset="0.212" style="stop-color:#AD97C6"/>
				<stop  offset="0.4946" style="stop-color:#64B4DE"/>
				<stop  offset="0.7295" style="stop-color:#2ECAEF"/>
				<stop  offset="0.9045" style="stop-color:#0DD7FA"/>
				<stop  offset="1" style="stop-color:#00DCFE"/>
			</linearGradient>
			<path style="opacity:0.57;fill:url(#SVGID_00000055682105940372978060000014764121539598959549_);" d="M542.14,295.934
				l-155.152-22.041c-1.909-0.271-3.237-2.039-2.966-3.948l13.031-91.734c0.271-1.909,2.039-3.237,3.948-2.966l155.153,22.04
				c1.909,0.271,3.237,2.039,2.966,3.948l-13.031,91.734C545.817,294.877,544.049,296.205,542.14,295.934z"/>
			
				<linearGradient id="SVGID_00000126319844773985913700000014400831978102955692_" gradientUnits="userSpaceOnUse" x1="362.0802" y1="-239.1475" x2="354.2866" y2="-210.1322" gradientTransform="matrix(0.9658 -0.2594 0.2594 0.9658 236.245 600.2611)">
				<stop  offset="0" style="stop-color:#FFD1C1"/>
				<stop  offset="0.3861" style="stop-color:#FFCFBF"/>
				<stop  offset="0.5877" style="stop-color:#FFC9B7"/>
				<stop  offset="0.7467" style="stop-color:#FFBDA9"/>
				<stop  offset="0.8825" style="stop-color:#FFAE97"/>
				<stop  offset="1" style="stop-color:#FF9A7F"/>
			</linearGradient>
			<path style="fill:url(#SVGID_00000126319844773985913700000014400831978102955692_);" d="M509.173,275.369
				c0,0,0.205,4.117,2.389,7.032c2.184,2.915,4.831,4.205,6.853,7.263c1.589,2.403,17.839,20.535,20.086,14.543
				c0.294-0.785,0.07-1.661-0.189-2.459c-2.426-7.469-9.437-11.082-15.478-15.372l-2.281-1.788c0,0-0.729-4.206-3.093-6.672
				L509.173,275.369z"/>
			<g>
				<g>
					<g>
						
							<linearGradient id="SVGID_00000122714625041191305570000003455137653084741288_" gradientUnits="userSpaceOnUse" x1="-2927.3271" y1="5950.3843" x2="-2927.3271" y2="5977.3818" gradientTransform="matrix(-0.5583 -0.8296 -0.8296 0.5583 3860.8677 -5533.7305)">
							<stop  offset="0" style="stop-color:#FFD1C1"/>
							<stop  offset="0.3861" style="stop-color:#FFCFBF"/>
							<stop  offset="0.5877" style="stop-color:#FFC9B7"/>
							<stop  offset="0.7467" style="stop-color:#FFBDA9"/>
							<stop  offset="0.8825" style="stop-color:#FFAE97"/>
							<stop  offset="1" style="stop-color:#FF9A7F"/>
						</linearGradient>
						<path style="fill:url(#SVGID_00000122714625041191305570000003455137653084741288_);" d="M549.735,224.956
							c0.001,0.453,0.004,0.879,0.005,1.319c1.725,0.171,3.46,0.242,5.189,0.25c-0.102-0.581-0.177-1.01-0.215-1.23l0.369-1.053
							c0.343-0.749,0.686-1.497,1.03-2.245c0.221-0.481,0.442-0.963,0.662-1.444c0.277-0.603,0.365-1.212,0.779-1.762
							c0.361-0.479,0.805-0.891,1.21-1.333c0.066-0.072,0.135-0.153,0.141-0.252c0.009-0.139-0.104-0.261-0.209-0.364
							c-0.241-0.237-0.506-0.486-0.835-0.548c-0.186-0.035-0.373-0.006-0.556,0.023c-0.277,0.044-0.568,0.093-0.814,0.22
							c-0.254,0.131-0.317,0.318-0.49,0.51c-0.285,0.316-0.738,0.55-1.082,0.813c0.063-0.048-0.21-0.91-0.229-0.995
							c-0.097-0.431-0.204-0.825-0.454-1.211c-0.024-0.037-0.052-0.076-0.094-0.089c-0.042-0.014-0.086,0.002-0.127,0.012
							c-0.179,0.042-0.357-0.04-0.535-0.028c-0.184,0.012-0.327,0.143-0.507,0.17c-0.192,0.029-0.386-0.063-0.573-0.105
							c-0.318-0.071-0.617-0.003-0.916,0.077c-0.156,0.042-0.275,0.083-0.441,0.044c-0.158-0.037-0.306-0.119-0.471-0.112
							c-0.223,0.01-0.325,0.223-0.467,0.357c-0.194,0.181-0.372,0.062-0.605,0.097c-0.228,0.035-0.326,0.285-0.386,0.501
							c-0.227,0.823-0.729,1.848-0.734,2.704c-0.004,0.784,0.432,1.782,0.622,2.559c0.254,1.039,0.508,2.078,0.762,3.117
							L549.735,224.956z"/>
						
							<linearGradient id="SVGID_00000073699969825232932720000009331222117845121434_" gradientUnits="userSpaceOnUse" x1="580.1743" y1="241.9521" x2="590.1546" y2="239.9323" gradientTransform="matrix(0.9976 0.0686 -0.0686 0.9976 -15.4891 -43.7751)">
							<stop  offset="0" style="stop-color:#FFD1C1"/>
							<stop  offset="0.3861" style="stop-color:#FFCFBF"/>
							<stop  offset="0.5877" style="stop-color:#FFC9B7"/>
							<stop  offset="0.7467" style="stop-color:#FFBDA9"/>
							<stop  offset="0.8825" style="stop-color:#FFAE97"/>
							<stop  offset="1" style="stop-color:#FF9A7F"/>
						</linearGradient>
						<path style="fill:url(#SVGID_00000073699969825232932720000009331222117845121434_);" d="M551.024,247.829
							c-0.509-0.302-0.962-0.679-1.285-1.163c-0.609-0.912-0.649-2.035-0.659-3.09c-0.041-4.051,0.045-8.095,0.258-12.125
							c0.106-2.013,0.161-4.76,0.361-6.76l5.133-0.036c0,0,0.589,12.616,1.555,19.153c0.179,1.21,0.332,2.542-0.354,3.512
							c-1.026,1.45-1.993,1.763-3.771,1.091C551.841,248.251,551.416,248.062,551.024,247.829z"/>
					</g>
				</g>
				
					<linearGradient id="SVGID_00000165192599964506317330000013430507040502231208_" gradientUnits="userSpaceOnUse" x1="584.6063" y1="263.8515" x2="594.5873" y2="261.8315" gradientTransform="matrix(0.9976 0.0686 -0.0686 0.9976 -15.4891 -43.7751)">
					<stop  offset="0" style="stop-color:#FFD1C1"/>
					<stop  offset="0.3861" style="stop-color:#FFCFBF"/>
					<stop  offset="0.5877" style="stop-color:#FFC9B7"/>
					<stop  offset="0.7467" style="stop-color:#FFBDA9"/>
					<stop  offset="0.8825" style="stop-color:#FFAE97"/>
					<stop  offset="1" style="stop-color:#FF9A7F"/>
				</linearGradient>
				<path style="fill:url(#SVGID_00000165192599964506317330000013430507040502231208_);" d="M549.352,245.24
					c-0.587,1.18-0.434,2.67-0.203,4.231c0.561,3.798,1.062,7.601,1.581,11.402c0.231,1.693,0.464,3.386,0.714,5.078
					c0.51,3.454,1.196,8.538,5.839,8.542c1.057,0.001,2.246-0.996,2.755-1.811c0.383-0.612,0.544-1.396,0.576-2.251
					c0.069-1.816-0.44-3.959-0.631-5.49c-0.394-3.144-0.845-6.286-1.394-9.418c-0.352-2.012-0.731-4.023-1.206-6.019
					c-0.391-1.644-0.717-3.749-1.762-5.163c-1.115-1.508-3.165-1.391-4.578-0.696C550.198,244.062,549.668,244.606,549.352,245.24z"
					/>
				<path style="fill:#FFFFFF;" d="M549.436,258.219c0.626,5.446,0.691,18.389,7.055,18.809c7.041,0.464,4.942-19.77,4.942-19.77
					L549.436,258.219z"/>
			</g>
			<g>
				<path style="fill:#FFFFFF;" d="M542.744,287.928l-155.152-22.04c-1.909-0.271-3.237-2.039-2.966-3.948l13.031-91.734
					c0.271-1.909,2.039-3.237,3.948-2.966l155.153,22.04c1.909,0.271,3.237,2.039,2.966,3.948l-13.031,91.734
					C546.421,286.872,544.653,288.2,542.744,287.928z"/>
				
					<linearGradient id="SVGID_00000131363263136865291800000014382246651143138202_" gradientUnits="userSpaceOnUse" x1="391.6628" y1="227.6586" x2="553.7322" y2="227.6586">
					<stop  offset="0" style="stop-color:#39C4E2;stop-opacity:0.97"/>
					<stop  offset="1" style="stop-color:#007A68"/>
				</linearGradient>
				<path style="fill:url(#SVGID_00000131363263136865291800000014382246651143138202_);" d="M538.74,280.098l-144.076-20.467
					c-1.909-0.271-3.237-2.039-2.966-3.948l11.009-77.498c0.271-1.909,2.039-3.237,3.948-2.966l144.076,20.467
					c1.909,0.271,3.237,2.039,2.966,3.948l-11.009,77.497C542.417,279.041,540.649,280.369,538.74,280.098z"/>
				<g>
					<polygon style="fill:#FFFFFF;" points="494.118,240.985 483.685,214.232 465.733,236.644 459.361,244.6 459.361,244.6 
						452.631,227.345 441.052,241.801 429.474,256.257 447.782,259.056 466.091,261.856 476.167,263.397 504.552,267.737 					"/>
					<path style="fill:#FFFFFF;" d="M475.027,206.372c-0.897,5.863-6.376,9.888-12.238,8.992c-5.862-0.896-9.888-6.376-8.992-12.238
						c0.896-5.863,6.376-9.889,12.238-8.992C471.897,195.03,475.923,200.51,475.027,206.372z"/>
				</g>
			</g>
			<rect x="539.115" y="281.676" style="fill:#F2F2F2;" width="9.169" height="2.315"/>
			<rect x="541.432" y="284.762" style="fill:#F2F2F2;" width="6.852" height="2.313"/>
			<rect x="543.703" y="287.843" style="fill:#F2F2F2;" width="4.581" height="2.311"/>
			<rect x="545.996" y="290.927" style="fill:#F2F2F2;" width="2.288" height="2.313"/>
			
				<linearGradient id="SVGID_00000093146003728665805600000002714874794717364911_" gradientUnits="userSpaceOnUse" x1="-2753.1853" y1="295.6766" x2="-2753.1853" y2="347.2733" gradientTransform="matrix(1 0 0 1 3303.4189 0)">
				<stop  offset="0" style="stop-color:#071786"/>
				<stop  offset="0.1509" style="stop-color:#05136B"/>
				<stop  offset="0.3236" style="stop-color:#041055"/>
				<stop  offset="0.5107" style="stop-color:#030E45"/>
				<stop  offset="0.7204" style="stop-color:#020C3B"/>
				<stop  offset="1" style="stop-color:#020C38"/>
			</linearGradient>
			<path style="fill:url(#SVGID_00000093146003728665805600000002714874794717364911_);" d="M541.852,345.313
				c-1.933-7.397-2.24-15.206-2.363-22.817c-0.061-3.781,1.844-17.614,2.057-21.394c0.403-7.157,1.885-5.789,10.421-3.967
				c1.08,0.23,2.103,0.671,3.015,1.294c10.731,7.329,4.373,24.129,1.469,33.597c-1.261,4.112-3.018,9.024-4.535,13.049
				C546.401,349.879,541.852,345.313,541.852,345.313z"/>
			<g>
				
					<linearGradient id="SVGID_00000075158348271102913520000010483185588676191666_" gradientUnits="userSpaceOnUse" x1="-2717.9182" y1="898.2275" x2="-2720.2769" y2="875.932" gradientTransform="matrix(0.9945 0.1052 -0.1052 0.9945 3341.0481 -204.2207)">
					<stop  offset="0" style="stop-color:#FFD1C1"/>
					<stop  offset="0.3861" style="stop-color:#FFCFBF"/>
					<stop  offset="0.5877" style="stop-color:#FFC9B7"/>
					<stop  offset="0.7467" style="stop-color:#FFBDA9"/>
					<stop  offset="0.8825" style="stop-color:#FFAE97"/>
					<stop  offset="1" style="stop-color:#FF9A7F"/>
				</linearGradient>
				<path style="fill:url(#SVGID_00000075158348271102913520000010483185588676191666_);" d="M556.792,395.069
					c-0.138-0.624-0.47-1.228-0.749-1.819c-0.079-0.168-0.741-1.82-0.766-2.011c-0.359-2.778-0.56-10.518-0.56-10.518l-7.707,0.593
					c0,0,1.701,6.566,0.971,10.582l0.009,0c-3.233,2.196-9.08,5.27-9.08,5.27s-6.768,1.737-7.114,1.926
					c-0.346,0.189-1.218,0.514-2.153,1.547c0,0-0.642,1.847,8.061,2.426c0,0,3.784,0.486,9.649-0.985
					c1.278-0.228,2.556-0.457,3.835-0.685c1.312-0.234,5.275-0.72,5.758-1.15c0.187-0.166,0.309-0.329,0.386-0.496
					C557.92,398.475,557.078,396.366,556.792,395.069z"/>
				
					<linearGradient id="SVGID_00000132781453036410685090000000040341790212063379_" gradientUnits="userSpaceOnUse" x1="-2732.0483" y1="892.9621" x2="-2704.4949" y2="892.9621" gradientTransform="matrix(0.9945 0.1052 -0.1052 0.9945 3341.0481 -204.2207)">
					<stop  offset="0" style="stop-color:#071786"/>
					<stop  offset="0.1509" style="stop-color:#05136B"/>
					<stop  offset="0.3236" style="stop-color:#041055"/>
					<stop  offset="0.5107" style="stop-color:#030E45"/>
					<stop  offset="0.7204" style="stop-color:#020C3B"/>
					<stop  offset="1" style="stop-color:#020C38"/>
				</linearGradient>
				<path style="fill:url(#SVGID_00000132781453036410685090000000040341790212063379_);" d="M556.06,393.285
					c-1.923,0.483-4.04,0.552-5.798,0.489c-1.256-0.045-2.682-0.285-3.947-0.799c-3.243,2.003-7.404,4.19-7.404,4.19
					s-6.768,1.737-7.114,1.926c-0.347,0.189-1.218,0.514-2.154,1.547c0,0-0.642,1.847,8.061,2.426c0,0,3.784,0.486,9.649-0.985
					c1.278-0.228,2.556-0.457,3.835-0.685c1.312-0.234,5.275-0.72,5.758-1.15c0.187-0.166,0.309-0.329,0.386-0.496
					c0.587-1.274-0.255-3.383-0.541-4.68C556.657,394.458,556.336,393.865,556.06,393.285z"/>
				
					<linearGradient id="SVGID_00000179614111698873453190000011980891511872194201_" gradientUnits="userSpaceOnUse" x1="-2714.8726" y1="879.4748" x2="-2719.5271" y2="835.4742" gradientTransform="matrix(0.9945 0.1052 -0.1052 0.9945 3341.0481 -204.2207)">
					<stop  offset="0" style="stop-color:#071786"/>
					<stop  offset="0.1509" style="stop-color:#05136B"/>
					<stop  offset="0.3236" style="stop-color:#041055"/>
					<stop  offset="0.5107" style="stop-color:#030E45"/>
					<stop  offset="0.7204" style="stop-color:#020C3B"/>
					<stop  offset="1" style="stop-color:#020C38"/>
				</linearGradient>
				<path style="fill:url(#SVGID_00000179614111698873453190000011980891511872194201_);" d="M554.92,384.447
					c0.701-9.171,1.195-29.241-3.359-40.278c-0.716-1.735-2.636-3.524-4.598-3.601c-1.516-0.06-3.687,0.704-4.518,2.057
					c-0.686,1.118-0.717,4.688-0.583,5.921c0.377,3.494,3.552,25.75,5.06,36.266L554.92,384.447z"/>
			</g>
			
				<linearGradient id="SVGID_00000162350700194083741190000003100707266398958759_" gradientUnits="userSpaceOnUse" x1="-2760.7048" y1="306.2292" x2="-2760.7048" y2="358.4068" gradientTransform="matrix(1 0 0 1 3303.4189 0)">
				<stop  offset="0" style="stop-color:#071786"/>
				<stop  offset="0.1509" style="stop-color:#05136B"/>
				<stop  offset="0.3236" style="stop-color:#041055"/>
				<stop  offset="0.5107" style="stop-color:#030E45"/>
				<stop  offset="0.7204" style="stop-color:#020C3B"/>
				<stop  offset="1" style="stop-color:#020C38"/>
			</linearGradient>
			<path style="fill:url(#SVGID_00000162350700194083741190000003100707266398958759_);" d="M532.571,306.229h16.582
				c0.021,0.036,0.047,0.069,0.066,0.105l0.018-0.105h11.519l0.018,0.017c0.849,5.717-0.133,9.752-0.133,9.752
				c-1.647,7.376-10.772,10.264-13.889,11.045c-1.766,3.6-3.776,6.938-5.3,9.645c-2.11,3.747-4.304,7.46-6.645,11.069
				c-6.413,3.515-10.454-1.206-10.454-1.206c-0.308-7.64,1.06-15.334,2.565-22.796C527.526,320.738,530.818,311.526,532.571,306.229
				z"/>
			<g>
				
					<linearGradient id="SVGID_00000106122194455465996960000017703784968593537718_" gradientUnits="userSpaceOnUse" x1="-2783.2136" y1="403.1416" x2="-2783.2136" y2="382.1186" gradientTransform="matrix(1 0 0 1 3303.4189 0)">
					<stop  offset="0" style="stop-color:#FFD1C1"/>
					<stop  offset="0.3861" style="stop-color:#FFCFBF"/>
					<stop  offset="0.5877" style="stop-color:#FFC9B7"/>
					<stop  offset="0.7467" style="stop-color:#FFBDA9"/>
					<stop  offset="0.8825" style="stop-color:#FFAE97"/>
					<stop  offset="1" style="stop-color:#FF9A7F"/>
				</linearGradient>
				<path style="fill:url(#SVGID_00000106122194455465996960000017703784968593537718_);" d="M533.828,396.864
					c-0.068-0.635-0.332-1.272-0.545-1.891c-0.06-0.176-0.537-1.891-0.541-2.083c-0.052-2.801,0.597-10.516,0.597-10.516
					l-7.725-0.256c0,0,0.97,6.713-0.195,10.625l0.009,0.001c-3.455,1.829-9.603,4.242-9.603,4.242s-6.917,0.985-7.282,1.134
					c-0.365,0.15-1.267,0.377-2.31,1.301c0,0-0.841,1.766,7.746,3.296c0,0,3.708,0.898,9.699,0.079
					c1.295-0.087,2.591-0.174,3.887-0.261c1.33-0.089,5.322-0.137,5.85-0.511c0.204-0.145,0.343-0.293,0.438-0.45
					C534.575,400.373,533.97,398.184,533.828,396.864z"/>
				<path style="fill:#FFD9B6;" d="M529.074,382.233c0.146,0.421,0.273,0.849,0.386,1.282c0.159-0.415,0.31-0.833,0.456-1.254
					L529.074,382.233z"/>
				
					<linearGradient id="SVGID_00000002345843843688727040000003688750019176978075_" gradientUnits="userSpaceOnUse" x1="-2797.2087" y1="398.4285" x2="-2769.2188" y2="398.4285" gradientTransform="matrix(1 0 0 1 3303.4189 0)">
					<stop  offset="0" style="stop-color:#071786"/>
					<stop  offset="0.1509" style="stop-color:#05136B"/>
					<stop  offset="0.3236" style="stop-color:#041055"/>
					<stop  offset="0.5107" style="stop-color:#030E45"/>
					<stop  offset="0.7204" style="stop-color:#020C3B"/>
					<stop  offset="1" style="stop-color:#020C38"/>
				</linearGradient>
				<path style="fill:url(#SVGID_00000002345843843688727040000003688750019176978075_);" d="M533.283,394.973
					c-0.035-0.102-0.209-0.718-0.35-1.258c-0.298,0.154-0.594,0.3-0.881,0.437c-3.327,1.587-6.887,1.346-10.391,0.528
					c-0.066-0.016-0.128-0.034-0.189-0.054c-2.87,1.27-5.646,2.36-5.646,2.36s-6.917,0.985-7.282,1.135
					c-0.365,0.15-1.267,0.377-2.31,1.301c0,0-0.84,1.766,7.746,3.296c0,0,3.708,0.898,9.699,0.079
					c1.295-0.087,2.591-0.174,3.887-0.261c1.33-0.089,5.322-0.137,5.85-0.511c0.204-0.145,0.343-0.293,0.438-0.45
					c0.723-1.202,0.118-3.391-0.024-4.711C533.76,396.229,533.496,395.591,533.283,394.973z"/>
				
					<linearGradient id="SVGID_00000166670417594123415980000007954207055338408638_" gradientUnits="userSpaceOnUse" x1="-2773.4812" y1="386.1001" x2="-2773.4812" y2="343.3415" gradientTransform="matrix(1 0 0 1 3303.4189 0)">
					<stop  offset="0" style="stop-color:#071786"/>
					<stop  offset="0.1509" style="stop-color:#05136B"/>
					<stop  offset="0.3236" style="stop-color:#041055"/>
					<stop  offset="0.5107" style="stop-color:#030E45"/>
					<stop  offset="0.7204" style="stop-color:#020C3B"/>
					<stop  offset="1" style="stop-color:#020C38"/>
				</linearGradient>
				<path style="fill:url(#SVGID_00000166670417594123415980000007954207055338408638_);" d="M533.132,386.1
					c1.529-8.114,2.503-16.403,2.639-24.662c0.049-2.94-0.02-5.887-0.31-8.814c-0.292-2.946-0.05-7.191-3.171-8.684
					c-1.826-0.873-4.357-0.787-6.125,0.22c-1.716,0.977-2.07,3.008-2.075,4.822c-0.009,3.514,0.707,25.985,1.052,36.602
					C525.142,385.586,533.132,386.1,533.132,386.1z"/>
			</g>
			
				<linearGradient id="SVGID_00000060018760978895387190000016390298171381454245_" gradientUnits="userSpaceOnUse" x1="-2767.6233" y1="257.7026" x2="-2770.4143" y2="256.0913" gradientTransform="matrix(1 0 0 1 3303.4189 0)">
				<stop  offset="0" style="stop-color:#E2B691"/>
				<stop  offset="1" style="stop-color:#EF9367"/>
			</linearGradient>
			<polygon style="fill:url(#SVGID_00000060018760978895387190000016390298171381454245_);" points="534.304,253.84 
				535.424,258.345 532.828,258.991 			"/>
			
				<linearGradient id="SVGID_00000001655609549366669990000014810274719970455733_" gradientUnits="userSpaceOnUse" x1="-2752.5061" y1="264.4094" x2="-2761.9438" y2="258.9605" gradientTransform="matrix(1 0 0 1 3303.4189 0)">
				<stop  offset="0" style="stop-color:#FFD1C1"/>
				<stop  offset="0.3861" style="stop-color:#FFCFBF"/>
				<stop  offset="0.5877" style="stop-color:#FFC9B7"/>
				<stop  offset="0.7467" style="stop-color:#FFBDA9"/>
				<stop  offset="0.8825" style="stop-color:#FFAE97"/>
				<stop  offset="1" style="stop-color:#FF9A7F"/>
			</linearGradient>
			<path style="fill:url(#SVGID_00000001655609549366669990000014810274719970455733_);" d="M541.665,258.632
				c-0.028,1.44-0.313,9.908-0.313,9.908c0.869,0.985,5.086,1.342,6.866-0.163c1.416-1.197,1.565-2.273,1.565-2.273l-0.519-12.367
				L541.665,258.632z"/>
			
				<linearGradient id="SVGID_00000001624094983768225220000009681922239831056804_" gradientUnits="userSpaceOnUse" x1="-2753.7249" y1="257.9359" x2="-2771.1357" y2="247.8837" gradientTransform="matrix(1 0 0 1 3303.4189 0)">
				<stop  offset="0" style="stop-color:#FFD1C1"/>
				<stop  offset="0.3861" style="stop-color:#FFCFBF"/>
				<stop  offset="0.5877" style="stop-color:#FFC9B7"/>
				<stop  offset="0.7467" style="stop-color:#FFBDA9"/>
				<stop  offset="0.8825" style="stop-color:#FFAE97"/>
				<stop  offset="1" style="stop-color:#FF9A7F"/>
			</linearGradient>
			<path style="fill:url(#SVGID_00000001624094983768225220000009681922239831056804_);" d="M548.64,244.366l0.463,4.409
				l0.707,6.725l0.199,1.892c-4.288,7.293-11.389,8.064-13.691,5.629c-2.302-2.435-3.338-16.342-3.338-16.342L548.64,244.366z"/>
			
				<linearGradient id="SVGID_00000106838473587364670660000006880363345960594323_" gradientUnits="userSpaceOnUse" x1="5515.7295" y1="251.7833" x2="5541.9253" y2="251.7833" gradientTransform="matrix(-1 0 0 1 6069.6123 0)">
				<stop  offset="0" style="stop-color:#071786"/>
				<stop  offset="0.1509" style="stop-color:#05136B"/>
				<stop  offset="0.3236" style="stop-color:#041055"/>
				<stop  offset="0.5107" style="stop-color:#030E45"/>
				<stop  offset="0.7204" style="stop-color:#020C3B"/>
				<stop  offset="1" style="stop-color:#020C38"/>
			</linearGradient>
			<path style="fill:url(#SVGID_00000106838473587364670660000006880363345960594323_);" d="M546.706,263.68
				c0,0-5.411-11.421-7.093-12.372c-1.682-0.951-7.313,0.388-10.311-4.095c-2.959-4.425-1.17-6.728,0-6.947
				c1.17-0.219,3.359,4.123,7.239,1.536c3.949-2.633,12.004-2.633,13.242,0.512c0,0,5.04,0.512,3.943,7.386
				c-1.097,6.874-2.998,12.651-4.68,13.163L546.706,263.68z"/>
			
				<linearGradient id="SVGID_00000000202039395676622110000011520926066374465445_" gradientUnits="userSpaceOnUse" x1="-2759.2092" y1="256.0078" x2="-2763.7715" y2="253.3737" gradientTransform="matrix(1 0 0 1 3303.4189 0)">
				<stop  offset="0" style="stop-color:#FFD1C1"/>
				<stop  offset="0.3861" style="stop-color:#FFCFBF"/>
				<stop  offset="0.5877" style="stop-color:#FFC9B7"/>
				<stop  offset="0.7467" style="stop-color:#FFBDA9"/>
				<stop  offset="0.8825" style="stop-color:#FFAE97"/>
				<stop  offset="1" style="stop-color:#FF9A7F"/>
			</linearGradient>
			<path style="fill:url(#SVGID_00000000202039395676622110000011520926066374465445_);" d="M543.421,251.253
				c1.736,1.395,1.661,5.424-1.692,7.646l-1.373-6.613C540.535,251.266,542.279,250.335,543.421,251.253z"/>
			
				<linearGradient id="SVGID_00000065762161238750051890000001629706317694733236_" gradientUnits="userSpaceOnUse" x1="545.8907" y1="280.2199" x2="545.3561" y2="260.9724">
				<stop  offset="0" style="stop-color:#E7E6FF"/>
				<stop  offset="0.3393" style="stop-color:#C9D2F8"/>
				<stop  offset="0.7637" style="stop-color:#AABDF1"/>
				<stop  offset="1" style="stop-color:#9EB5EE"/>
			</linearGradient>
			<path style="fill:url(#SVGID_00000065762161238750051890000001629706317694733236_);" d="M549.226,266.355
				c-4.804,0.199-12.398,1.031-14.193,6.417c-0.957,2.87-1.091,6.007-0.788,9c0.238,2.348,0.44,4.698,0.537,7.059
				c0.164,3.987,0.381,8.479-0.997,12.297l-2.53,8.773c0,0,18.397,10.267,30.1-1.585c0,0,1.702-31.589-2.776-39.356
				c-0.544-0.945-2.052-1.461-2.996-1.772C553.497,266.501,551.362,266.267,549.226,266.355z"/>
			
				<linearGradient id="SVGID_00000167393379302558965300000011536064393130997426_" gradientUnits="userSpaceOnUse" x1="354.0976" y1="-231.3469" x2="351.2732" y2="-241.9137" gradientTransform="matrix(0.9658 -0.2594 0.2594 0.9658 236.245 600.2611)">
				<stop  offset="0" style="stop-color:#FFD1C1"/>
				<stop  offset="0.3861" style="stop-color:#FFCFBF"/>
				<stop  offset="0.5877" style="stop-color:#FFC9B7"/>
				<stop  offset="0.7467" style="stop-color:#FFBDA9"/>
				<stop  offset="0.8825" style="stop-color:#FFAE97"/>
				<stop  offset="1" style="stop-color:#FF9A7F"/>
			</linearGradient>
			<path style="fill:url(#SVGID_00000167393379302558965300000011536064393130997426_);" d="M514.086,282.673
				c0,0,0.836-0.425,0.622-1.968c-0.214-1.543-0.641-5.18-0.641-5.18s0.107-1.279,0.593-0.96c0.486,0.32,1.521,1.194,1.777,3.45
				c0,0,0.295,1.945,0.751,2.473c0.455,0.528,1.641,1.96,1.713,4.092C518.901,284.581,515.203,285.524,514.086,282.673z"/>
			<g>
				
					<linearGradient id="SVGID_00000037659676834869721770000009953638609600238724_" gradientUnits="userSpaceOnUse" x1="-3785.7065" y1="-2260.3794" x2="-3788.9485" y2="-2231.0125" gradientTransform="matrix(0.9939 -0.1097 0.1097 0.9939 4548.3027 2107.0652)">
					<stop  offset="0" style="stop-color:#FFD1C1"/>
					<stop  offset="0.3861" style="stop-color:#FFCFBF"/>
					<stop  offset="0.5877" style="stop-color:#FFC9B7"/>
					<stop  offset="0.7467" style="stop-color:#FFBDA9"/>
					<stop  offset="0.8825" style="stop-color:#FFAE97"/>
					<stop  offset="1" style="stop-color:#FF9A7F"/>
				</linearGradient>
				<path style="fill:url(#SVGID_00000037659676834869721770000009953638609600238724_);" d="M539.26,304.174
					c0.811-0.929,1.024-2.314,1.185-3.781c0.391-3.57,0.837-7.13,1.266-10.694c0.191-1.587,0.381-3.174,0.555-4.765
					c0.355-3.247,0.937-8.01-3.264-9.112c-0.956-0.251-2.268,0.37-2.922,0.988c-0.491,0.464-0.822,1.135-1.054,1.901
					c-0.492,1.627-0.539,3.687-0.727,5.118c-0.387,2.939-0.722,5.889-0.966,8.854c-0.157,1.905-0.29,3.814-0.332,5.733
					c-0.035,1.58-0.238,3.563,0.373,5.089c0.652,1.629,2.536,2.008,3.978,1.712C538.216,305.04,538.824,304.673,539.26,304.174z"/>
			</g>
			<path style="fill:#FFFFFF;" d="M544.626,286.1c-0.253-4.462,0.556-14.89-5.72-16.015c-6.944-1.245-6.23,15.303-6.23,15.303
				L544.626,286.1z"/>
			<g>
				<g>
					
						<linearGradient id="SVGID_00000049935674643080969140000012145027566058733204_" gradientUnits="userSpaceOnUse" x1="9240.707" y1="385.3344" x2="9218.0889" y2="398.393" gradientTransform="matrix(1 0 0 1 -9037.0234 0)">
						<stop  offset="0" style="stop-color:#F4F3F1"/>
						<stop  offset="1" style="stop-color:#FFB2BC"/>
					</linearGradient>
					<path style="fill:url(#SVGID_00000049935674643080969140000012145027566058733204_);" d="M181.975,394.649
						c0.094-0.671,0.395-1.339,0.642-1.988c0.07-0.184,0.634-1.988,0.644-2.192c0.15-2.97-0.279-11.178-0.279-11.178l8.206-0.01
						c0,0-1.256,7.09-0.152,11.28l-0.01,0.001c3.604,2.057,10.046,4.826,10.046,4.826s7.306,1.279,7.689,1.45
						c0.382,0.171,1.332,0.443,2.407,1.459c0,0,0.832,1.902-8.33,3.235c0,0-3.965,0.828-10.293-0.243
						c-1.372-0.136-2.744-0.272-4.115-0.408c-1.408-0.139-5.642-0.326-6.189-0.74c-0.212-0.16-0.354-0.323-0.449-0.493
						C181.063,398.347,181.779,396.046,181.975,394.649z"/>
					
						<linearGradient id="SVGID_00000013914045202767759020000005061244682099917716_" gradientUnits="userSpaceOnUse" x1="9224.1328" y1="405.039" x2="9239.5332" y2="389.639" gradientTransform="matrix(1 0 0 1 -9037.0234 0)">
						<stop  offset="0" style="stop-color:#071786"/>
						<stop  offset="0.1509" style="stop-color:#05136B"/>
						<stop  offset="0.3236" style="stop-color:#041055"/>
						<stop  offset="0.5107" style="stop-color:#030E45"/>
						<stop  offset="0.7204" style="stop-color:#020C3B"/>
						<stop  offset="1" style="stop-color:#020C38"/>
					</linearGradient>
					<path style="fill:url(#SVGID_00000013914045202767759020000005061244682099917716_);" d="M182.617,392.662
						c0.041-0.107,0.246-0.755,0.415-1.323c0.311,0.174,0.62,0.338,0.92,0.493c3.477,1.796,7.262,1.661,11.007,0.912
						c0.071-0.014,0.137-0.032,0.203-0.051c3.002,1.444,5.911,2.695,5.911,2.695s7.306,1.279,7.689,1.45
						c0.382,0.171,1.332,0.443,2.407,1.459c0,0,0.832,1.902-8.33,3.235c0,0-3.965,0.828-10.293-0.243
						c-1.372-0.136-2.744-0.272-4.115-0.408c-1.408-0.139-5.642-0.326-6.189-0.74c-0.212-0.16-0.354-0.323-0.449-0.493
						c-0.727-1.3-0.01-3.602,0.185-4.998C182.068,393.978,182.37,393.311,182.617,392.662z"/>
				</g>
				
					<linearGradient id="SVGID_00000100371796800816512880000008892920124036863380_" gradientUnits="userSpaceOnUse" x1="215.1716" y1="352.0811" x2="192.0032" y2="346.0216">
					<stop  offset="0" style="stop-color:#071786"/>
					<stop  offset="0.1509" style="stop-color:#05136B"/>
					<stop  offset="0.3236" style="stop-color:#041055"/>
					<stop  offset="0.5107" style="stop-color:#030E45"/>
					<stop  offset="0.7204" style="stop-color:#020C3B"/>
					<stop  offset="1" style="stop-color:#020C38"/>
				</linearGradient>
				<path style="fill:url(#SVGID_00000100371796800816512880000008892920124036863380_);" d="M192.973,321.839
					c-0.164-7.382-1.757-20.842-7.871-21.29c-2.284-0.167-4.583-1.005-6.7-0.132c-0.504,0.208-0.977,0.469-1.416,0.775
					c-2.393,1.667-3.806,4.661-4.136,7.618c-0.392,3.498,0.462,7.003,1.291,10.424c1.802,7.427,3.525,14.884,5.881,22.155
					c0.338,1.042,0.712,2.085,1.199,3.063c-3.355,17.866,1.861,42.976,1.861,42.976l7.623-0.792c0,0,2.518-41.487,2.646-46.61
					c0.025-1.003-0.03-1.8-0.133-2.444C193.896,332.503,193.1,327.57,192.973,321.839z"/>
			</g>
			<g>
				<g>
					<g>
						<path style="fill:#FFFFFF;" d="M208.549,293.934c-0.344,0.679-7.403-4.047-8.08-4.517
							c-2.971-2.063-21.594-19.356-12.305-22.261c1.427-0.446,2.84,0.036,3.96,0.732c5.042,3.133,18.372,16.586,18.372,16.586
							S208.55,293.933,208.549,293.934z"/>
					</g>
					
						<linearGradient id="SVGID_00000006675275591941941100000012126998197813813428_" gradientUnits="userSpaceOnUse" x1="165.4828" y1="288.2947" x2="171.2717" y2="288.2947" gradientTransform="matrix(-1 0 0 1 375.686 0)">
						<stop  offset="0" style="stop-color:#F9FBFC"/>
						<stop  offset="0.5289" style="stop-color:#F7FAFC"/>
						<stop  offset="0.7194" style="stop-color:#F0F5FD"/>
						<stop  offset="0.8552" style="stop-color:#E5ECFD"/>
						<stop  offset="0.9642" style="stop-color:#D4E0FF"/>
						<stop  offset="0.9973" style="stop-color:#CDDBFF"/>
					</linearGradient>
					<path style="fill:url(#SVGID_00000006675275591941941100000012126998197813813428_);" d="M209.809,293.591
						c0,0-3.737-7.464,0.394-10.257l-0.783-0.842c0,0-1.932,0.435-3.16,2.17c-0.648,0.915-2.814,4.896-1.344,8.803
						c0.112,0.299,3.52,0.631,3.52,0.631L209.809,293.591z"/>
				</g>
				
					<linearGradient id="SVGID_00000004540660487121372530000013084345570724305555_" gradientUnits="userSpaceOnUse" x1="169.1609" y1="275.8643" x2="156.6396" y2="275.8643" gradientTransform="matrix(-1 0 0 1 375.686 0)">
					<stop  offset="0" style="stop-color:#FACED3"/>
					<stop  offset="1" style="stop-color:#FFB2BC"/>
				</linearGradient>
				<path style="fill:url(#SVGID_00000004540660487121372530000013084345570724305555_);" d="M209.921,258.786
					c0.014,0.004,0.028,0.008,0.042,0.011c0.415,0.115,0.804,0.353,1.119,0.644c0.135,0.125,0.749,0.614,0.724,0.799
					c0.04-0.296,0.081-0.591,0.122-0.887c0.057-0.421,0.061-0.943,0.586-1.029c0.239-0.039,0.481,0.029,0.714,0.095
					c0.233,0.066,0.476,0.132,0.714,0.088c0.24-0.045,0.448-0.196,0.683-0.261c0.562-0.154,1.129,0.205,1.708,0.265
					c0.457,0.047,0.949-0.089,1.359,0.117c0.199,0.099,0.353,0.268,0.489,0.444c0.404,0.521,0.994,1.457,0.841,2.15
					c-0.003,0.015-2.679,9.373-2.679,9.373c-0.352,1.229-0.215,2.93-0.28,4.206c-0.072,1.411-0.125,2.822-0.169,4.233
					c-0.107,3.451-0.259,16.642-6.839,14.183c-1.413-0.528-2.12-2.953-2.457-4.515c-0.794-3.68,5.181-19.519,5.181-19.519
					l-0.293-3.274c0,0-0.906-3.204-0.906-3.204c-0.242-0.854-0.435-1.713-0.941-2.453c-0.216-0.316-0.429-0.672-0.392-1.053
					c0.016-0.169,0.095-0.346,0.249-0.417C209.627,258.72,209.779,258.748,209.921,258.786z"/>
			</g>
			
				<linearGradient id="SVGID_00000071561031344729375800000013151176738788166280_" gradientUnits="userSpaceOnUse" x1="9666.1172" y1="1771.6155" x2="9670.6348" y2="1771.6155" gradientTransform="matrix(0.2729 -0.9621 -0.9621 -0.2729 -717.4507 10046.1035)">
				<stop  offset="0" style="stop-color:#F4F3F1"/>
				<stop  offset="1" style="stop-color:#FFB2BC"/>
			</linearGradient>
			<path style="fill:url(#SVGID_00000071561031344729375800000013151176738788166280_);" d="M217.351,263.253
				c0,0,1.058-0.399,0.331-1.168l1.418,0.974c0,0,1.687,0.736,1.68-1.905c-0.516-0.434-1.032-0.867-1.548-1.301
				c-0.355-0.298-0.713-0.594-1.065-0.896c-0.211-0.181-0.305-0.28-0.588-0.328c-0.398-0.068-0.799-0.126-1.198-0.189
				c-0.247-0.039-0.498-0.078-0.745-0.04c-0.206,0.032-0.399,0.116-0.603,0.161c-0.457,0.1-0.931-0.008-1.398-0.035
				c-0.322-0.018-0.99-0.025-1.073,0.402c-0.097,0.5,0.878,1.048,1.22,1.335c0.531,0.445,1.062,0.89,1.593,1.336
				C216.034,262.148,216.69,262.699,217.351,263.253z"/>
			<g>
				<g>
					
						<linearGradient id="SVGID_00000088838485546963806030000007919103528052505775_" gradientUnits="userSpaceOnUse" x1="9218.2002" y1="385.7614" x2="9196.9414" y2="398.0353" gradientTransform="matrix(1 0 0 1 -9037.0234 0)">
						<stop  offset="0" style="stop-color:#F4F3F1"/>
						<stop  offset="1" style="stop-color:#FFB2BC"/>
					</linearGradient>
					<path style="fill:url(#SVGID_00000088838485546963806030000007919103528052505775_);" d="M160.405,392.675
						c0.164-0.658,0.535-1.289,0.849-1.908c0.089-0.176,0.841-1.909,0.873-2.111c0.464-2.937,0.907-11.145,0.907-11.145l8.161,0.859
						c0,0-2,6.917-1.346,11.201l-0.01-0.001c3.366,2.427,9.478,5.862,9.478,5.862s7.13,2.045,7.492,2.256
						c0.362,0.211,1.277,0.581,2.239,1.706c0,0,0.626,1.979-8.626,2.335c0,0-4.03,0.403-10.209-1.332
						c-1.35-0.28-2.699-0.561-4.049-0.841c-1.385-0.288-5.576-0.921-6.076-1.392c-0.193-0.182-0.318-0.358-0.395-0.537
						C159.107,396.256,160.063,394.043,160.405,392.675z"/>
					
						<linearGradient id="SVGID_00000053523499125589077460000002170108868544255149_" gradientUnits="userSpaceOnUse" x1="9203.0098" y1="404.0637" x2="9216.8906" y2="390.1828" gradientTransform="matrix(1 0 0 1 -9037.0234 0)">
						<stop  offset="0" style="stop-color:#071786"/>
						<stop  offset="0.1509" style="stop-color:#05136B"/>
						<stop  offset="0.3236" style="stop-color:#041055"/>
						<stop  offset="0.5107" style="stop-color:#030E45"/>
						<stop  offset="0.7204" style="stop-color:#020C3B"/>
						<stop  offset="1" style="stop-color:#020C38"/>
					</linearGradient>
					<path style="fill:url(#SVGID_00000053523499125589077460000002170108868544255149_);" d="M161.254,390.767
						c0.052-0.102,0.325-0.725,0.552-1.271c0.291,0.206,0.58,0.402,0.862,0.588c3.267,2.154,7.045,2.421,10.849,2.073
						c0.072-0.007,0.139-0.018,0.207-0.029c2.832,1.754,5.592,3.305,5.592,3.305s7.13,2.045,7.492,2.256
						c0.362,0.211,1.277,0.581,2.239,1.706c0,0,0.626,1.979-8.626,2.335c0,0-4.03,0.403-10.209-1.332
						c-1.35-0.28-2.699-0.561-4.049-0.841c-1.385-0.288-5.576-0.921-6.076-1.392c-0.193-0.182-0.318-0.358-0.395-0.537
						c-0.585-1.37,0.371-3.583,0.713-4.95C160.57,392.017,160.94,391.386,161.254,390.767z"/>
				</g>
				
					<linearGradient id="SVGID_00000012460119594235685350000016820206338627660674_" gradientUnits="userSpaceOnUse" x1="178.1638" y1="339.0369" x2="138.5996" y2="352.0468">
					<stop  offset="0" style="stop-color:#071786"/>
					<stop  offset="0.1509" style="stop-color:#05136B"/>
					<stop  offset="0.3236" style="stop-color:#041055"/>
					<stop  offset="0.5107" style="stop-color:#030E45"/>
					<stop  offset="0.7204" style="stop-color:#020C3B"/>
					<stop  offset="1" style="stop-color:#020C38"/>
				</linearGradient>
				<path style="fill:url(#SVGID_00000012460119594235685350000016820206338627660674_);" d="M180.571,310.676
					c-0.41-4.294-2.59-8.361-6.235-10.713c-2.726-1.758-6.108-2.118-8.943-0.409c-2.27,1.368-4.003,3.828-4.617,6.805
					c-0.855,4.146-0.278,8.579,0.508,12.687c0.816,4.268,1.427,8.576,2.215,12.85c0.461,2.501,1.004,4.989,1.461,7.485
					c0.117,0.64,0.253,1.315,0.424,1.988c-5.771,17.407-3.113,44.243-3.113,44.243l7.664,0.02c0,0,6.853-40.716,7.56-46.013
					c0.148-0.565,0.292-1.12,0.449-1.637c0.929-3.055,1.622-6.31,2.021-9.397C180.709,322.839,181.124,316.456,180.571,310.676z"/>
			</g>
			
				<linearGradient id="SVGID_00000127752994500268484010000016828748362339095705_" gradientUnits="userSpaceOnUse" x1="176.3822" y1="283.0542" x2="176.9168" y2="263.3611">
				<stop  offset="0" style="stop-color:#E7E6FF"/>
				<stop  offset="0.3393" style="stop-color:#C9D2F8"/>
				<stop  offset="0.7637" style="stop-color:#AABDF1"/>
				<stop  offset="1" style="stop-color:#9EB5EE"/>
			</linearGradient>
			<path style="fill:url(#SVGID_00000127752994500268484010000016828748362339095705_);" d="M158.877,309.079
				c0.957-4.648,3.823-8.751,3.556-13.565c-0.269-4.858-0.497-9.721-0.862-14.572c-0.155-2.06-0.565-4.192-0.615-6.247
				c-0.067-2.759,1.469-4.938,3.404-6.765c1.683-1.588,3.635-2.787,5.583-3.961c0.077-0.047,0.155-0.093,0.232-0.14
				c0.751-0.452,1.507-0.907,2.318-1.211c3.405-1.279,7.958-1.056,11.112,0.78c2.017,1.174,4.033,2.348,6.05,3.522
				c2.143,1.248,3.433,3.736,3.31,6.388c-0.266,5.761-0.567,11.521-0.968,17.272c-0.21,3.008-0.803,5.901-0.517,8.929
				c0.372,3.946,1.756,8.299,0.68,12.242c-0.53,1.942-1.962,2.463-3.649,2.794c-4.361,0.855-8.702,2.012-13.124,2.439
				c-4.314,0.417-8.661-0.438-12.762-1.873C160.032,314.204,158.327,311.75,158.877,309.079z"/>
			<g>
				
					<linearGradient id="SVGID_00000024701460353238447820000015809243520489460100_" gradientUnits="userSpaceOnUse" x1="190.4305" y1="273.191" x2="195.5585" y2="273.191" gradientTransform="matrix(-1 0 0 1 375.686 0)">
					<stop  offset="0" style="stop-color:#071786"/>
					<stop  offset="0.1509" style="stop-color:#05136B"/>
					<stop  offset="0.3236" style="stop-color:#041055"/>
					<stop  offset="0.5107" style="stop-color:#030E45"/>
					<stop  offset="0.7204" style="stop-color:#020C3B"/>
					<stop  offset="1" style="stop-color:#020C38"/>
				</linearGradient>
				<polygon style="fill:url(#SVGID_00000024701460353238447820000015809243520489460100_);" points="185.255,269.795 
					183.855,276.587 180.128,270.444 182.382,270.096 183.104,271.554 183.104,270.067 				"/>
				
					<linearGradient id="SVGID_00000008830202072044172140000012410100706399789493_" gradientUnits="userSpaceOnUse" x1="185.4765" y1="290.2401" x2="192.8279" y2="290.2401" gradientTransform="matrix(-1 0 0 1 375.686 0)">
					<stop  offset="0" style="stop-color:#071786"/>
					<stop  offset="0.1509" style="stop-color:#05136B"/>
					<stop  offset="0.3236" style="stop-color:#041055"/>
					<stop  offset="0.5107" style="stop-color:#030E45"/>
					<stop  offset="0.7204" style="stop-color:#020C3B"/>
					<stop  offset="1" style="stop-color:#020C38"/>
				</linearGradient>
				<polygon style="fill:url(#SVGID_00000008830202072044172140000012410100706399789493_);" points="184.052,274.656 
					182.858,274.772 183.99,302.857 187.666,305.824 190.21,301.86 				"/>
			</g>
			<g>
				
					<linearGradient id="SVGID_00000068661020824899081440000012829346368148539528_" gradientUnits="userSpaceOnUse" x1="197.6507" y1="270.1944" x2="206.742" y2="270.1944" gradientTransform="matrix(-0.9779 0.2089 0.2089 0.9779 320.0381 -42.1422)">
					<stop  offset="0" style="stop-color:#F4F3F1"/>
					<stop  offset="1" style="stop-color:#FFB2BC"/>
				</linearGradient>
				<path style="fill:url(#SVGID_00000068661020824899081440000012829346368148539528_);" d="M172.634,257.431l1.18,4.002
					c0,0,8.878,9.745,9.29,10.12c0.475,0.433-0.269-5.66,0.378-6.135l-1.873-9.491L172.634,257.431z"/>
				
					<linearGradient id="SVGID_00000135663373049268604170000001907673775050094243_" gradientUnits="userSpaceOnUse" x1="-519.7402" y1="1050.4191" x2="-503.0576" y2="1050.4191" gradientTransform="matrix(-0.9325 0.3612 0.3612 0.9325 -675.6598 -540.4485)">
					<stop  offset="0" style="stop-color:#F4F3F1"/>
					<stop  offset="1" style="stop-color:#FFB2BC"/>
				</linearGradient>
				<path style="fill:url(#SVGID_00000135663373049268604170000001907673775050094243_);" d="M171.669,247.464l2.027,10.898
					l0.132,1.519c4.486,5.086,10.192,4.61,11.632,2.343c1.44-2.267,0.526-17.143,0.526-17.143L171.669,247.464z"/>
				<polygon style="fill:#FFB5BE;" points="184.428,253.526 184.243,258.286 186.961,258.392 				"/>
				
					<linearGradient id="SVGID_00000171679772327859457490000005754187965889942669_" gradientUnits="userSpaceOnUse" x1="173.6975" y1="233.8348" x2="179.5193" y2="251.3001">
					<stop  offset="0" style="stop-color:#071786"/>
					<stop  offset="0.1509" style="stop-color:#05136B"/>
					<stop  offset="0.3236" style="stop-color:#041055"/>
					<stop  offset="0.5107" style="stop-color:#030E45"/>
					<stop  offset="0.7204" style="stop-color:#020C3B"/>
					<stop  offset="1" style="stop-color:#020C38"/>
				</linearGradient>
				<path style="fill:url(#SVGID_00000171679772327859457490000005754187965889942669_);" d="M176.359,247.548
					c0,0,0.255,1.689-0.945,4.319c-1.201,2.63,0.329,6.952,0.329,6.952l-3.799-4.409l1.48,7.883
					c-2.461-3.839-4.814-8.018-6.18-12.382c-0.791-2.525-0.797-5.955,2.138-7.012c0.689-0.248,2.134-0.593,2.134-0.593
					s0.253-0.314,0.376-0.438c0.5-0.506,1.138-0.875,1.785-1.159c2.941-1.293,6.485-1.06,9.579-0.628
					c10.096,1.407,2.967,8.189,2.967,8.189l-0.358-2.187C185.865,246.082,180.83,250.57,176.359,247.548z"/>
				
					<linearGradient id="SVGID_00000098912561812126108680000017208820106230958468_" gradientUnits="userSpaceOnUse" x1="-504.8861" y1="1048.6603" x2="-501.6699" y2="1048.6603" gradientTransform="matrix(-0.9325 0.3612 0.3612 0.9325 -675.6598 -540.4485)">
					<stop  offset="0" style="stop-color:#F4F3F1"/>
					<stop  offset="1" style="stop-color:#FFB2BC"/>
				</linearGradient>
				<path style="fill:url(#SVGID_00000098912561812126108680000017208820106230958468_);" d="M170.856,253.274
					c-0.939,1.365-0.024,4.221,2.84,5.088l-0.435-5.007C172.915,252.666,171.474,252.376,170.856,253.274z"/>
			</g>
			<g>
				<g>
					<g>
						<g>
							
								<linearGradient id="SVGID_00000130635673899855295990000012159990963335206071_" gradientUnits="userSpaceOnUse" x1="8555.7998" y1="271.5538" x2="8555.7998" y2="264.8762" gradientTransform="matrix(1 0 0 1 -8371.5596 0)">
								<stop  offset="0" style="stop-color:#E7E6FF"/>
								<stop  offset="0.3393" style="stop-color:#C9D2F8"/>
								<stop  offset="0.7637" style="stop-color:#AABDF1"/>
								<stop  offset="1" style="stop-color:#9EB5EE"/>
							</linearGradient>
							<path style="fill:url(#SVGID_00000130635673899855295990000012159990963335206071_);" d="M183.104,271.554l2.295-1.8
								l-2.063-4.878C183.336,264.876,182.994,271.441,183.104,271.554z"/>
							
								<linearGradient id="SVGID_00000119827849239907291580000014299859126748496014_" gradientUnits="userSpaceOnUse" x1="8557.8428" y1="270.4955" x2="8557.8428" y2="264.435" gradientTransform="matrix(1 0 0 1 -8371.5596 0)">
								<stop  offset="0" style="stop-color:#F9FBFC"/>
								<stop  offset="0.9973" style="stop-color:#CDDBFF"/>
							</linearGradient>
							<polygon style="fill:url(#SVGID_00000119827849239907291580000014299859126748496014_);" points="183.336,264.876 
								185.399,269.754 189.23,270.496 183.336,264.435 							"/>
						</g>
						
							<linearGradient id="SVGID_00000065790585122825296710000013983040234557083044_" gradientUnits="userSpaceOnUse" x1="8548.4414" y1="272.5334" x2="8548.4414" y2="261.4337" gradientTransform="matrix(1 0 0 1 -8371.5596 0)">
							<stop  offset="0" style="stop-color:#F9FBFC"/>
							<stop  offset="0.3069" style="stop-color:#F0F5FD"/>
							<stop  offset="0.8031" style="stop-color:#D8E3FE"/>
							<stop  offset="0.9973" style="stop-color:#CDDBFF"/>
						</linearGradient>
						<polygon style="fill:url(#SVGID_00000065790585122825296710000013983040234557083044_);" points="171.83,262.984 
							177.985,272.533 181.934,269.194 173.814,261.434 						"/>
					</g>
					
						<linearGradient id="SVGID_00000170983377911418163220000011378965579311354014_" gradientUnits="userSpaceOnUse" x1="8553.4648" y1="271.5538" x2="8553.4648" y2="269.1936" gradientTransform="matrix(1 0 0 1 -8371.5596 0)">
						<stop  offset="0" style="stop-color:#E7E6FF"/>
						<stop  offset="0.3393" style="stop-color:#C9D2F8"/>
						<stop  offset="0.7637" style="stop-color:#AABDF1"/>
						<stop  offset="1" style="stop-color:#9EB5EE"/>
					</linearGradient>
					<polygon style="fill:url(#SVGID_00000170983377911418163220000011378965579311354014_);" points="181.934,269.194 
						183.104,271.554 180.708,270.185 					"/>
				</g>
			</g>
			<g>
				<path style="fill:#FFFFFF;" d="M349.95,381.819l-155.153-22.041c-1.909-0.271-3.237-2.039-2.966-3.948l13.032-91.734
					c0.271-1.909,2.039-3.237,3.948-2.966l155.153,22.04c1.909,0.271,3.237,2.039,2.966,3.948l-13.032,91.734
					C353.627,380.763,351.859,382.09,349.95,381.819z"/>
				
					<linearGradient id="SVGID_00000150095855614816978640000012145454855993780615_" gradientUnits="userSpaceOnUse" x1="198.869" y1="321.5493" x2="360.9385" y2="321.5493">
					<stop  offset="0" style="stop-color:#39C4E2;stop-opacity:0.97"/>
					<stop  offset="1" style="stop-color:#007A68"/>
				</linearGradient>
				<path style="fill:url(#SVGID_00000150095855614816978640000012145454855993780615_);" d="M345.946,373.989L201.87,353.522
					c-1.909-0.271-3.237-2.039-2.966-3.948l11.009-77.497c0.271-1.909,2.039-3.237,3.948-2.966l144.076,20.467
					c1.909,0.271,3.237,2.039,2.966,3.948l-11.009,77.497C349.623,372.932,347.855,374.26,345.946,373.989z"/>
				<g>
					<polygon style="fill:#FFFFFF;" points="301.324,334.875 290.891,308.123 272.94,330.535 266.567,338.491 266.567,338.491 
						259.837,321.235 248.259,335.691 236.68,350.147 254.988,352.947 273.297,355.746 283.373,357.287 311.758,361.628 					"/>
					<path style="fill:#FFFFFF;" d="M282.233,300.263c-0.896,5.863-6.376,9.888-12.238,8.992c-5.863-0.897-9.888-6.376-8.992-12.238
						c0.897-5.863,6.376-9.888,12.238-8.992C279.103,288.921,283.129,294.4,282.233,300.263z"/>
				</g>
			</g>
			<g>
				<g>
					<g>
						<g>
							<path style="fill:#FFFFFF;" d="M182.486,301.805c-0.576,0.628-9.065-7.64-9.734-8.284
								c-2.939-2.828-18.781-23.359-7.19-24.256c1.781-0.138,3.306,0.688,4.435,1.669c5.082,4.416,17.191,21.471,17.191,21.471
								S182.487,301.804,182.486,301.805z"/>
						</g>
						
							<linearGradient id="SVGID_00000036931968813086778190000003213495815326304439_" gradientUnits="userSpaceOnUse" x1="186.9554" y1="296.6199" x2="196.4205" y2="296.6199" gradientTransform="matrix(-1 0 0 1 375.686 0)">
							<stop  offset="0" style="stop-color:#F9FBFC"/>
							<stop  offset="0.3069" style="stop-color:#F0F5FD"/>
							<stop  offset="0.8031" style="stop-color:#D8E3FE"/>
							<stop  offset="0.9973" style="stop-color:#CDDBFF"/>
						</linearGradient>
						<polygon style="fill:url(#SVGID_00000036931968813086778190000003213495815326304439_);" points="184.014,301.622 
							187.734,299.707 188.462,299.028 188.731,298.219 188.273,294.738 187.813,291.292 182.692,291.796 179.266,295.367 
							179.266,299.835 182.311,301.948 						"/>
					</g>
				</g>
				
					<linearGradient id="SVGID_00000000193551957970356520000012924369015292073357_" gradientUnits="userSpaceOnUse" x1="176.9998" y1="274.4173" x2="170.9446" y2="300.2625" gradientTransform="matrix(-1 0 0 1 375.686 0)">
					<stop  offset="0" style="stop-color:#F4F3F1"/>
					<stop  offset="1" style="stop-color:#FFB2BC"/>
				</linearGradient>
				<path style="fill:url(#SVGID_00000000193551957970356520000012924369015292073357_);" d="M223.113,295.152
					c0.188-0.697-0.376-1.143-0.374-1.831c0.002-0.503,0.378-0.817,0.68-1.164c0.478-0.55,0.039-0.98-0.194-1.628
					c-0.052-0.145,0.808-0.955,0.905-1.069c0.315-0.372,0.747-0.656,0.996-1.082c0.234-0.399,0.008-0.977-0.361-1.213
					c-0.356-0.228-0.698-0.07-1.058,0.047c-0.825,0.268-1.65,0.536-2.475,0.804c-0.305,0.099-0.642,0.173-0.922,0.328
					c-0.229,0.127-0.461,0.178-0.662-0.068c-0.148-0.181-0.171-0.44-0.11-0.666c0.062-0.225,0.198-0.423,0.345-0.604
					c0.147-0.182,0.308-0.354,0.431-0.552c0.324-0.523,0.348-1.219,0.061-1.764c-0.075-0.141-0.178-0.28-0.329-0.332
					c-0.208-0.072-0.444,0.048-0.572,0.227c-0.17,0.236-0.203,0.556-0.314,0.822c-0.225,0.537-0.57,1.017-0.962,1.444
					c0,0-1.569,1.306-1.569,1.306l-2.462,2.048l-2.812,1.427c0,0-24.779-0.474-27.722,1.618c-1.25,0.888-3.097,2.46-2.914,4.128
					c0.79,7.2,18.71,2.081,20.015,1.675c1.18-0.367,10.221-2.086,11.494-2.136c0,0,9.691-0.381,9.706-0.382
					C222.561,296.465,222.972,295.675,223.113,295.152z"/>
			</g>
			
				<linearGradient id="SVGID_00000021800629689541444880000002398465238622802081_" gradientUnits="userSpaceOnUse" x1="187.8734" y1="296.2724" x2="197.3193" y2="296.2724" gradientTransform="matrix(-1 0 0 1 375.686 0)">
				<stop  offset="0" style="stop-color:#F9FBFC"/>
				<stop  offset="0.3069" style="stop-color:#F0F5FD"/>
				<stop  offset="0.8031" style="stop-color:#D8E3FE"/>
				<stop  offset="0.9973" style="stop-color:#CDDBFF"/>
			</linearGradient>
			<path style="fill:url(#SVGID_00000021800629689541444880000002398465238622802081_);" d="M182.311,301.948
				c0,0,0.94-8.642,5.501-10.656l-0.625-0.694c0,0-3.996-0.066-4.915,0.732c-0.847,0.735-4.559,5.115-3.806,9.221
				c0.057,0.314,3.351,1.246,3.351,1.246L182.311,301.948z"/>
		</g>
		<g>
			
				<linearGradient id="SVGID_00000047030114635454356460000016896239417538947725_" gradientUnits="userSpaceOnUse" x1="583.7468" y1="278.2883" x2="582.7193" y2="134.4241">
				<stop  offset="0" style="stop-color:#B866FA"/>
				<stop  offset="1" style="stop-color:#78DDFE"/>
			</linearGradient>
			<path style="fill:url(#SVGID_00000047030114635454356460000016896239417538947725_);" d="M582.953,173.915
				c8.635,0,8.65-13.42,0-13.42C574.318,160.495,574.304,173.915,582.953,173.915L582.953,173.915z"/>
			
				<linearGradient id="SVGID_00000062876369324383361260000013590078921338338237_" gradientUnits="userSpaceOnUse" x1="428.0268" y1="182.4176" x2="426.9994" y2="38.5527">
				<stop  offset="0" style="stop-color:#B866FA"/>
				<stop  offset="1" style="stop-color:#78DDFE"/>
			</linearGradient>
			<path style="fill:url(#SVGID_00000062876369324383361260000013590078921338338237_);" d="M427.459,113.648
				c13.817,0,13.839-21.473,0-21.473C413.642,92.175,413.62,113.648,427.459,113.648L427.459,113.648z"/>
			<g>
				
					<linearGradient id="SVGID_00000090273173406971272120000007027016166604772736_" gradientUnits="userSpaceOnUse" x1="639.033" y1="253.4068" x2="639.9835" y2="225.3671">
					<stop  offset="0" style="stop-color:#B866FA"/>
					<stop  offset="1" style="stop-color:#78DDFE"/>
				</linearGradient>
				<path style="fill:url(#SVGID_00000090273173406971272120000007027016166604772736_);" d="M639.908,238.32
					c13.817,0,13.839-21.472,0-21.472C626.092,216.848,626.069,238.32,639.908,238.32L639.908,238.32z"/>
			</g>
			<g>
				
					<linearGradient id="SVGID_00000093861750437251609820000007303386737778267034_" gradientUnits="userSpaceOnUse" x1="266.5695" y1="213.9402" x2="265.542" y2="70.0763">
					<stop  offset="0" style="stop-color:#B866FA"/>
					<stop  offset="1" style="stop-color:#78DDFE"/>
				</linearGradient>
				<path style="fill:url(#SVGID_00000093861750437251609820000007303386737778267034_);" d="M264.669,103.642c0.7,0,1.4,0,2.101,0
					c1.201,0.045,2.321-0.205,3.361-0.751c1.081-0.352,2.017-0.953,2.807-1.804c0.851-0.79,1.452-1.726,1.804-2.807
					c0.546-1.04,0.797-2.16,0.751-3.361c-0.104-0.773-0.208-1.546-0.312-2.319c-0.414-1.478-1.162-2.761-2.243-3.849
					c-1.707-1.567-3.805-2.555-6.168-2.555c-0.7,0-1.4,0-2.101,0c-1.201-0.045-2.321,0.205-3.361,0.751
					c-1.082,0.352-2.017,0.953-2.807,1.804c-0.851,0.79-1.452,1.726-1.804,2.807c-0.546,1.039-0.797,2.16-0.751,3.361
					c0.104,0.773,0.208,1.546,0.312,2.319c0.414,1.478,1.162,2.761,2.243,3.849C260.208,102.654,262.306,103.642,264.669,103.642
					L264.669,103.642z"/>
			</g>
			<g>
				
					<linearGradient id="SVGID_00000054237574143959268980000003259945846249607824_" gradientUnits="userSpaceOnUse" x1="197.8658" y1="205.4632" x2="196.8383" y2="61.5989">
					<stop  offset="0" style="stop-color:#B866FA"/>
					<stop  offset="1" style="stop-color:#78DDFE"/>
				</linearGradient>
				<path style="fill:url(#SVGID_00000054237574143959268980000003259945846249607824_);" d="M197.338,135.583
					c5.181,0,5.19-8.052,0-8.052C192.157,127.531,192.148,135.583,197.338,135.583L197.338,135.583z"/>
			</g>
			<g>
				
					<linearGradient id="SVGID_00000171689526694112624010000011535790259093507974_" gradientUnits="userSpaceOnUse" x1="514.7967" y1="229.6481" x2="513.7692" y2="85.7839">
					<stop  offset="0" style="stop-color:#B866FA"/>
					<stop  offset="1" style="stop-color:#78DDFE"/>
				</linearGradient>
				<path style="fill:url(#SVGID_00000171689526694112624010000011535790259093507974_);" d="M514.067,134.241
					c8.635,0,8.65-13.42,0-13.42C505.432,120.82,505.418,134.241,514.067,134.241L514.067,134.241z"/>
			</g>
			<g>
				
					<linearGradient id="SVGID_00000021840673384889229240000006174709066388661416_" gradientUnits="userSpaceOnUse" x1="124.4377" y1="250.8007" x2="123.4102" y2="106.9362">
					<stop  offset="0" style="stop-color:#B866FA"/>
					<stop  offset="1" style="stop-color:#78DDFE"/>
				</linearGradient>
				<path style="fill:url(#SVGID_00000021840673384889229240000006174709066388661416_);" d="M123.965,193.999
					c12.09,0,12.11-18.788,0-18.788C111.876,175.21,111.855,193.999,123.965,193.999L123.965,193.999z"/>
			</g>
		</g>
	</g>
</g>
<g id="DESIGNED_BY_FREEPIK">
	<g>
		<path style="fill:#112129;" d="M385.103,467.086c-0.433,0.442-0.804,0.932-1.107,1.452l-0.465-0.24
			c-0.068-0.297-0.351-0.502-0.659-0.467c-0.331,0.039-0.568,0.34-0.53,0.671c0.039,0.33,0.339,0.566,0.67,0.527
			c0.066-0.007,0.127-0.024,0.185-0.051l0.45,0.234c-0.251,0.554-0.433,1.139-0.538,1.742l0.746,0.133
			c0.23-1.307,0.851-2.508,1.792-3.474L385.103,467.086z"/>
		<path style="fill:#112129;" d="M390.591,464.783c-0.171,0-0.341,0.007-0.509,0.018l-0.074-0.626
			c0.188-0.15,0.297-0.389,0.267-0.646c-0.046-0.392-0.403-0.674-0.795-0.628c-0.395,0.046-0.675,0.403-0.628,0.796
			c0.029,0.255,0.189,0.461,0.403,0.563l0.073,0.625c-0.714,0.116-1.402,0.332-2.059,0.645l0.327,0.685
			c0.934-0.448,1.94-0.674,2.994-0.674c0.497,0,0.993,0.053,1.477,0.157l0.16-0.74C391.692,464.843,391.143,464.783,390.591,464.783
			"/>
		<path style="fill:#112129;" d="M397.194,467.331c0.33-0.04,0.565-0.342,0.524-0.673c-0.04-0.331-0.34-0.565-0.672-0.524
			c-0.309,0.038-0.535,0.303-0.53,0.607l-0.416,0.363c-0.418-0.429-0.889-0.811-1.406-1.139l-0.404,0.641
			c1.134,0.715,2.02,1.728,2.563,2.925l0.691-0.312c-0.251-0.554-0.568-1.072-0.943-1.545l0.403-0.352
			C397.064,467.336,397.129,467.34,397.194,467.331"/>
		<path style="fill:#112129;" d="M390.045,474.991c-0.387,0.023-0.775,0.035-1.157,0.035c-0.88,0-1.734-0.06-2.479-0.18
			c-0.39-0.061-0.846-0.154-1.27-0.292c1.047,1.862,3.068,3.125,5.388,3.125c2.857,0,5.263-1.916,5.95-4.502
			c-0.682,0.449-1.505,0.825-2.458,1.122C392.839,474.668,391.464,474.906,390.045,474.991"/>
		<path style="fill:#112129;" d="M390.592,466.301c-3.353,0-6.079,2.666-6.079,5.943c0,0.425,0.046,0.849,0.136,1.261
			c0.674,0.482,2.707,0.89,5.348,0.73c2.88-0.174,5.297-0.958,6.672-2.158c-0.005-0.194-0.02-0.391-0.045-0.581
			C396.243,468.534,393.649,466.301,390.592,466.301 M388.433,472.815c-1.02,0-1.851-0.83-1.851-1.849
			c0-1.021,0.83-1.852,1.851-1.852c1.019,0,1.849,0.83,1.849,1.852C390.281,471.984,389.451,472.815,388.433,472.815
			 M393.17,471.906c-0.75,0-1.36-0.609-1.36-1.359s0.61-1.361,1.36-1.361s1.359,0.611,1.359,1.361S393.92,471.906,393.17,471.906"/>
		<path style="fill:#112129;" d="M406.596,468.168c-0.296-0.116-0.807-0.311-1.384-0.238c-0.551,0.068-0.844,0.34-0.844,1.006v0.867
			h2.229v1.717h-2.229v5.455h-1.931v-5.455h-1.339v-1.717h1.339v-0.89c0-1.68,0.895-2.781,2.567-2.781
			c0.643,0,1.157,0.121,1.591,0.307V468.168z"/>
		<path style="fill:#112129;" d="M411.297,471.498c-0.177-0.028-0.357-0.046-0.525-0.046c-0.896,0-1.51,0.549-1.51,1.613v3.909
			h-1.934v-7.172h1.873v0.784c0.451-0.674,1.141-0.978,2.022-0.978c0.414,0,0.847,0.128,1.095,0.337L411.297,471.498z"/>
		<path style="fill:#112129;" d="M418.965,473.377c0,0.223-0.015,0.488-0.037,0.651h-5.085c0.207,1.037,0.934,1.488,1.844,1.488
			c0.621,0,1.295-0.252,1.813-0.69l1.133,1.243c-0.814,0.748-1.85,1.089-3.056,1.089c-2.199,0-3.725-1.496-3.725-3.753
			c0-2.257,1.482-3.797,3.628-3.797C417.543,469.609,418.958,471.143,418.965,473.377 M413.852,472.711h3.175
			c-0.179-0.918-0.733-1.436-1.563-1.436C414.554,471.274,414.022,471.822,413.852,472.711"/>
		<path style="fill:#112129;" d="M426.618,473.377c0,0.223-0.015,0.488-0.037,0.651h-5.085c0.207,1.037,0.934,1.488,1.844,1.488
			c0.621,0,1.296-0.252,1.813-0.69l1.133,1.243c-0.813,0.748-1.85,1.089-3.057,1.089c-2.199,0-3.724-1.496-3.724-3.753
			c0-2.257,1.481-3.797,3.628-3.797C425.196,469.609,426.611,471.143,426.618,473.377 M421.504,472.711h3.176
			c-0.179-0.918-0.734-1.436-1.563-1.436C422.207,471.274,421.675,471.822,421.504,472.711"/>
		<path style="fill:#112129;" d="M434.965,473.385c0,2.153-1.495,3.774-3.473,3.774c-0.962,0-1.644-0.378-2.108-0.932v3.708h-1.925
			v-10.133h1.888v0.792c0.466-0.585,1.154-0.984,2.138-0.984C433.47,469.61,434.965,471.231,434.965,473.385 M429.287,473.385
			c0,1.133,0.748,1.977,1.844,1.977c1.139,0,1.849-0.881,1.849-1.977s-0.71-1.977-1.849-1.977
			C430.035,471.408,429.287,472.252,429.287,473.385"/>
		<path style="fill:#112129;" d="M438.068,467.455c0,0.697-0.541,1.23-1.237,1.23c-0.696,0-1.228-0.533-1.228-1.23
			c0-0.694,0.531-1.243,1.228-1.243C437.527,466.212,438.068,466.761,438.068,467.455 M437.809,476.975h-1.933v-7.172h1.933V476.975
			z"/>
		<polygon style="fill:#112129;" points="441.032,472.356 443.733,469.802 446.102,469.802 442.624,473.177 446.125,476.974 
			443.749,476.974 441.032,474.073 441.032,476.974 439.1,476.974 439.1,466.316 441.032,466.316 		"/>
		<path style="fill:#112129;" d="M309.412,476.91v-1.056c-0.527,0.718-1.391,1.231-2.387,1.231c-1.846,0-3.15-1.406-3.15-3.706
			c0-2.256,1.289-3.722,3.15-3.722c0.952,0,1.816,0.47,2.387,1.245v-3.765h1.099v9.771H309.412z M309.412,474.99v-3.208
			c-0.395-0.614-1.245-1.143-2.124-1.143c-1.42,0-2.27,1.172-2.27,2.74c0,1.566,0.85,2.724,2.27,2.724
			C308.167,476.103,309.017,475.605,309.412,474.99"/>
		<path style="fill:#112129;" d="M311.931,473.365c0-2.052,1.465-3.706,3.487-3.706c2.138,0,3.398,1.67,3.398,3.794v0.277h-5.727
			c0.087,1.333,1.025,2.446,2.548,2.446c0.806,0,1.626-0.322,2.183-0.893l0.527,0.718c-0.703,0.703-1.655,1.084-2.812,1.084
			C313.44,477.086,311.931,475.577,311.931,473.365 M315.403,470.566c-1.509,0-2.256,1.274-2.314,2.358h4.643
			C317.717,471.871,317.014,470.566,315.403,470.566"/>
		<path style="fill:#112129;" d="M319.607,475.973l0.571-0.791c0.469,0.542,1.363,1.011,2.329,1.011c1.084,0,1.67-0.514,1.67-1.216
			c0-1.715-4.38-0.659-4.38-3.281c0-1.1,0.952-2.037,2.637-2.037c1.201,0,2.051,0.455,2.622,1.026l-0.513,0.762
			c-0.424-0.513-1.201-0.895-2.109-0.895c-0.967,0-1.567,0.483-1.567,1.113c0,1.553,4.379,0.528,4.379,3.282
			c0,1.186-0.952,2.138-2.783,2.138C321.306,477.085,320.325,476.734,319.607,475.973"/>
		<path style="fill:#112129;" d="M326.477,468.091c0-0.409,0.337-0.746,0.732-0.746c0.41,0,0.747,0.337,0.747,0.746
			c0,0.41-0.337,0.732-0.747,0.732C326.814,468.823,326.477,468.501,326.477,468.091 M326.667,469.834h1.099v7.075h-1.099V469.834z"
			/>
		<path style="fill:#112129;" d="M329.582,478.727l0.556-0.821c0.586,0.703,1.289,0.967,2.3,0.967c1.171,0,2.27-0.57,2.27-2.124
			v-1.011c-0.513,0.718-1.377,1.26-2.373,1.26c-1.846,0-3.149-1.377-3.149-3.661c0-2.271,1.289-3.678,3.149-3.678
			c0.952,0,1.802,0.47,2.373,1.245v-1.068h1.099v6.869c0,2.345-1.641,3.076-3.369,3.076
			C331.236,479.78,330.417,479.546,329.582,478.727 M334.708,474.873v-3.091c-0.381-0.614-1.23-1.142-2.109-1.142
			c-1.421,0-2.27,1.128-2.27,2.695c0,1.553,0.849,2.694,2.27,2.694C333.478,476.03,334.328,475.488,334.708,474.873"/>
		<path style="fill:#112129;" d="M342.413,476.91v-4.63c0-1.244-0.63-1.641-1.582-1.641c-0.864,0-1.685,0.528-2.094,1.099v5.172
			h-1.099v-7.075h1.099v1.024c0.497-0.586,1.464-1.201,2.518-1.201c1.479,0,2.256,0.747,2.256,2.285v4.967H342.413z"/>
		<path style="fill:#112129;" d="M344.932,473.365c0-2.052,1.465-3.706,3.487-3.706c2.138,0,3.398,1.67,3.398,3.794v0.277h-5.727
			c0.088,1.333,1.025,2.446,2.548,2.446c0.806,0,1.626-0.322,2.183-0.893l0.527,0.718c-0.703,0.703-1.655,1.084-2.812,1.084
			C346.442,477.086,344.932,475.577,344.932,473.365 M348.404,470.566c-1.509,0-2.256,1.274-2.314,2.358h4.643
			C350.718,471.871,350.015,470.566,348.404,470.566"/>
		<path style="fill:#112129;" d="M358.35,476.91v-1.056c-0.527,0.718-1.392,1.231-2.388,1.231c-1.845,0-3.149-1.406-3.149-3.706
			c0-2.256,1.288-3.722,3.149-3.722c0.952,0,1.817,0.47,2.388,1.245v-3.765h1.098v9.771H358.35z M358.35,474.99v-3.208
			c-0.396-0.614-1.245-1.143-2.124-1.143c-1.421,0-2.271,1.172-2.271,2.74c0,1.566,0.85,2.724,2.271,2.724
			C357.105,476.103,357.954,475.605,358.35,474.99"/>
		<path style="fill:#112129;" d="M364.692,476.91v-9.771h1.099v3.766c0.571-0.777,1.421-1.245,2.387-1.245
			c1.846,0,3.15,1.465,3.15,3.72c0,2.3-1.304,3.707-3.15,3.707c-0.996,0-1.86-0.513-2.387-1.23v1.055H364.692z M367.9,476.103
			c1.436,0,2.285-1.156,2.285-2.725c0-1.567-0.849-2.739-2.285-2.739c-0.864,0-1.729,0.528-2.109,1.144v3.208
			C366.171,475.606,367.036,476.103,367.9,476.103"/>
		<path style="fill:#112129;" d="M372.528,478.682c0.161,0.073,0.425,0.117,0.601,0.117c0.483,0,0.806-0.161,1.055-0.747
			l0.469-1.068l-2.959-7.149h1.188l2.358,5.801l2.344-5.801h1.2l-3.544,8.511c-0.425,1.024-1.143,1.421-2.08,1.437
			c-0.234,0-0.602-0.044-0.806-0.105L372.528,478.682z"/>
	</g>
</g>
</svg>
